<svg width="50" height="51" fill="none" xmlns="http://www.w3.org/2000/svg"><path d="M30 10a1 1 0 0 1-1-1V6a4 4 0 1 0-8 0v3a1 1 0 0 1-2 0V6a6 6 0 1 1 12 0v3a1 1 0 0 1-1 1z" fill="#4795EA"/><path d="M25 7a19 19 0 0 1 19 19v21a4 4 0 0 1-4 4H10a4 4 0 0 1-4-4V26A19 19 0 0 1 25 7z" fill="url(#paint0_linear)"/><path d="M6 31v16a6 6 0 0 1-6-6v-7a3 3 0 0 1 3-3h3zm44 3v7a6 6 0 0 1-6 6V31h3a3 3 0 0 1 3 3z" fill="#4795EA"/><path d="M6 35H0v2h6v-2zm44 0h-6v2h6v-2z" fill="#0668CB"/><path d="M35 29H15a3 3 0 0 0-3 3v12a3 3 0 0 0 3 3h20a3 3 0 0 0 3-3V32a3 3 0 0 0-3-3z" fill="url(#paint1_linear)"/><path d="M29 38a1 1 0 0 1-1-1v-3a1 1 0 0 1 2 0v3a1 1 0 0 1-1 1z" fill="#EB7F58"/><path d="M39 27a1 1 0 0 1-1-1 13 13 0 1 0-26 0 1 1 0 0 1-2 0 15 15 0 0 1 30 0 1 1 0 0 1-1 1z" fill="#4795EA"/><path d="M38 33H12v2h26v-2z" fill="#E0633D"/><defs><linearGradient id="paint0_linear" x1="25" y1="51" x2="25" y2="7" gradientUnits="userSpaceOnUse"><stop stop-color="#54A5FF"/><stop offset="1" stop-color="#8AD3FE"/></linearGradient><linearGradient id="paint1_linear" x1="25" y1="47" x2="25" y2="29" gradientUnits="userSpaceOnUse"><stop stop-color="#FE9661"/><stop offset="1" stop-color="#FFB369"/></linearGradient></defs></svg>