<svg width="50" height="50" fill="none" xmlns="http://www.w3.org/2000/svg"><path d="M11 4H4a4 4 0 0 0-4 4v38a4 4 0 0 0 4 4h42a4 4 0 0 0 4-4V8a4 4 0 0 0-4-4h-7" fill="url(#paint0_linear)"/><path d="M7 4h36v18a18 18 0 0 1-36 0V4z" fill="#4795EA"/><path d="M40 4v19a14.629 14.629 0 0 1-.75 3.81c-.208.628-.462 1.24-.76 1.83a14.571 14.571 0 0 1-2.17 3.24c-.436.5-.904.97-1.4 1.41a14.72 14.72 0 0 1-3.24 2.15c-.531.268-1.079.502-1.64.7l-.19.06A14.24 14.24 0 0 1 26 37h-2a14.24 14.24 0 0 1-3.81-.76l-.19-.1a13.938 13.938 0 0 1-1.64-.7 14.72 14.72 0 0 1-3.24-2.15c-.496-.44-.964-.91-1.4-1.41a14.571 14.571 0 0 1-2.17-3.24 13.306 13.306 0 0 1-.76-1.83A14.63 14.63 0 0 1 10 23V4h30z" fill="url(#paint1_linear)"/><path d="M28.15 16.68L27 14v-1h-4v1l-1.15 2.68a22.929 22.929 0 0 0-1.85 9v10.46a15 15 0 0 0 10 0V25.7c0-3.1-.63-6.17-1.85-9.02z" fill="url(#paint2_linear)"/><path d="M29.59 9.71l-1.93 3.2A2.25 2.25 0 0 1 25.72 14H24.3a2.28 2.28 0 0 1-2-1.12l-1.9-3.25L22 6h6l1.59 3.71z" fill="#EB7F58"/><path d="M22 6l-1.55 3.61-1 2.32A1.72 1.72 0 0 1 17.86 13a1.75 1.75 0 0 1-1.38-.69l-4.85-6.47A3.16 3.16 0 0 1 11 4a3.07 3.07 0 0 1 .53-1.74L13 0l9 6z" fill="url(#paint3_linear)"/><path d="M39 4a3.16 3.16 0 0 1-.63 1.89l-4.85 6.47a1.75 1.75 0 0 1-1.38.69A1.72 1.72 0 0 1 30.55 12l-1-2.24L28 6l9-6 1.47 2.21A3.07 3.07 0 0 1 39 4z" fill="url(#paint4_linear)"/><path d="M28 6h-6l-9-6h24l-9 6z" fill="#B4CDE1"/><path d="M44 22a1 1 0 0 1-1 1h-3v-2h3a1 1 0 0 1 1 1zm-34 1H7a1 1 0 0 1 0-2h3v2zm34-8a1 1 0 0 1-1 1h-3v-2h3a1 1 0 0 1 1 1zm-34-1v2H7a1 1 0 0 1 0-2h3zm34-5a1 1 0 0 1-1 1h-3V8h3a1 1 0 0 1 1 1zM10 8v2H7a1 1 0 0 1 0-2h3zm16 29v3a1 1 0 0 1-2 0v-3h2zm12.43-1.56a1 1 0 0 1-1.41 0l-2.12-2.13c.496-.44.964-.91 1.4-1.41l2.13 2.1a1 1 0 0 1 0 1.44zm-23.31-2.15L13 35.44a1.001 1.001 0 0 1-1.41-1.42l2.12-2.12c.44.493.91.957 1.41 1.39zm17.15 6.26a.84.84 0 0 1-.38.08A1 1 0 0 1 31 39l-1.14-2.77.19-.06a13.945 13.945 0 0 0 1.64-.7l1.15 2.77a1 1 0 0 1-.57 1.31zM11.55 28.64l-2.77 1.15a1 1 0 0 1-1.3-.54A1 1 0 0 1 8 28l2.77-1.14c.216.611.477 1.207.78 1.78zm8.64 7.56L19 39a1 1 0 0 1-.93.62.84.84 0 0 1-.38-.08 1 1 0 0 1-.54-1.3l1.15-2.77c.531.268 1.079.502 1.64.7l.25.03zm22.36-6.93a1 1 0 0 1-1.3.54l-2.77-1.15c.298-.59.553-1.202.76-1.83L42 28a1 1 0 0 1 .55 1.27z" fill="#0668CB"/><defs><linearGradient id="paint0_linear" x1="25" y1="50" x2="25" y2="4" gradientUnits="userSpaceOnUse"><stop stop-color="#54A5FF"/><stop offset="1" stop-color="#8AD3FE"/></linearGradient><linearGradient id="paint1_linear" x1="25" y1="37" x2="25" y2="4" gradientUnits="userSpaceOnUse"><stop stop-color="#D3E6F5"/><stop offset="1" stop-color="#F0F7FC"/></linearGradient><linearGradient id="paint2_linear" x1="25" y1="37" x2="25" y2="13" gradientUnits="userSpaceOnUse"><stop stop-color="#FE9661"/><stop offset="1" stop-color="#FFB369"/></linearGradient><linearGradient id="paint3_linear" x1="269.501" y1="260" x2="269.501" y2="91" gradientUnits="userSpaceOnUse"><stop stop-color="#D3E6F5"/><stop offset="1" stop-color="#F0F7FC"/></linearGradient><linearGradient id="paint4_linear" x1="473.528" y1="261" x2="473.528" y2="91.35" gradientUnits="userSpaceOnUse"><stop stop-color="#D3E6F5"/><stop offset="1" stop-color="#F0F7FC"/></linearGradient></defs></svg>