<svg width="50" height="50" fill="none" xmlns="http://www.w3.org/2000/svg"><path d="M48 0H2a2 2 0 0 0-2 2v46a2 2 0 0 0 2 2h46a2 2 0 0 0 2-2V2a2 2 0 0 0-2-2z" fill="url(#paint0_linear)"/><path d="M10 43a1 1 0 0 1-.55.89l-4 2a1 1 0 0 1-.98-.04A1 1 0 0 1 4 45v-4a1 1 0 0 1 1.45-.89l4 2A1 1 0 0 1 10 43z" fill="url(#paint1_linear)"/><path d="M32 42v2H14a1 1 0 0 1 0-2h18z" fill="url(#paint2_linear)"/><path d="M46 43a1 1 0 0 1-1 1H34v-2h11a1 1 0 0 1 1 1z" fill="#B4CDE1"/><path d="M34 42v2a1 1 0 0 1-2 0v-2a1 1 0 0 1 2 0z" fill="#54A5FF"/><path d="M34 22.6V30l-9 3-9-3v-7.4l9 2.4 9-2.4z" fill="url(#paint3_linear)"/><path d="M2 0h46a2 2 0 0 1 2 2v6H0V2a2 2 0 0 1 2-2z" fill="url(#paint4_linear)"/><path d="M38 32a1 1 0 0 1-1-1V20a1 1 0 0 1 2 0v11a1 1 0 0 1-1 1z" fill="#FE9661"/><path d="M40 20a1.26 1.26 0 0 1-.93 1.22L34 22.6 25 25l-9-2.4-5.07-1.35A1.26 1.26 0 0 1 11 18.8L25 16l14 2.8a1.25 1.25 0 0 1 1 1.2z" fill="url(#paint5_linear)"/><path d="M4 5a1 1 0 1 0 0-2 1 1 0 0 0 0 2z" fill="#0668CB"/><path d="M8 5a1 1 0 1 0 0-2 1 1 0 0 0 0 2z" fill="#FE9661"/><path d="M12 5a1 1 0 1 0 0-2 1 1 0 0 0 0 2z" fill="#F0F7FC"/><defs><linearGradient id="paint0_linear" x1="25" y1="50" x2="25" gradientUnits="userSpaceOnUse"><stop stop-color="#D3E6F5"/><stop offset="1" stop-color="#F0F7FC"/></linearGradient><linearGradient id="paint1_linear" x1="4" y1="43" x2="10" y2="43" gradientUnits="userSpaceOnUse"><stop stop-color="#54A5FF"/><stop offset="1" stop-color="#8AD3FE"/></linearGradient><linearGradient id="paint2_linear" x1="393" y1="142" x2="754" y2="142" gradientUnits="userSpaceOnUse"><stop stop-color="#54A5FF"/><stop offset="1" stop-color="#8AD3FE"/></linearGradient><linearGradient id="paint3_linear" x1="25" y1="22.6" x2="25" y2="33" gradientUnits="userSpaceOnUse"><stop stop-color="#FE9661"/><stop offset="1" stop-color="#FFB369"/></linearGradient><linearGradient id="paint4_linear" x1="350" y1="88" x2="2850" y2="88" gradientUnits="userSpaceOnUse"><stop stop-color="#54A5FF"/><stop offset="1" stop-color="#8AD3FE"/></linearGradient><linearGradient id="paint5_linear" x1="9.998" y1="223" x2="12.728" y2="304.909" gradientUnits="userSpaceOnUse"><stop stop-color="#FE9661"/><stop offset="1" stop-color="#FFB369"/></linearGradient></defs></svg>