<svg width="52" height="52" fill="none" xmlns="http://www.w3.org/2000/svg"><path d="M26 13a1 1 0 0 1-1-1V1a1 1 0 0 1 2 0v11a1 1 0 0 1-1 1z" fill="#0668CB"/><path d="M14 32H3v19h11V32zm35-1H38v20h11V31z" fill="#B4CDE1"/><path d="M38 23H14v28h24V23z" fill="url(#paint0_linear)"/><path d="M22 41h4v10h-6v-8a2 2 0 0 1 2-2zm4 0h4a2 2 0 0 1 2 2v8h-6V41z" fill="#B4CDE1"/><path d="M26 36a3 3 0 1 0 0-6 3 3 0 0 0 0 6z" fill="url(#paint1_linear)"/><path d="M38 27h12a1 1 0 0 1 1 1v2a1 1 0 0 1-1 1H38v-4zM2 28h12v4H2a1 1 0 0 1-1-1v-2a1 1 0 0 1 1-1z" fill="#4795EA"/><path d="M45 37h-3a1 1 0 0 1 0-2h3a1 1 0 0 1 0 2zm0 5h-3a1 1 0 0 1 0-2h3a1 1 0 0 1 0 2zm0 5h-3a1 1 0 0 1 0-2h3a1 1 0 0 1 0 2zM10 37H7a1 1 0 0 1 0-2h3a1 1 0 0 1 0 2zm0 5H7a1 1 0 0 1 0-2h3a1 1 0 0 1 0 2zm0 5H7a1 1 0 0 1 0-2h3a1 1 0 0 1 0 2z" fill="#F0F7FC"/><path d="M26.54 11.35l13 8.35a1 1 0 0 1 .46.85V22a1 1 0 0 1-1 1H13a1 1 0 0 1-1-1v-1.45a1 1 0 0 1 .46-.85l13-8.35a1 1 0 0 1 1.08 0z" fill="#4795EA"/><path d="M27 1h7a1 1 0 0 1 1 1v4a1 1 0 0 1-1 1h-7V1z" fill="url(#paint2_linear)"/><path d="M27 41h-2v10h2V41z" fill="#9DB8D3"/><path d="M51 52H1a1 1 0 0 1 0-2h50a1 1 0 0 1 0 2z" fill="#4795EA"/><defs><linearGradient id="paint0_linear" x1="26" y1="51" x2="26" y2="23" gradientUnits="userSpaceOnUse"><stop stop-color="#D3E6F5"/><stop offset="1" stop-color="#F0F7FC"/></linearGradient><linearGradient id="paint1_linear" x1="26" y1="36" x2="26" y2="30" gradientUnits="userSpaceOnUse"><stop stop-color="#FE9661"/><stop offset="1" stop-color="#FFB369"/></linearGradient><linearGradient id="paint2_linear" x1="355" y1="61" x2="291" y2="61" gradientUnits="userSpaceOnUse"><stop stop-color="#FE9661"/><stop offset="1" stop-color="#FFB369"/></linearGradient></defs></svg>