<svg width="50" height="50" fill="none" xmlns="http://www.w3.org/2000/svg"><path d="M50 6v1a1 1 0 0 1-1 1H38V6.25A6.21 6.21 0 0 1 44.16 0 6 6 0 0 1 50 6zm0 33v.75A6.21 6.21 0 0 1 43.84 46 6 6 0 0 1 38 40v-2h11a1 1 0 0 1 1 1z" fill="#9DB8D3"/><path d="M23 46h21a6 6 0 0 1-6-6V6a6 6 0 0 1 6-6H6a6 6 0 0 0-6 6v34a6 6 0 0 0 6 6h9" fill="url(#paint0_linear)"/><path d="M15 42.46V50l4-2 4 2v-7.54h-8z" fill="url(#paint1_linear)"/><path d="M30 7H8a1 1 0 0 0-1 1v5a1 1 0 0 0 1 1h22a1 1 0 0 0 1-1V8a1 1 0 0 0-1-1z" fill="url(#paint2_linear)"/><path d="M29 21H9a1 1 0 0 1 0-2h20a1 1 0 0 1 0 2zm0 6H9a1 1 0 0 1 0-2h20a1 1 0 0 1 0 2z" fill="#B4CDE1"/><path d="M19 44a6 6 0 1 0 0-12 6 6 0 0 0 0 12z" fill="#EB7F58"/><defs><linearGradient id="paint0_linear" x1="22" y1="46" x2="22" gradientUnits="userSpaceOnUse"><stop stop-color="#D3E6F5"/><stop offset="1" stop-color="#F0F7FC"/></linearGradient><linearGradient id="paint1_linear" x1="15" y1="46.23" x2="23" y2="46.23" gradientUnits="userSpaceOnUse"><stop stop-color="#FE9661"/><stop offset="1" stop-color="#FFB369"/></linearGradient><linearGradient id="paint2_linear" x1="7" y1="10.5" x2="31" y2="10.5" gradientUnits="userSpaceOnUse"><stop stop-color="#54A5FF"/><stop offset="1" stop-color="#8AD3FE"/></linearGradient></defs></svg>