<svg width="20" height="24" fill="none" xmlns="http://www.w3.org/2000/svg"><path d="M1.458 7.646h-.06C.628 7.646 0 8.276 0 9.043v6.086a1.4 1.4 0 0 0 1.398 1.399h.06c.77 0 1.399-.63 1.399-1.4V9.044a1.404 1.404 0 0 0-1.4-1.397zm2.067 9.832c0 .707.578 1.282 1.285 1.282h1.373v3.287c0 .773.63 1.4 1.397 1.4h.06c.772 0 1.4-.628 1.4-1.4V18.76h1.919v3.287c0 .773.632 1.4 1.4 1.4h.059c.77 0 1.398-.628 1.398-1.4V18.76h1.374c.706 0 1.284-.575 1.284-1.282v-9.61H3.525v9.61zm9.7-15.436l1.09-1.684a.232.232 0 1 0-.389-.252l-1.13 1.741a7.37 7.37 0 0 0-2.795-.542 7.38 7.38 0 0 0-2.797.542L6.076.107a.232.232 0 0 0-.323-.069.231.231 0 0 0-.068.32l1.091 1.684c-1.967.964-3.294 2.781-3.294 4.866 0 .128.008.254.02.38H16.5c.01-.126.018-.252.018-.38 0-2.085-1.328-3.902-3.294-4.866zM6.987 5.055a.625.625 0 1 1 0-1.248.625.625 0 0 1 0 1.249zm6.026 0a.625.625 0 1 1-.002-1.249.625.625 0 0 1 .002 1.25zm5.588 2.591h-.058c-.77 0-1.4.63-1.4 1.397v6.086c0 .77.631 1.399 1.4 1.399h.06c.77 0 1.397-.63 1.397-1.4V9.044c0-.768-.629-1.397-1.399-1.397z" fill="#162F71"/></svg>