<svg width="22" height="22" fill="none" xmlns="http://www.w3.org/2000/svg"><path d="M3.099 7.727c.069-.166.116-.38.151-.66.023-.18.038-.35.053-.535.01-.117.02-.24.034-.376.06-.601.171-1.453.769-2.05.598-.598 1.449-.71 2.05-.77l.377-.033c.185-.015.354-.03.535-.053.279-.035.493-.082.66-.151.152-.064.328-.177.546-.35.137-.108.256-.21.387-.321.095-.081.195-.167.313-.265.475-.391 1.161-.913 2.026-.913.865 0 1.552.522 2.026.913.118.098.219.184.313.265.13.111.25.213.387.321.218.173.394.286.547.35.166.069.38.116.66.151.18.023.35.038.535.053.116.01.24.02.375.034.602.06 1.453.17 2.051.769L3.1 7.727zm0 0a2.452 2.452 0 0 1-.35.547c-.108.137-.21.257-.321.387-.081.095-.167.195-.265.313-.391.475-.913 1.161-.913 2.026 0 .865.522 1.551.913 2.026M3.1 7.727l-.936 5.299m16.738-5.3v.001c.064.153.177.329.35.547.108.137.21.257.321.387.081.095.167.195.265.313.391.475.913 1.161.913 2.026 0 .865-.522 1.551-.913 2.026-.098.118-.184.219-.265.313-.111.13-.213.25-.322.387a2.448 2.448 0 0 0-.349.547V7.727zm0 0a2.616 2.616 0 0 1-.151-.658m.151.659l-.151-.66m-.856 10.827c-.598.598-1.449.71-2.05.769l-.377.034c-.185.015-.354.03-.535.053a2.62 2.62 0 0 0-.66.15 2.453 2.453 0 0 0-.546.35c-.137.108-.256.21-.386.322-.095.08-.196.167-.314.264-.474.393-1.16.914-2.026.914-.865 0-1.551-.522-2.026-.914a22.094 22.094 0 0 1-.313-.264c-.13-.112-.25-.214-.387-.322a2.456 2.456 0 0 0-.547-.35 2.618 2.618 0 0 0-.659-.15c-.181-.023-.35-.038-.535-.053-.117-.01-.24-.02-.376-.034-.602-.06-1.454-.171-2.051-.769-.598-.598-.71-1.449-.77-2.05l-.033-.377a11.67 11.67 0 0 0-.053-.535 2.617 2.617 0 0 0-.151-.66l14.795 3.622zm0 0c.598-.597.71-1.448.769-2.05m-.77 2.05l.77-2.05m0 0c.014-.137.024-.26.034-.377m-.034.376l.034-.376m0 0c.015-.185.03-.354.053-.535m-.053.535l.053-.535m0 0c.035-.279.082-.493.151-.66l-.151.66zM2.163 13.026c.098.118.184.218.265.313m-.265-.313l.265.313m0 0c.111.13.213.25.322.387m-.322-.387l.322.387m0 0c.172.218.285.394.349.547l-.35-.547zm16-6.658c-.023-.182-.038-.35-.053-.536m.053.536l-.053-.536m0 0c-.01-.116-.02-.24-.034-.375m.034.375l-.034-.375m0 0c-.06-.602-.17-1.454-.769-2.051l.77 2.05z" fill="url(#paint0_linear)" stroke="#fff" stroke-width="1.5"/><path d="M13.571 9.714l-3 3.287L8.43 10.86" stroke="#fff" stroke-width="2" stroke-linecap="round"/><defs><linearGradient id="paint0_linear" x1="2" y1="2" x2="2" y2="20" gradientUnits="userSpaceOnUse"><stop stop-color="#5986FB"/><stop offset="1" stop-color="#2D4EF5"/></linearGradient></defs></svg>