<svg width="18" height="18" fill="none" xmlns="http://www.w3.org/2000/svg"><path fill-rule="evenodd" clip-rule="evenodd" d="M18 9c0 1.139-1.38 1.995-1.791 2.985-.426 1.027-.071 2.605-.845 3.379-.774.773-2.352.419-3.379.844C10.995 16.619 10.14 18 9 18c-1.139 0-1.995-1.38-2.985-1.792-1.027-.425-2.605-.07-3.379-.844s-.419-2.352-.844-3.379C1.38 10.995 0 10.14 0 9c0-1.139 1.38-1.995 1.792-2.986.425-1.026.07-2.605.844-3.378.774-.774 2.352-.419 3.379-.844C7.005 1.38 7.86 0 9 0s1.995 1.38 2.986 1.792c1.026.425 2.604.07 3.378.844.774.773.419 2.352.845 3.378C16.619 7.004 18 7.861 18 9z" fill="url(#paint0_linear)" fill-opacity=".2"/><path d="M11.571 7.714l-3 3.288L6.429 8.86" stroke="url(#paint1_linear)" stroke-width="2" stroke-linecap="round"/><defs><linearGradient id="paint0_linear" x2="0" y2="18" gradientUnits="userSpaceOnUse"><stop stop-color="#5986FB"/><stop offset="1" stop-color="#2D4EF5"/></linearGradient><linearGradient id="paint1_linear" x1="6.428" y1="7.714" x2="6.428" y2="11.002" gradientUnits="userSpaceOnUse"><stop stop-color="#5986FB"/><stop offset="1" stop-color="#2D4EF5"/></linearGradient></defs></svg>