<svg width="14" height="14" fill="none" xmlns="http://www.w3.org/2000/svg"><path d="M13 2.333v-.666A.667.667 0 0 0 12.333 1h-.666M13 9v.667a.667.667 0 0 1-.667.666h-.666m-8-8v-.666c0-.368.298-.667.666-.667H5m2.667 0H9m4 5.333V5m-4 8H1.667A.667.667 0 0 1 1 12.333V5c0-.368.299-.667.667-.667H9c.368 0 .667.299.667.667v7.333A.667.667 0 0 1 9 13z" stroke="url(#paint0_linear)" stroke-width="1.5" stroke-linecap="round" stroke-linejoin="round"/><defs><linearGradient id="paint0_linear" x1="1" y1="1" x2="1" y2="13" gradientUnits="userSpaceOnUse"><stop stop-color="#5986FB"/><stop offset="1" stop-color="#2D4EF5"/></linearGradient></defs></svg>