<svg width="44" height="44" fill="none" xmlns="http://www.w3.org/2000/svg"><path d="M2 22C2 10.954 10.954 2 22 2s20 8.954 20 20-8.954 20-20 20S2 33.046 2 22z" fill="url(#paint0_linear)"/><path fill-rule="evenodd" clip-rule="evenodd" d="M23 28.85V31h-2.5v-2H16V15h4.5v-2H23v2.15c3.186.604 5 3.012 5 6.787 0 3.862-1.796 6.304-5 6.913zm0-2.387c1.559-.666 2.413-2.207 2.413-4.487 0-2.223-.869-3.758-2.413-4.43v8.917zm-2.5-9.3h-1.962v9.674H20.5v-9.674z" fill="#fff"/><path d="M22 40c-9.941 0-18-8.059-18-18H0c0 12.15 9.85 22 22 22v-4zm18-18c0 9.941-8.059 18-18 18v4c12.15 0 22-9.85 22-22h-4zM22 4c9.941 0 18 8.059 18 18h4C44 9.85 34.15 0 22 0v4zm0-4C9.85 0 0 9.85 0 22h4c0-9.941 8.059-18 18-18V0z" fill="#fff"/><defs><linearGradient id="paint0_linear" x1="2" y1="2" x2="2" y2="42" gradientUnits="userSpaceOnUse"><stop stop-color="#5986FB"/><stop offset="1" stop-color="#2D4EF5"/></linearGradient></defs></svg>