<svg width="16" height="16" fill="none" xmlns="http://www.w3.org/2000/svg"><path d="M5.9 10.1l4.2-4.2m-4.336 7.496H4.13a1.527 1.527 0 0 1-1.526-1.526v-1.002c0-.405-.161-.793-.448-1.08l-.709-.709a1.526 1.526 0 0 1 0-2.158l.71-.71c.286-.286.447-.673.447-1.079V4.13c0-.843.683-1.526 1.526-1.526h1.002c.405 0 .793-.161 1.08-.448l.709-.709a1.526 1.526 0 0 1 2.158 0l.71.71c.286.286.674.447 1.079.447h1.002c.843 0 1.527.683 1.527 1.526v1.002c0 .405.16.793.447 1.08l.709.709a1.526 1.526 0 0 1 0 2.158l-.71.71a1.527 1.527 0 0 0-.447 1.079v1.002c0 .843-.683 1.527-1.526 1.527h-1.002c-.405 0-.793.16-1.08.447l-.709.709a1.526 1.526 0 0 1-2.158 0l-1.157-1.157zm.31-7.496a.175.175 0 1 0 .176.175.175.175 0 0 0-.176-.175zm3.85 3.85a.175.175 0 1 0 .176.175.175.175 0 0 0-.176-.175z" stroke="#fff" stroke-width="1.5" stroke-linecap="round" stroke-linejoin="round"/></svg>