<svg width="24" height="24" fill="none" xmlns="http://www.w3.org/2000/svg"><path d="M11.159 15.427H8.573v-2.586c0-.265.105-.52.293-.707l4-4a.999.999 0 0 1 1.414 0l1.586 1.586a.999.999 0 0 1 0 1.414l-4 4a1.002 1.002 0 0 1-.707.293z" stroke="url(#paint0_linear)" stroke-width="1.5" stroke-linecap="round" stroke-linejoin="round"/><path d="M14 21h-4a7 7 0 0 1-7-7v-4a7 7 0 0 1 7-7h4a7 7 0 0 1 7 7v4a7 7 0 0 1-7 7z" stroke="url(#paint1_linear)" stroke-width="1.5" stroke-linecap="round" stroke-linejoin="round"/><defs><linearGradient id="paint0_linear" x1="8.573" y1="7.841" x2="8.573" y2="15.427" gradientUnits="userSpaceOnUse"><stop stop-color="#5986FB"/><stop offset="1" stop-color="#2D4EF5"/></linearGradient><linearGradient id="paint1_linear" x1="3" y1="3" x2="3" y2="21" gradientUnits="userSpaceOnUse"><stop stop-color="#5986FB"/><stop offset="1" stop-color="#2D4EF5"/></linearGradient></defs></svg>