<svg width="22" height="22" fill="none" xmlns="http://www.w3.org/2000/svg"><path d="M4.333 18.704h-1.11A2.222 2.222 0 0 1 1 16.482v-2.725a2.32 2.32 0 0 1 2.32-2.32h1.013m13.334 7.267h1.11A2.222 2.222 0 0 0 21 16.482v-2.778a2.222 2.222 0 0 0-2.222-2.222h-1.111m-3.334-7.149v-1.11A2.222 2.222 0 0 0 12.111 1H9.89a2.222 2.222 0 0 0-2.222 2.222v1.111m4.444 4.445H9.89m3.333 8.77H8.778a1.112 1.112 0 0 1-1.111-1.11v-2.222c0-.614.497-1.112 1.11-1.112h4.445c.614 0 1.111.498 1.111 1.112v2.222a1.11 1.11 0 0 1-1.11 1.11zm0-13.215H8.778a4.445 4.445 0 0 0-4.445 4.445v10c0 1.228.995 2.222 2.223 2.222h8.888a2.222 2.222 0 0 0 2.223-2.222v-10a4.445 4.445 0 0 0-4.445-4.445z" stroke="url(#paint0_linear)" stroke-width="1.549" stroke-linecap="round" stroke-linejoin="round"/><defs><linearGradient id="paint0_linear" x1="1" y1="1" x2="1" y2="21" gradientUnits="userSpaceOnUse"><stop stop-color="#5986FB"/><stop offset="1" stop-color="#2D4EF5"/></linearGradient></defs></svg>