<svg width="20" height="22" fill="none" xmlns="http://www.w3.org/2000/svg"><path d="M19 17.667H4.375M19 14.333v5.556c0 .613-.504 1.111-1.125 1.111h-13.5C2.511 21 1 19.508 1 17.667m18-3.334H4.375m14.625 0V2.111C19 1.498 18.496 1 17.875 1h-13.5m0 13.333C2.511 14.333 1 15.826 1 17.667m3.375-3.334V1M1 17.667V4.333C1 2.493 2.51 1 4.375 1m4.5 4.444h4.5m-4.5 4.445h4.5" stroke="url(#paint0_linear)" stroke-width="1.5" stroke-linecap="round" stroke-linejoin="round"/><defs><linearGradient id="paint0_linear" x1="1" y1="1" x2="1" y2="21" gradientUnits="userSpaceOnUse"><stop stop-color="#5986FB"/><stop offset="1" stop-color="#2D4EF5"/></linearGradient></defs></svg>