<svg width="24" height="26" fill="none" xmlns="http://www.w3.org/2000/svg"><path d="M6.824 22.73H1.647m5.177-6.487H1.647M17.177 3.27h5.176M8.639 5.442l-2.673 2.68L4.36 6.514m12.816 3.243h5.176m-3.516 8.39l-2.674 2.68m2.674 0l-2.674-2.68M6.5 1C9.537 1 12 3.469 12 6.514c0 3.044-2.463 5.513-5.5 5.513S1 9.558 1 6.514C1 3.469 3.463 1 6.5 1zm11 12.973c3.037 0 5.5 2.469 5.5 5.513C23 22.532 20.537 25 17.5 25S12 22.531 12 19.486c0-3.044 2.463-5.513 5.5-5.513z" stroke="#848E9F" stroke-width="1.5" stroke-linecap="round" stroke-linejoin="round"/></svg>