<svg width="24" height="24" fill="none" xmlns="http://www.w3.org/2000/svg"><path fill-rule="evenodd" clip-rule="evenodd" d="M24 12c0 6.628-5.372 12-12 12S0 18.628 0 12 5.372 0 12 0s12 5.372 12 12zm-8.236-.861l-5.176-3.062a1 1 0 0 0-1.51.862v6.121a1 1 0 0 0 1.51.861l5.176-3.061a1 1 0 0 0 0-1.721z" fill="url(#paint0_linear)"/><path fill-rule="evenodd" clip-rule="evenodd" d="M12 24c6.628 0 12-5.372 12-12S18.628 0 12 0 0 5.372 0 12s5.372 12 12 12zm3.764-12.861l-5.176-3.062a1 1 0 0 0-1.51.862v6.121a1 1 0 0 0 1.51.861l5.176-3.061a1 1 0 0 0 0-1.721z" fill="url(#paint1_linear)"/><defs><linearGradient id="paint0_linear" x2="0" y2="24" gradientUnits="userSpaceOnUse"><stop stop-color="#5986FB"/><stop offset="1" stop-color="#2D4EF5"/></linearGradient><linearGradient id="paint1_linear" x2="0" y2="24" gradientUnits="userSpaceOnUse"><stop stop-color="#5986FB"/><stop offset="1" stop-color="#2D4EF5"/></linearGradient></defs></svg>