<svg width="40" height="40" fill="none" xmlns="http://www.w3.org/2000/svg"><rect opacity=".1" width="40" height="40" rx="6" fill="url(#paint0_linear)"/><path d="M20.26 27.223c3.284 0 5.575-1.884 5.89-4.87h-2.727c-.296 1.585-1.493 2.56-3.154 2.56-2.143 0-3.488-1.763-3.488-4.62 0-2.82 1.364-4.593 3.479-4.593 1.633 0 2.894 1.076 3.154 2.719h2.728c-.214-2.997-2.663-5.038-5.882-5.038-3.878 0-6.337 2.607-6.337 6.92 0 4.324 2.44 6.922 6.337 6.922z" fill="url(#paint1_linear)"/><defs><linearGradient id="paint0_linear" x2="0" y2="40" gradientUnits="userSpaceOnUse"><stop stop-color="#5986FB"/><stop offset="1" stop-color="#2D4EF5"/></linearGradient><linearGradient id="paint1_linear" x2="0" y2="40" gradientUnits="userSpaceOnUse"><stop stop-color="#5986FB"/><stop offset="1" stop-color="#2D4EF5"/></linearGradient></defs></svg>