<svg width="40" height="40" fill="none" xmlns="http://www.w3.org/2000/svg"><rect opacity=".1" width="40" height="40" rx="6" fill="url(#paint0_linear)"/><path d="M20.965 27c2.857 0 4.63-1.475 4.63-3.831 0-1.773-1.337-3.1-3.155-3.238v-.075c1.42-.213 2.514-1.438 2.514-2.903 0-2.05-1.577-3.34-4.091-3.34h-5.826V27h5.928zm-3.127-11.3h2.301c1.308 0 2.06.613 2.06 1.689 0 1.131-.854 1.79-2.347 1.79h-2.014V15.7zm0 9.213v-3.888h2.348c1.65 0 2.55.668 2.55 1.92 0 1.281-.871 1.968-2.486 1.968h-2.412z" fill="url(#paint1_linear)"/><defs><linearGradient id="paint0_linear" x2="0" y2="40" gradientUnits="userSpaceOnUse"><stop stop-color="#5986FB"/><stop offset="1" stop-color="#2D4EF5"/></linearGradient><linearGradient id="paint1_linear" x2="0" y2="40" gradientUnits="userSpaceOnUse"><stop stop-color="#5986FB"/><stop offset="1" stop-color="#2D4EF5"/></linearGradient></defs></svg>