<svg width="30" height="30" fill="none" xmlns="http://www.w3.org/2000/svg"><rect width="30" height="30" rx="4" fill="url(#paint0_linear)"/><path d="M15.347 21c-2.12 0-3.709-.53-4.764-1.59C9.528 18.352 9 16.898 9 15.05v-.13c0-1.784.576-3.216 1.728-4.297C11.891 9.54 13.361 9 15.138 9c3.53 0 5.437 1.6 5.717 4.8h-4.458c-.021-.443-.145-.784-.371-1.022-.216-.248-.506-.373-.873-.373-1.076 0-1.615.833-1.615 2.498v.13c0 1.675.566 2.513 1.696 2.513.883 0 1.373-.465 1.47-1.395H21c-.065 1.546-.614 2.74-1.647 3.584C18.33 20.578 16.995 21 15.347 21z" fill="#fff"/><defs><linearGradient id="paint0_linear" x2="0" y2="30" gradientUnits="userSpaceOnUse"><stop stop-color="#5986FB"/><stop offset="1" stop-color="#2D4EF5"/></linearGradient></defs></svg>