<svg width="30" height="30" fill="none" xmlns="http://www.w3.org/2000/svg"><rect width="30" height="30" rx="4" fill="url(#paint0_linear)"/><path d="M10 21V9h5.874c1.375 0 2.367.296 2.976.89.61.592.914 1.348.914 2.265v.067c0 1.421-.672 2.289-2.016 2.602.661.1 1.202.386 1.622.856.42.459.63 1.096.63 1.913v.067c0 2.227-1.433 3.34-4.3 3.34H10zm4.079-2.887h.756c.693 0 1.039-.324 1.039-.973v-.067c0-.638-.362-.957-1.087-.957h-.708v1.997zm0-4.582h.819c.325 0 .561-.061.708-.184.147-.123.22-.319.22-.588v-.067c0-.548-.309-.822-.928-.822h-.82v1.662z" fill="#fff"/><defs><linearGradient id="paint0_linear" x2="0" y2="30" gradientUnits="userSpaceOnUse"><stop stop-color="#5986FB"/><stop offset="1" stop-color="#2D4EF5"/></linearGradient></defs></svg>