<svg width="603" height="696" fill="none" xmlns="http://www.w3.org/2000/svg"><g clip-path="url(#clip0)"><path d="M359.281 53.832c-1.088-4.682-3.598-14.633-8.366-18.98 1.505-7.192-.921-15.805-6.443-19.902-3.765-2.843-7.864-3.68-12.131-3.596.669 0-2.008-4.431-2.343-4.766-1.589-1.589-3.681-2.592-5.772-3.345C319.038 1.32 313.349.82 307.911.317c-10.123-.92-22.506 0-31.374 4.933-7.279 4.098-16.482 12.292-18.406 20.988-1.674 0-3.431.335-4.769.586-3.347.585-6.275 2.09-8.367 4.682-4.016 4.934-4.183 10.787-4.099 16.808.083 8.78.251 17.058 2.342 25.67 2.008 8.195 4.769 16.139 7.112 24.166 3.681 12.71 8.868 31.022 18.406 40.555 1.255 1.254 3.932.083 3.263-1.84-2.51-6.606-5.104-13.295-7.781-19.901 3.765 2.759 8.45 4.85 12.801 7.107 11.127 5.77 27.776 7.275 40.326 6.272 9.705-.753 20.665-3.428 26.271-12.125 7.111-11.121 6.777-24.834 10.29-37.126 6.108-7.526 7.698-16.975 5.355-27.26z" fill="#495366"/><path d="M391.157 204.345c-7.195-.167-14.892-2.843-22.255-6.02-7.697-3.345-15.478-6.522-23.008-10.034-5.27-2.425-7.697-5.436-10.458-10.703-3.095-6.105-4.267-14.299-4.518-20.989-.418-9.114-.418-35.704-.418-35.704l-65.509 1.923s3.43 46.408 1.339 52.679c-2.092 6.021-3.263 10.201-8.116 14.215-2.259 1.84-4.601 3.428-6.944 5.017a91.76 91.76 0 0 1-10.123 5.603c-3.682 1.839-7.447 3.595-11.212 5.351l-.167.167c-7.613 1.422-9.454 7.192-2.928 13.128a60.102 60.102 0 0 0 8.199 6.188c2.426 1.505 4.936 2.927 7.613 4.097a71 71 0 0 0 5.271 2.258 119.494 119.494 0 0 0 9.705 3.094l4.016 1.003c17.57 3.763 35.892 4.014 53.713 2.593 9.538-.753 19.075-1.756 28.613-2.509 6.693-.502 13.637-.585 20.414-1.421-2.008.585-4.016 1.087-6.191 1.254-1.171.083-1.422 1.589-.335 2.09 7.698 3.011 16.901-4.013 22.255-8.947 5.773-5.351 9.705-13.128 7.948-20.988 1.172.084 2.259 0 3.347-.251 1.757-.502 1.422-3.094-.251-3.094z" fill="#FADCC8"/><path d="M252.19 83.434c.837 10.87 3.514 19.984 5.355 30.688 1.338 7.609 2.008 19.65 5.605 25.085 2.176 3.345 16.65 23.079 31.04 23.329 25.183.502 28.697-10.452 37.9-19.984 6.191-6.355 6.358-19.149 7.613-23.079 1.255-3.846 2.427-20.152 3.18-31.19.669-8.863.669-17.726.418-26.674-.167-5.351 0-11.204-3.347-15.803-.753-1.004-2.259-.084-1.673 1.087 1.506 2.675 2.008 5.77 2.175 8.863-3.43-6.94-11.713-12.292-18.908-14.298-5.773-1.673-16.231-5.352-22.84-3.01-7.53-6.188-16.984-9.366-26.187-4.014-6.777 4.013-11.63 13.964-15.144 20.57-4.768 9.281-5.94 18.312-5.187 28.43z" fill="#FADCC8"/><path d="M279.047 91.962c-2.008-.083-3.765.335-5.689.67-2.175.334-3.43-.168-5.438-.753-1.004-.335-2.008.836-1.422 1.756.836 1.254 2.008 1.923 3.346 2.174 1.004.418 2.092.585 3.263.502 2.008-.168 5.271-.753 6.777-2.175.753-.836.251-2.174-.837-2.174zm37.565-1.588c2.008 0 3.681.418 5.689.836 2.176.418 3.431 0 5.438-.585 1.004-.251 2.008.92 1.339 1.84-.92 1.254-2.091 1.84-3.43 2.09-1.004.418-2.175.502-3.263.418-2.008-.167-5.271-.92-6.693-2.425-.753-.836-.168-2.174.92-2.174z" fill="#495366"/><path d="M257.879 88.867a28.546 28.546 0 0 0-1.924-4.6c.586-.083 1.088-.585.92-1.254-1.003-4.014-5.438-6.773-9.454-5.017-5.103 2.174-5.103 9.783-3.764 14.299 1.505 5.268 5.354 11.372 9.956 14.633 3.597 2.508 6.776 1.003 6.86-3.428 0-4.6-1.255-10.285-2.594-14.633z" fill="#FADCC8"/><path d="M255.202 99.319c-1.088-.669-1.757-2.174-2.008-3.261-.084-.251 0-1.673-.167-1.756.753.502 1.756 0 2.007-.753 1.004-3.344.335-8.863-1.84-11.706-.586-.753-2.008 0-1.673.92.418 2.843 1.589 5.77 1.255 8.612-1.255 0-2.092 1.17-2.259 2.76-.335 2.675 1.004 6.104 3.43 7.442 1.338 1.003 2.761-1.338 1.255-2.258z" fill="#495366"/><path d="M353.006 83.684c-.251-1.003-.585-1.923-1.171-2.76-1.171-2.592-3.514-4.933-6.442-4.933-1.255 0-2.761.335-3.514 1.255-2.259.668-3.681 2.34-2.845 5.1.168.67 1.172 1.087 1.674.502.418-.502.92-.92 1.422-1.17-.418 4.682-2.092 9.197-1.841 13.88.084.92-4.266 8.947-7.362 12.124-.92 1.004-.084 3.011 1.422 2.509.084 0 .084-.084.168-.084.334 1.087 1.589 1.924 2.593 1.171.251-.167.418-.334.669-.502.335.335.753.502 1.255.335 3.765-1.505 7.781-4.934 9.455-8.362 2.593-5.184 6.023-12.96 4.517-19.065z" fill="#FADCC8"/><path d="M346.815 90.29c-.502-1.004-1.171-1.422-1.841-1.339-.418-2.843 1.673-6.773.168-9.198-.335-.502-1.004-.502-1.339 0-1.004 1.422-.92 4.516-1.088 6.104-.167 1.756-.585 4.432.502 6.02.335.502 1.004.753 1.506.586.084.335.168.586.168.92.251 1.84-.251 3.596-1.172 5.184-.753 1.422 1.255 2.676 2.176 1.338 1.84-2.592 2.509-6.606.92-9.616zm-19.912 56.775c-4.936 4.181-9.454 9.282-14.474 13.379-2.928 2.341-6.024 3.512-9.789 3.763-3.263.251-7.864.585-11.043-.586-1.255-.418-2.176-1.588-3.263-2.425-2.678-2.257-5.522-4.348-8.199-6.605-3.18-2.76-6.192-5.77-9.538-8.529-1.088-.92-2.51.167-1.924 1.421 1.506 3.679 6.023 6.857 8.868 9.449 2.175 2.007 4.183 4.097 6.442 6.02a26.72 26.72 0 0 0 3.514 2.509c2.594 1.505 7.028 1.756 9.956 1.84 3.263.083 8.032 0 11.128-1.004 6.274-2.09 10.039-6.522 14.474-11.288 1.924-2.091 3.681-4.348 5.354-6.69.753-.92-.669-1.923-1.506-1.254zm-31.123-36.792c.083-3.094.502-6.104.418-9.281 0-3.596 1.171-8.78-1.004-11.958-.669-1.003-2.175-.418-2.008.753 1.004 5.602.502 12.793 0 18.396-.586 5.351.335 7.442 3.096 12.124.585 1.088 2.51.419 2.091-.836-1.087-3.177-2.677-5.769-2.593-9.198zm7.362 3.097c-1.171-.084-2.259.167-3.43.418-1.589.334-.92 2.592.586 2.341 1.004-.167 2.091-.251 3.095-.418 1.339-.251 1.004-2.257-.251-2.341zm-17.235-37.212c-2.092-4.682-8.366-4.515-12.633-4.18-4.184.334-10.626.668-13.052 4.598-.92 1.59 0 3.596 1.757 3.93.753.168 15.645.335 22.087-.752 1.59-.335 2.51-2.09 1.841-3.596zm23.427.002c2.008-4.766 8.282-4.6 12.633-4.265 4.183.335 10.625.502 13.052 4.516 1.004 1.588 0 3.595-1.757 3.93-.753.167-14.223 0-22.088-.586-1.673-.167-2.51-2.09-1.84-3.595zm2.677 51.173c-9.287 4.683-16.147 4.014-25.518.251-1.087-.418-1.84 1.087-1.087 1.84 6.525 6.773 21.501 6.188 28.027-.167 1.004-1.004-.251-2.593-1.422-1.924z" fill="#495366"/><path d="M345.895 56.173c.418-.836.084-1.84-.669-2.425a18.88 18.88 0 0 0-1.255-3.26c-4.016-8.697-13.721-8.948-21.92-11.373-6.192-1.84-12.968-4.348-19.829-5.853-2.092-5.352-11.797-4.097-16.231-4.014-4.183.084-8.617-.083-12.466 1.924-5.354 2.842-8.032 8.863-12.968 12.291-.502.335-.753.753-.836 1.171-.502 0-.921.167-1.255.753-2.259 4.264-3.514 8.947-4.435 13.63-.92-.67-2.259-.502-2.761.835-.92 2.593-1.338 5.52-1.506 8.446-.418.167-.836.418-.92.92-.334 1.672.084 3.344.837 4.85v.334c-.251.418-.335.92-.168 1.422.084.167.084.418.168.585.92 2.926 4.35 1.505 5.438-.418 1.841-3.261 1.924-7.442 2.426-11.038.419-2.843 1.255-5.686 2.092-8.612 1.757-4.098 4.769-7.442 9.37-8.362 3.682-.67 7.028.92 10.709.669 3.765-.251 8.032-1.756 11.462-4.181 4.602-2.09 9.873-2.76 14.893-2.425 7.446.585 12.466 4.599 18.908 7.275 1.757 2.759 4.016 5.351 6.944 6.605 1.422.586 3.179 1.088 5.103 1.422 1.59 6.188 1.59 12.794 4.435 18.48.836 1.672 3.095 1.087 3.681-.418 2.175-5.436 2.259-12.878.753-19.233z" fill="#495366"/><path d="M408.475 723.446c.586-25.754 1.841-113.386 2.427-139.14.502-23.58-.753-44.067-3.682-76.929-1.673-18.563-6.86-36.708-8.868-55.188.335-2.174-1.339-3.177-3.095-3.01h-.753c-4.769-5.184-12.885-1.589-18.992-1.756-10.626-.334-11.462-7.693-21.586-10.368-16.733-4.516-36.728-4.432-47.27 11.455-11.211 16.975-12.299 41.224-10.207 60.623 1.171 10.703 3.346 21.49 3.597 32.277.084 5.937-.251 11.957-.418 17.894-.167 7.944-4.434 11.623-3.43 19.483.418 3.763 18.49 159.46 20.414 183.542 2.008 25.085 12.633 106.947 13.721 120.577.837 10.118 1.171 20.486 2.091 30.604.837 9.365 8.032 60.289 10.375 63.466 2.342 3.094 10.207.585 19.577 1.338 6.192.502 18.239-1.003 24.43-.669 4.184.167 19.411 1.338 19.411-5.017v-31.022c2.342-13.463 1.84-199.513 2.258-218.16z" fill="#0D2052"/><path d="M304.313 811.412c-.167-23.246-.92-85.039-.167-96.077.837-12.375 5.02-97.415 9.37-120.912 1.841-9.783-2.844-7.023-2.76-17.058.083-12.542 0-25.001.585-37.544 1.004-20.654 2.761-41.976.418-62.546-1.756-15.47-7.027-32.361-22.338-39.217-14.809-6.606-32.629-4.348-48.191-2.342-10.876 1.422-16.147 3.847-25.936 9.951-.083-.585-.251-1.171-.585-1.672-.837-1.673-2.259-2.593-4.267-2.258-5.187.92-6.944 10.619-7.865 14.884-1.84 8.696-1.84 17.727-1.589 26.59.418 15.135-.67 19.734-1.757 34.786-3.849 55.773.92 120.66 5.773 176.183 4.685 54.184 11.211 108.787 17.904 162.72 1.255 10.118 5.94 49.084 7.613 58.868 1.925 11.455 7.697 63.298 10.04 63.717 2.343.418 11.044-.586 15.813-.753 18.071-.585 41.999 3.679 45.262.585 3.263-3.094 2.845-144.659 2.677-167.905z" fill="#0D2052"/><path d="M538.658 258.444l-53.629 53.85s-.335 5.854 1.339 7.777c-5.439 11.957 4.099 28.932 7.864 40.387 1.422 4.265 6.024 5.101 8.952 1.84 7.446-8.362 6.693-4.85 12.884-14.048 6.694-10.034 41.665-66.476 41.665-66.476l-19.075-23.33z" fill="#FADCC8"/><path d="M599.9 226.923c-.92.084-1.841.418-2.761.836 1.59-1.923 2.928-4.013 3.43-6.104.586-2.341-1.422-4.264-3.681-3.428-5.438 2.09-10.793 9.616-18.657 14.884-1.255-2.425-2.343-5.937-3.681-8.362-1.925-3.261-5.271-5.686-8.869-7.358-3.681-1.756-5.856-.753-5.689 2.926 0 .418.084.836.167 1.171-1.924-1.171-5.689 1.003-8.031 3.094-6.61 5.602-14.391 10.201-18.658 18.145-4.768 9.031-1.422 21.406 5.439 28.179l.167.167c.418.418.837.418 1.255.335.335-.084 6.024 6.188 6.777 6.773 2.761 2.174 5.94 4.181 9.454 5.017 7.111 1.672 20.414-11.707 30.203-23.079l1.004-1.003c4.601-4.85 9.203-9.282 12.884-14.968 1.339-2.09-.837-4.933-3.179-3.762-1.423.668-2.427 1.588-3.431 2.592-.502.251-1.003.501-1.505.836 2.593-2.843 5.521-5.352 7.948-8.278 2.593-3.094 4.266-9.115-.586-8.613zm-42.167 17.56c-2.928 1.338-4.685 2.09-6.944-.167-4.853-4.767 1.673-9.031 5.02-11.958 2.091-1.839 5.02-3.428 5.354-6.606.084-.836.084-1.588 0-2.174 1.841 2.091 5.02 3.178 5.941 6.188 1.171 3.512-.586 4.515-2.427 7.609-1.422 2.509-4.35 5.937-6.944 7.108z" fill="#FADCC8"/><path d="M551.71 248.244c-.669-1.254-2.343-.418-2.092.837.67 4.013 1.004 7.442-.251 11.372-1.171 3.595-3.346 6.104-5.354 9.114-.586.836.502 1.84 1.338 1.422 6.945-3.68 9.957-15.888 6.359-22.745zm23.677-13.378c-1.255 2.341-3.347 4.097-4.853 6.187-.92 1.338 1.171 2.592 2.175 1.338 1.59-2.174 3.849-4.013 4.602-6.689.251-1.171-1.339-1.923-1.924-.836zm18.992-5.352c-3.514 2.174-6.359 5.853-9.371 8.696-3.095 3.01-6.191 6.02-8.784 9.449-.921 1.254 1.171 3.01 2.175 1.756 2.928-3.512 6.191-6.773 9.537-9.951 2.761-2.592 6.275-5.268 7.781-8.78.419-.836-.669-1.588-1.338-1.17z" fill="#495366"/><path d="M406.133 556.794c-13.219-9.031-30.119-14.549-33.968-31.858.251-.502.168-.92-.167-1.338-.167-.251-.334-.418-.502-.669-.836-1.087-2.259-.167-2.426.92-.92 8.612 6.024 16.389 12.131 21.573 6.442 5.603 15.227 12.208 23.677 14.132 1.757.418 2.761-1.756 1.255-2.76z" fill="#081843"/><path d="M589.358 244.815c-1.589.836-2.761 2.425-3.932 3.679-1.171 1.338-2.51 2.676-3.681 4.013-.753.837.167 2.091 1.171 1.589 1.59-.669 2.845-2.174 3.932-3.428 1.255-1.338 2.678-2.592 3.933-3.93 1.087-.92-.084-2.676-1.423-1.923z" fill="#495366"/><path d="M133.387 322.329c1.674-2.09 2.427-6.94 2.427-6.94l-46.852-41.893-3.18-2.843-6.944-6.689-2.008-1.923-.25-.168-2.009-1.923-8.45 11.121-1.84 2.509-8.869 11.706s.418.586 1.255 1.589c.167.251.418.585.753 1.004.335.334.67.836 1.004 1.254 1.59 2.09 3.765 4.933 6.358 8.278.586.753 1.172 1.505 1.758 2.341 10.876 14.466 29.45 41.642 34.218 47.997 7.028 9.449 8.45 11.288 16.817 19.734 3.263 3.345 8.115 2.174 9.454-2.341 3.263-12.209 12.633-30.437 6.358-42.813z" fill="#FADCC8"/><path d="M194.462 520.005s67.768 26.507 74.043 26.675c6.191.25 23.426-31.441 23.426-31.441l-97.469 4.766zm104.497-4.684s10.207 30.604 15.729 33.196c5.522 2.592 93.035-35.287 93.035-35.287l-108.764 2.091zm-53.797-316.66s10.96-12.375 13.637-11.874c2.678.502 42.586 26.758 42.586 26.758l-44.175-.836-12.048-14.048zm61.41 13.963s38.068-28.18 40.829-27.678c2.677.502 15.896 11.205 15.896 11.79 0 .586-13.721 11.707-18.992 12.877-5.355 1.087-37.733 3.011-37.733 3.011z" fill="#fff"/><path d="M72.396 238.964c-6.86-6.104-15.897-7.609-24.263-10.619-3.012-1.087-7.446-1.84-8.785-.084 0-.418-.083-.752-.25-1.171-1.172-3.511-3.598-3.679-6.526-.836-2.761 2.76-5.188 6.355-5.857 10.034-.502 2.76-.251 6.439-.586 9.115-9.37-2.174-17.235-7.442-23.175-7.526-2.593 0-3.765 2.509-2.342 4.516 1.255 1.756 3.179 3.261 5.438 4.515a8.508 8.508 0 0 0-2.928.251c-4.853 1.17-1.088 6.355 2.677 8.445 3.43 1.923 7.111 3.261 10.542 5.017l-1.757-.251c-1.255-.668-2.594-1.087-4.184-1.254-2.677-.251-3.764 3.178-1.757 4.683 5.522 4.013 11.462 6.606 17.654 9.616.418.251.836.418 1.338.585 10.71 5.853 24.096 12.125 32.211 12.292.502 0 1.004 0 1.506-.084 1.339-.083 2.51-.418 3.514-1.087 3.012-2.006 5.355-5.017 7.195-8.027.502-.836 3.765-8.78 4.1-8.78.418 0 .836-.251 1.087-.752 0-.084.084-.168.084-.251a18.444 18.444 0 0 0 1.506-4.265c.084-.251.167-.501.167-.752 1.757-8.028-.167-17.727-6.61-23.33zm-16.147 7.442c-1.34 2.927-4.1 4.85-7.447 4.599-2.928-.251-5.689-1.672-7.948-3.428-2.844-2.258-5.354-5.435-5.438-9.198-.084-3.094 2.51-5.268 3.514-7.86.167.585.335 1.254.753 2.007 1.422 2.843 4.769 3.344 7.446 4.348 4.35 1.672 12.048 3.428 9.12 9.532z" fill="#FADCC8"/><path d="M57.587 250.001c.084-.669.92-1.254 1.59-1.003.084 0 .167.083.334.083.419.168.753.669.753 1.087.168 3.345 1.005 6.857 1.925 10.035 1.422 5.184 5.856 8.027 7.697 12.793.418 1.087-.92 1.84-1.757 1.171-6.693-4.934-11.713-15.637-10.542-24.166zm-28.948-1.841c2.677.753 5.605 2.258 7.613 4.097.753.669.084 1.924-.92 1.756-2.594-.585-4.685-2.592-7.279-3.261-1.59-.418-1.088-3.094.586-2.592zm-18.74.167c4.685 1.338 8.952 4.097 13.47 6.02 3.764 1.589 8.533 3.261 10.876 6.773.586.836-.418 1.924-1.339 1.505-4.1-2.006-7.948-4.348-12.047-6.271-4.016-1.84-8.032-4.097-11.546-6.857-.418-.418 0-1.338.586-1.17zm8.366 13.045c2.091.586 3.932 1.673 6.024 2.342 1.924.585 4.1 1.17 5.94 2.09 1.422.669.67 3.01-.92 2.592-2.26-.585-4.518-1.421-6.61-2.341-1.84-.836-4.1-1.672-5.27-3.512-.335-.502.083-1.338.836-1.171zm239.28-27.511c.084.335.084.669 0 1.004v.083c.502 1.924.167-.167 0-1.087z" fill="#495366"/><path d="M416.759 413.222c-1.422-13.629-5.856-74.503-5.522-89.22.251-12.961-8.199-22.744-9.705-35.705-1.673-14.717-.418-29.015.418-43.732.419-8.195.335-16.64-1.756-24.584-1.339-5.268-29.952-26.423-36.897-26.59-.92 0-32.545 18.981-70.361 16.472-24.347-1.588-42-12.877-50.45-13.044-8.45-.167-38.067 5.017-39.322 17.811-.837 8.445 5.856 32.861 6.526 41.14.836 10.201-.753 20.402-2.343 30.437-3.012 18.646-14.056 59.201-14.558 73.249-.669 20.654-2.008 67.981-3.263 88.301-.669 10.285-.251 57.027 3.263 74.671.921 4.515 35.809-1.088 40.494-1.004 25.518.502 81.656 1.004 107.174.836 37.147-.167 55.051-6.187 76.218-6.522 7.698-.167 1.255-90.725.084-102.516z" fill="#026FFF"/><path d="M303.5 359.597c26.675 0 48.299-21.624 48.299-48.298 0-26.675-21.624-48.299-48.299-48.299s-48.299 21.624-48.299 48.299c0 26.674 21.624 48.298 48.299 48.298z" stroke="#fff" stroke-width="1.5"/><path d="M258.917 305.354H250v8.917h8.917v-8.917zm98.083 0h-8.917v8.917H357v-8.917zm-70.1 20.41c8.367 0 13.556-5.439 13.556-14.48 0-9.026-5.189-14.451-13.569-14.451H276.75v28.931h10.15zm-3.513-5.961v-17.009h3.164c4.72 0 7.255 2.26 7.255 8.49 0 6.259-2.535 8.519-7.161 8.519h-3.258zm46.863-8.504c0-9.564-5.739-14.861-13.113-14.861-7.402 0-13.101 5.297-13.101 14.861 0 9.521 5.699 14.861 13.101 14.861 7.374 0 13.113-5.298 13.113-14.861zm-6.785 0c0 5.664-2.36 8.73-6.328 8.73-3.956 0-6.33-3.066-6.33-8.73 0-5.665 2.374-8.731 6.33-8.731 3.968 0 6.328 3.066 6.328 8.731z" fill="#fff"/><path d="M239.725 234.532c-4.016-7.358 1.338-37.712 1.338-37.712s-50.282 6.523-68.186 32.193c-5.02 7.191-19.243 40.889-22.924 52.429-1.757 5.519-4.434 9.95-6.61 15.135-2.008 5.017-1.004 10.786-2.928 15.803-.753 1.924-6.358-5.351-11.378-6.187-5.02-.837-13.638 12.71-18.072 19.566-6.275 9.7-28.864 20.738-30.119 31.692-.586 4.682 7.111 13.796 11.546 18.897 12.549 14.466 37.063 34.618 54.884 41.057 18.071 6.605 33.298-10.62 44.76-24.166 13.972-16.473 20.498-41.307 28.53-61.208 8.868-22.076 15.31-44.987 20.163-68.233 1.924-9.365 3.932-20.319-1.004-29.266zm253.252 70.405c-4.016-6.689-17.737 15.386-20.331 17.309-.334-3.094-1.422-6.439-2.008-8.278-1.506-4.516-9.956-24.082-12.8-27.845-5.104-6.689-20.247-50.004-25.1-57.446-18.573-28.597-69.441-35.286-69.441-35.286s19.494 35.788 15.31 42.645c-5.019 8.362-3.513 18.897-2.007 28.012 3.095 18.229 7.278 36.206 12.8 53.766-2.091 5.268-3.765 11.038-3.681 16.807.167 6.355 2.761 11.456 5.94 16.808 1.924 3.261 2.426 4.264 2.343 7.86-.084 2.926-.335 5.519.669 8.445 1.924 5.519 18.155 24.5 21.836 27.343 3.514 2.676 7.363 9.616 11.044 11.79 2.761 1.673 4.936 4.098 7.697 5.686 7.112 4.181 21.837 8.279 29.367 5.854 17.234-5.603 36.143-22.577 48.609-35.872 4.768-5.101 16.481-16.222 15.812-21.072-1.338-10.034-30.621-47.412-36.059-56.526z" fill="#026FFF"/><path d="M305.736 637.738c-7.53-6.606-9.872-16.808-14.809-25.169-3.179-5.352-7.027-10.369-10.541-15.386-2.427-3.428-4.351-7.944-7.781-10.452-.586-.418-1.673.083-1.59.836.335 4.599 4.351 8.613 6.944 12.292 3.765 5.351 7.949 10.703 11.044 16.472 4.016 7.442 6.693 19.651 15.06 23.581 1.171.669 3.012-1.004 1.673-2.174z" fill="#081843"/><path d="M170.116 368.487c-3.514-7.191-6.275-14.967-10.709-21.657-3.765-5.686-8.032-11.121-12.298-16.473a309.873 309.873 0 0 0-2.678-10.368c-.334-1.338-2.008-1.422-2.761-.418-3.012 4.013 2.176 15.636 3.096 19.984 3.095 13.546 4.936 28.263 1.506 41.893-.586 2.258 2.844 3.261 3.514 1.003 4.099-14.382 2.175-30.102-1.088-45.07 3.347 4.348 6.693 8.697 9.454 13.379 3.681 6.272 5.187 13.714 9.956 19.232.921 1.171 2.594-.251 2.008-1.505zm27.693-19.399c-3.012-13.88-5.522-27.259-6.693-41.474-.837-10.536-1.171-21.239-3.43-31.608-2.51-11.372-11.295-21.322-12.383-32.778-.167-1.84-2.928-1.923-2.928-.084.084 7.86 3.932 13.379 7.195 20.319 5.857 12.46 6.359 26.006 7.363 39.552.753 9.867 1.506 19.817 3.179 29.601 2.51 14.716 6.86 27.092 4.434 42.227-.251 1.672 1.924 2.425 2.51.752 3.096-8.78 2.677-17.476.753-26.507zm222.129-114.725c-4.518 5.602-4.601 14.215-5.689 21.071-1.84 11.456-4.099 22.159-4.518 33.866-1.171 30.269-1.757 61.041-.502 91.227.084 1.589 2.427 1.672 2.51.083 2.092-27.175.251-54.435 1.339-81.611.502-12.71 1.422-24.751 3.932-37.293 1.59-8.111 1.004-18.564 5.857-25.588 1.004-1.839-1.674-3.344-2.929-1.755zm54.047 105.609c-.334-4.431-.753-8.78-1.004-12.793-.083-1.673-2.426-1.756-2.593-.084-.251 3.01-.419 5.937-.502 8.864-.251.334-.335.752-.084 1.254 0 .083 0 .083.084.167-.502 14.299.167 28.096-3.012 42.645-.335 1.505 1.757 2.676 2.593 1.171 4.518-8.696 5.355-19.567 5.188-30.353 3.346 12.542 4.518 25.503 9.119 37.711.586 1.589 2.928 1.087 2.594-.669-3.096-15.971-5.355-33.112-12.383-47.913z" fill="#0E72F7"/><path d="M265.744 34.683c-1.004-.753-2.593-1.004-3.514-1.756-1.087-.92-.836-3.177-1.004-4.515-.251-1.255-2.091-1.171-2.426 0-.669 3.01-.837 6.27 2.343 7.776 2.091 1.003 3.43 1.589 4.434 3.846.586 1.338 1.004 2.927 2.677 3.178 1.004.167 1.841-.585 1.59-1.589-.586-2.425-2.175-5.519-4.1-6.94zm43.088-2.59c-5.689 1.338-5.522-.084-10.542-2.927-2.426-1.338-3.263-2.258-6.275-2.341-6.86-.084-13.386 7.275-16.732 12.459-1.004 1.505 1.422 2.843 2.426 1.422 2.008-3.01 5.438-7.526 9.036-8.864 5.856-1.756 10.123-.753 12.717 2.927.167.334.418.669.753.92.836.083 1.589.752 2.509.668 5.271-.25 9.873-2.926 15.311-2.675 12.633.585 18.406 9.198 22.589 19.817.586 1.422 2.761.92 2.343-.669-4.769-16.305-16.566-24.918-34.135-20.737zm18.991-14.803c-7.613-3.344-14.725-2.926-21.669 1.172-1.506.92-.167 3.177 1.339 2.34 6.358-3.595 12.466-3.762 19.159-.752 5.606 2.509 8.032 6.69 10.709 11.874.502.92 2.175.585 2.092-.585-.586-6.272-6.024-11.54-11.63-14.048zm-73.206 27.009c-8.701 4.432-8.367 16.473-6.275 24.417.251 1.087 2.092 1.17 2.343 0 .753-3.68-.586-7.108-.251-10.787.418-4.934 3.597-8.028 5.605-12.209.419-.92-.502-1.923-1.422-1.421zm95.628 7.695c-.585-1.505-2.008-5.518-4.099-5.518-.837 0-1.339.752-1.172 1.588.419 2.258 2.343 4.516 3.096 6.69 1.59 4.85.837 9.532 1.422 14.55.168 1.42 2.092 1.42 2.176 0 .502-5.687.585-11.875-1.423-17.31z" fill="#242F46"/></g><defs><clipPath id="clip0"><path fill="#fff" d="M0 0h603v696H0z"/></clipPath></defs></svg>