<svg width="113" height="62" fill="none" xmlns="http://www.w3.org/2000/svg"><path d="M109.799 61.458a.5.5 0 0 0 .659-.257l1.807-4.121a.5.5 0 1 0-.915-.402l-1.607 3.663-3.663-1.607a.5.5 0 0 0-.402.916l4.121 1.808zM0 1.5c.83 0 1.656.004 2.478.011l.01-1A293.85 293.85 0 0 0 0 .5v1zm5.427.055c1.659.034 3.301.084 4.928.15l.04-.998A244.27 244.27 0 0 0 5.448.555l-.021 1zm7.89.291c1.657.09 3.296.196 4.918.321l.077-.997c-1.63-.125-3.277-.233-4.941-.322l-.054.998zm7.864.57c1.653.15 3.287.322 4.902.512l.117-.993a190.259 190.259 0 0 0-4.927-.516l-.092.996zm7.824.882c1.646.222 3.27.465 4.875.73l.163-.987a167.5 167.5 0 0 0-4.904-.734l-.134.99zm7.79 1.24c1.63.3 3.237.625 4.823.973l.214-.976a146.2 146.2 0 0 0-4.856-.981l-.181.983zM44.5 6.176c1.61.39 3.197.806 4.758 1.249l.273-.962a129.878 129.878 0 0 0-4.795-1.259l-.236.972zm7.59 2.088a114.08 114.08 0 0 1 4.665 1.555l.337-.942a115.1 115.1 0 0 0-4.706-1.568l-.296.955zm7.43 2.586c1.54.599 3.052 1.229 4.537 1.89l.407-.913c-1.5-.668-3.027-1.304-4.582-1.91l-.363.933zm7.212 3.13a92.46 92.46 0 0 1 4.367 2.251l.481-.876a93.426 93.426 0 0 0-4.414-2.275l-.434.9zm6.925 3.714a85.498 85.498 0 0 1 4.148 2.627l.56-.83a86.549 86.549 0 0 0-4.197-2.657l-.511.86zm6.561 4.317a81.183 81.183 0 0 1 3.881 3.006l.636-.772a82.251 82.251 0 0 0-3.928-3.043l-.589.81zm6.12 4.92a79.67 79.67 0 0 1 3.568 3.37l.709-.705A80.714 80.714 0 0 0 87 26.184l-.664.748zm5.607 5.495a80.675 80.675 0 0 1 3.222 3.705l.774-.633a81.75 81.75 0 0 0-3.262-3.751l-.734.679zm5.044 6.017a84.316 84.316 0 0 1 2.857 3.998l.83-.558a85.315 85.315 0 0 0-2.89-4.045l-.797.605zm4.456 6.468a89.823 89.823 0 0 1 2.487 4.24l.876-.482a91.81 91.81 0 0 0-2.514-4.287l-.849.53zm3.867 6.84c.736 1.443 1.445 2.92 2.127 4.434l.912-.41a101.097 101.097 0 0 0-2.149-4.478l-.89.455zm3.298 7.138c.315.755.623 1.52.924 2.292l.932-.364c-.304-.78-.615-1.55-.933-2.313l-.923.385z" fill="#C2D5E1"/></svg>