<svg width="20" height="16" fill="none" xmlns="http://www.w3.org/2000/svg"><path d="M1.118 8.467a.987.987 0 0 1 0-.935C3.01 4.033 6.505 1 10 1s6.99 3.033 8.882 6.533a.987.987 0 0 1 0 .935C16.99 11.967 13.495 15 10 15s-6.99-3.033-8.882-6.533z" stroke="url(#paint0_linear)" stroke-width="1.429" stroke-linecap="round" stroke-linejoin="round"/><path d="M12.121 5.879a3 3 0 1 1-4.242 4.242A3 3 0 0 1 12.12 5.88z" stroke="url(#paint1_linear)" stroke-width="1.429" stroke-linecap="round" stroke-linejoin="round"/><defs><linearGradient id="paint0_linear" x1="1" y1="1" x2="1" y2="15" gradientUnits="userSpaceOnUse"><stop stop-color="#5986FB"/><stop offset="1" stop-color="#2D4EF5"/></linearGradient><linearGradient id="paint1_linear" x1="1" y1="1" x2="1" y2="15" gradientUnits="userSpaceOnUse"><stop stop-color="#5986FB"/><stop offset="1" stop-color="#2D4EF5"/></linearGradient></defs></svg>