<svg width="24" height="24" fill="none" xmlns="http://www.w3.org/2000/svg"><path d="M21 12a9 9 0 0 1-9 9 9 9 0 0 1-9-9 9 9 0 0 1 9-9 9 9 0 0 1 9 9z" stroke="url(#paint0_linear)" stroke-width="1.5" stroke-linecap="round" stroke-linejoin="round"/><path d="M10.941 9.058l3.882 2.296a.75.75 0 0 1 0 1.29l-3.882 2.297a.75.75 0 0 1-1.132-.646V9.704a.75.75 0 0 1 1.132-.646z" stroke="url(#paint1_linear)" stroke-width="1.5" stroke-linecap="round" stroke-linejoin="round"/><defs><linearGradient id="paint0_linear" x1="3" y1="3" x2="3" y2="21" gradientUnits="userSpaceOnUse"><stop stop-color="#5986FB"/><stop offset="1" stop-color="#2D4EF5"/></linearGradient><linearGradient id="paint1_linear" x1="9.809" y1="8.952" x2="9.809" y2="15.046" gradientUnits="userSpaceOnUse"><stop stop-color="#5986FB"/><stop offset="1" stop-color="#2D4EF5"/></linearGradient></defs></svg>