<svg width="20" height="20" fill="none" xmlns="http://www.w3.org/2000/svg"><path d="M5 6V2a1 1 0 0 1 1-1h8a1 1 0 0 1 1 1v4M5 15H3a2 2 0 0 1-2-2V8a2 2 0 0 1 2-2h14a2 2 0 0 1 2 2v5a2 2 0 0 1-2 2h-2M5 9h1m-1 2.8h10V18a1 1 0 0 1-1 1H6a1 1 0 0 1-1-1v-6.2z" stroke="url(#paint0_linear)" stroke-width="1.5" stroke-linecap="round" stroke-linejoin="round"/><defs><linearGradient id="paint0_linear" x1="1" y1="1" x2="1" y2="19" gradientUnits="userSpaceOnUse"><stop stop-color="#5986FB"/><stop offset="1" stop-color="#2D4EF5"/></linearGradient></defs></svg>