<svg width="24" height="24" fill="none" xmlns="http://www.w3.org/2000/svg"><path d="M20.25 13H7a2 2 0 1 0 0 4h13.25m-.505-4v4m-1.495 0H5a2 2 0 1 0 0 4h13.25m-.505-4v4M13.792 6.167h-1.167V5a2 2 0 0 1 2-2h1.167v1.167a2 2 0 0 1-2 2zM12.625 13A3.905 3.905 0 0 1 8.72 9.095c0-1.704.781-2.929 2.343-2.929.781 0 1.224.251 1.562.251.338 0 .781-.251 1.562-.251 1.562 0 2.343 1.225 2.343 2.929A3.905 3.905 0 0 1 12.625 13z" stroke="#848E9F" stroke-width="1.5" stroke-linecap="round" stroke-linejoin="round"/></svg>