<svg width="24" height="24" fill="none" xmlns="http://www.w3.org/2000/svg"><path d="M5.257 13.97l-1.544 1.543c-1.387-3.278-.751-7.208 1.921-9.879 3.246-3.246 8.351-3.489 11.882-.74M6.484 19.108c3.533 2.747 8.637 2.506 11.882-.74 2.671-2.672 3.308-6.602 1.921-9.88l-1.544 1.544M9.899 14.1l4.2-4.2" stroke="#848E9F" stroke-width="1.5" stroke-linecap="round" stroke-linejoin="round"/><path d="M14.297 13.947a.249.249 0 0 1 0 .353.249.249 0 0 1-.353 0 .249.249 0 0 1 0-.354.249.249 0 0 1 .353 0zM10.057 9.7a.25.25 0 1 1-.354.355.25.25 0 1 1 .354-.354z" stroke="#848E9F" stroke-width="1.5" stroke-linecap="round" stroke-linejoin="round"/></svg>