<svg width="24" height="24" fill="none" xmlns="http://www.w3.org/2000/svg"><path d="M4 11.906V8.091c0-1.248.773-2.366 1.94-2.807l8.353-3.154A2 2 0 0 1 17 4.002v3.35m.249 6.748a.25.25 0 0 0-.249.252.25.25 0 1 0 .249-.251z" stroke="#848E9F" stroke-width="1.5" stroke-linecap="round" stroke-linejoin="round"/><path d="M10.662 21H18c1.65 0 3-1.35 3-3v-7.65a3 3 0 0 0-3-3H6a2 2 0 0 0-2 2v2.907" stroke="#848E9F" stroke-width="1.5" stroke-linecap="round" stroke-linejoin="round"/><path d="M7.5 22a5.5 5.5 0 1 1 .001-11.001A5.5 5.5 0 0 1 7.5 22z" stroke="#848E9F" stroke-width="1.5" stroke-linecap="round" stroke-linejoin="round"/><path d="M9.944 15.278l-3.056 3.056L5.056 16.5" stroke="#848E9F" stroke-width="1.5" stroke-linecap="round" stroke-linejoin="round"/></svg>