<svg width="24" height="24" fill="none" xmlns="http://www.w3.org/2000/svg"><path d="M9 15.9H3.9A1.9 1.9 0 0 1 2 14V4.9C2 3.85 2.85 3 3.9 3h15.2c1.05 0 1.9.85 1.9 1.9V11m1.489 6.5l-1.5-1.5-1.5 1.5" stroke="#848E9F" stroke-width="1.5" stroke-linecap="round" stroke-linejoin="round"/><path d="M20.989 16v3.401c0 .88-.72 1.599-1.599 1.599H17m-4.489-3.5l1.5 1.5 1.5-1.5" stroke="#848E9F" stroke-width="1.5" stroke-linecap="round" stroke-linejoin="round"/><path d="M14.011 19v-3.401c0-.88.72-1.599 1.599-1.599H18m-4.821-6.029a2.376 2.376 0 0 1-3.359 3.36 2.376 2.376 0 0 1 3.359-3.36M6 13H5m13-7h-1" stroke="#848E9F" stroke-width="1.5" stroke-linecap="round" stroke-linejoin="round"/></svg>