<svg width="50" height="50" fill="none" xmlns="http://www.w3.org/2000/svg"><g clip-path="url(#clip0)"><rect width="50" height="50" rx="25" fill="url(#paint0_linear)" fill-opacity=".05"/><path d="M34.23 15H15.77a.77.77 0 0 0-.77.77v3.845c0 2.545 1.725 4.616 3.846 4.616 0 3.132 2.354 5.72 5.385 6.1v.853c-1.972.149-3.846.875-3.846 2.277v.77a.77.77 0 0 0 .769.769h7.692a.77.77 0 0 0 .77-.77v-.768c0-1.404-1.875-2.13-3.847-2.278v-.853c3.031-.38 5.385-2.968 5.385-6.1 2.12 0 3.846-2.07 3.846-4.616V15.77a.77.77 0 0 0-.77-.769zm-17.69 4.615V16.54h2.307v6.153c-1.273 0-2.308-1.38-2.308-3.077zm5.403 13.847c.198-.252 1.252-.77 3.058-.77 1.806 0 2.86.518 3.058.77h-6.116zm7.673-9.231A4.62 4.62 0 0 1 25 28.846a4.585 4.585 0 0 1-3.264-1.352 4.585 4.585 0 0 1-1.351-3.263v-7.693h9.23v7.693zm3.847-4.616c0 1.697-1.036 3.077-2.308 3.077v-6.154h2.308v3.077z" fill="url(#paint1_linear)"/><path d="M24.556 25.385h1.508v-5.962h-1.512l-1.517 1.033v1.297l1.492-1h.029v4.632z" fill="url(#paint2_linear)"/></g><defs><linearGradient id="paint0_linear" x2="0" y2="50" gradientUnits="userSpaceOnUse"><stop stop-color="#5986FB"/><stop offset="1" stop-color="#2D4EF5"/></linearGradient><linearGradient id="paint1_linear" x1="15" y1="15" x2="15" y2="35" gradientUnits="userSpaceOnUse"><stop stop-color="#5986FB"/><stop offset="1" stop-color="#2D4EF5"/></linearGradient><linearGradient id="paint2_linear" x1="15" y1="15" x2="15" y2="35" gradientUnits="userSpaceOnUse"><stop stop-color="#5986FB"/><stop offset="1" stop-color="#2D4EF5"/></linearGradient><clipPath id="clip0"><rect width="50" height="50" rx="25" fill="#fff"/></clipPath></defs></svg>