<svg width="50" height="50" fill="none" xmlns="http://www.w3.org/2000/svg"><g clip-path="url(#clip0)"><rect width="50" height="50" rx="25" fill="url(#paint0_linear)" fill-opacity=".05"/><path d="M34.23 15H15.77a.77.77 0 0 0-.77.77v3.845c0 2.545 1.725 4.616 3.846 4.616 0 3.132 2.354 5.72 5.385 6.1v.853c-1.972.149-3.846.875-3.846 2.277v.77a.77.77 0 0 0 .769.769h7.692a.77.77 0 0 0 .77-.77v-.768c0-1.404-1.875-2.13-3.847-2.278v-.853c3.031-.38 5.385-2.968 5.385-6.1 2.12 0 3.846-2.07 3.846-4.616V15.77a.77.77 0 0 0-.77-.769zm-17.69 4.615V16.54h2.307v6.153c-1.273 0-2.308-1.38-2.308-3.077zm5.403 13.847c.198-.252 1.252-.77 3.058-.77 1.806 0 2.86.518 3.058.77h-6.116zm7.673-9.231A4.62 4.62 0 0 1 25 28.846a4.585 4.585 0 0 1-3.264-1.352 4.585 4.585 0 0 1-1.351-3.263v-7.693h9.23v7.693zm3.847-4.616c0 1.697-1.036 3.077-2.308 3.077v-6.154h2.308v3.077z" fill="url(#paint1_linear)"/><path d="M22.61 21.286h1.387c0-.525.393-.872.914-.872.462 0 .789.306.789.736 0 .367-.153.636-.889 1.297l-2.115 1.905v1.033h4.545v-1.166h-2.595v-.028l1.165-1.062c.967-.876 1.355-1.31 1.355-2.078 0-1.042-.888-1.777-2.255-1.777-1.372 0-2.302.806-2.302 2.012z" fill="url(#paint2_linear)"/></g><defs><linearGradient id="paint0_linear" x1="25" x2="25" y2="50" gradientUnits="userSpaceOnUse"><stop stop-color="#7BB288"/><stop offset="1" stop-color="#22776D"/></linearGradient><linearGradient id="paint1_linear" x1="25" y1="15" x2="25" y2="35" gradientUnits="userSpaceOnUse"><stop stop-color="#7BB288"/><stop offset="1" stop-color="#22776D"/></linearGradient><linearGradient id="paint2_linear" x1="25" y1="15" x2="25" y2="35" gradientUnits="userSpaceOnUse"><stop stop-color="#7BB288"/><stop offset="1" stop-color="#22776D"/></linearGradient><clipPath id="clip0"><rect width="50" height="50" rx="25" fill="#fff"/></clipPath></defs></svg>