<svg width="34" height="34" fill="none" xmlns="http://www.w3.org/2000/svg"><path d="M20.205 21.882l-4.007 4.007-2.405-2.405m-2.126-11.17H9.889a2.668 2.668 0 0 0-2.667 2.666v14.465m15.111-17.131h1.778a2.668 2.668 0 0 1 2.667 2.666v14.465m1.536-23.759c6.248 6.249 6.248 16.38 0 22.628-6.249 6.248-16.38 6.248-22.628 0-6.248-6.249-6.248-16.38 0-22.628 6.249-6.248 16.38-6.248 22.628 0zm-7.927 9.05h-6.772a1.946 1.946 0 0 1-1.948-1.946v-.954c0-1.076.87-1.947 1.946-1.947h6.772c1.077 0 1.948.871 1.948 1.947v.953a1.947 1.947 0 0 1-1.946 1.948z" stroke="url(#paint0_linear)" stroke-width="2" stroke-linecap="round" stroke-linejoin="round"/><defs><linearGradient id="paint0_linear" x1="1" y1="1" x2="1" y2="33" gradientUnits="userSpaceOnUse"><stop stop-color="#5986FB"/><stop offset="1" stop-color="#2D4EF5"/></linearGradient></defs></svg>