<svg width="38" height="30" fill="none" xmlns="http://www.w3.org/2000/svg"><path d="M1 29a8 8 0 0 1 8-8h8a8 8 0 0 1 8 8m2-26.698a5 5 0 0 1 5 5 5 5 0 0 1-5 5M29 19a8 8 0 0 1 8 8M17.81 2.992a6.802 6.802 0 1 1-9.62 9.62 6.802 6.802 0 0 1 9.62-9.62z" stroke="url(#paint0_linear)" stroke-width="2" stroke-linecap="round" stroke-linejoin="round"/><defs><linearGradient id="paint0_linear" x1="1" y1="1" x2="1" y2="29" gradientUnits="userSpaceOnUse"><stop stop-color="#5986FB"/><stop offset="1" stop-color="#2D4EF5"/></linearGradient></defs></svg>