<svg width="33" height="34" fill="none" xmlns="http://www.w3.org/2000/svg"><path d="M7.749 31.316V21.21c0-.93-.756-1.685-1.687-1.685H2.687c-.931 0-1.687.755-1.687 1.684v10.106C1 32.246 1.756 33 2.687 33h3.375c.931 0 1.687-.755 1.687-1.684zm0 0h2.544c.552 0 1.1.067 1.635.202l4.472 1.115c.97.242 1.98.266 2.96.07l4.944-.986a6.759 6.759 0 0 0 3.45-1.843l3.497-3.491a2.546 2.546 0 0 0 0-3.608 2.56 2.56 0 0 0-3.34-.237l-4.077 3.052a3.373 3.373 0 0 1-2.025.673h-3.936 2.505a2.553 2.553 0 0 0 2.556-2.551v-.51A2.55 2.55 0 0 0 21 20.726l-3.867-.965a7.923 7.923 0 0 0-6.317 1.093l-3.066 2.04m6.187-8.421H28.56a2.809 2.809 0 0 0 2.81-2.808V3.808A2.81 2.81 0 0 0 28.559 1H13.935a2.809 2.809 0 0 0-2.811 2.808v7.86a2.809 2.809 0 0 0 2.812 2.806zm9.101-8.524a2.524 2.524 0 0 1 0 3.574 2.536 2.536 0 0 1-3.58 0 2.524 2.524 0 0 1 0-3.574 2.538 2.538 0 0 1 3.58 0z" stroke="url(#paint0_linear)" stroke-width="2" stroke-linecap="round" stroke-linejoin="round"/><defs><linearGradient id="paint0_linear" x1="1" y1="1" x2="1" y2="33" gradientUnits="userSpaceOnUse"><stop stop-color="#5986FB"/><stop offset="1" stop-color="#2D4EF5"/></linearGradient></defs></svg>