<svg width="18" height="21" fill="none" xmlns="http://www.w3.org/2000/svg"><path d="M10.581 7h4.33a1.993 1.993 0 0 0 1.986-2V3c0-1.105-.889-2-1.987-2H2.987A1.993 1.993 0 0 0 1 3v2c0 1.105.89 2 1.987 2h4.33m3.094 2.908V5.477C10.411 4.661 9.755 4 8.944 4c-.81 0-1.467.661-1.467 1.477V14l-2.629-1.358a1.541 1.541 0 0 0-1.801.284c-.63.633-.6 1.668.064 2.264l4.794 4.303c.364.326.835.507 1.323.507h4.603a1.99 1.99 0 0 0 1.94-1.566l1.181-5.351a1.999 1.999 0 0 0-1.635-2.41l-4.906-.765z" stroke="#848E9F" stroke-width="1.5" stroke-linecap="round" stroke-linejoin="round"/></svg>