<svg width="90" height="90" fill="none" xmlns="http://www.w3.org/2000/svg"><circle cx="45" cy="45" r="45" fill="#fff"/><mask id="a" maskUnits="userSpaceOnUse" x="0" y="0" width="90" height="90"><circle cx="45" cy="45" r="45" fill="#C4C4C4"/></mask><g mask="url(#a)"><path d="M65.638 21.514c0 5.608-4.547 10.154-10.155 10.154S45.33 27.122 45.33 21.514s4.545-10.155 10.154-10.155c5.608 0 10.155 4.547 10.155 10.155z" fill="#3C3B41"/><path d="M67.423 83.629v9.507c0 .68-.554 1.233-1.234 1.233H28.124c-.68 0-1.234-.553-1.234-1.233v-9.507c0-4.818 3.165-9.064 7.784-10.44l2.19-.651a4.653 4.653 0 0 0 2.615-1.984 4.6 4.6 0 0 0 .565-1.295c.103-.384.157-.787.157-1.198V63.63l12.829-2.157v6.267c0 1.191.452 2.302 1.216 3.141a4.692 4.692 0 0 0 2.122 1.336l3.273.974a10.89 10.89 0 0 1 7.782 10.439z" fill="#FFDBA9"/><path d="M59.64 73.19l-3.272-.974a4.691 4.691 0 0 1-2.122-1.336 4.662 4.662 0 0 1-1.216-3.141v-6.267L40.2 63.63v2.538l8.08-1.359v6.267c0 1.191.453 2.303 1.216 3.141a4.693 4.693 0 0 0 2.123 1.336l3.271.974a10.89 10.89 0 0 1 7.783 10.439v7.404h3.517c.68 0 1.233-.553 1.233-1.233V83.63a10.89 10.89 0 0 0-7.782-10.44z" fill="#FFC473"/><path d="M53.03 61.472v5.88a13.911 13.911 0 0 1-7.931 2.465h-1.131a13.93 13.93 0 0 1-3.925-.558c.104-.384.158-.787.158-1.198V63.63l12.829-2.157z" fill="#FFC473"/><path d="M59.092 26.604V51.48c0 7.728-6.264 13.994-13.993 13.994h-1.131c-7.728 0-13.993-6.265-13.993-13.994V26.604h29.117z" fill="#FFDBA9"/><path d="M59.61 48.72h-.518v-9.29h.518a4.644 4.644 0 0 1 0 9.29z" fill="#FFC473"/><path d="M37.392 42.193a1.447 1.447 0 1 1-2.894 0 1.447 1.447 0 0 1 2.895 0zm11.578 0a1.447 1.447 0 1 1-2.895 0 1.447 1.447 0 0 1 2.894 0z" fill="#57555C"/><path d="M41.389 57.75a7.41 7.41 0 0 1-2.866-.584 1.253 1.253 0 1 1 .992-2.302c.51.219 1.86.67 3.375.114 1.16-.425 1.85-1.24 2.16-1.686a1.253 1.253 0 1 1 2.062 1.423c-.478.693-1.55 1.953-3.36 2.617a6.835 6.835 0 0 1-2.363.418z" fill="#C06100"/><path d="M38.73 47.292h-8.576a1.847 1.847 0 0 1-1.845-1.845v-6.003c0-1.018.828-1.845 1.845-1.845h8.575c1.017 0 1.845.827 1.845 1.845v6.003a1.847 1.847 0 0 1-1.845 1.845zm-7.914-2.507h7.252v-4.68h-7.252v4.68zm22.809 2.508h-9.147a1.847 1.847 0 0 1-1.844-1.846v-6.002c0-1.018.827-1.845 1.844-1.845h9.147c1.017 0 1.845.827 1.845 1.845v6.002a1.847 1.847 0 0 1-1.845 1.846zm-8.485-2.507h7.824v-4.68H45.14v4.68z" fill="#7047F0"/><path d="M43.887 42.215H39.32a1.253 1.253 0 1 1 0-2.507h4.566a1.253 1.253 0 1 1 0 2.507zm15.205-4.616v2.507h-5.506a1.252 1.252 0 1 1 0-2.507h5.506z" fill="#7047F0"/><path d="M60.5 32.18a16.106 16.106 0 0 1-.811 5.306c-.36 1.085-1.958.843-1.984-.3 0-.054-.002-.107-.003-.16-.2-5.457-4.614-9.905-10.068-10.143a10.549 10.549 0 0 0-10.41 7c-.02.05-.036.102-.054.154a11.355 11.355 0 0 1-6.538 6.753 11.268 11.268 0 0 1-4.131.777c-.75 0-1.482-.072-2.19-.212 1.84-1.57 3.23-3.71 3.796-6.153.11-.474.189-.963.234-1.46a15.782 15.782 0 0 1-.027-2.253v-.005a16.064 16.064 0 0 1 4.713-10.48 16.06 16.06 0 0 1 11.706-4.692C53.36 16.49 60.377 23.55 60.5 32.18z" fill="#57555C"/><path d="M38.052 25.941c-1.133.16-4.997.941-7.151 4.312-.289.452-.55 1.058-.827 1.7-.49 1.142-1.034 2.409-1.967 3.249.11-.474.19-.963.234-1.459a15.835 15.835 0 0 1-.027-2.254v-.005a16.55 16.55 0 0 1 .293-2.278c.058-.104.119-.205.182-.304 2.73-4.273 7.514-5.245 8.914-5.443a1.254 1.254 0 0 1 .349 2.482z" fill="#3C3B41"/><path d="M59.64 73.19l-3.032-.903v22.082h9.582c.68 0 1.233-.553 1.233-1.233v-9.507c0-4.818-3.165-9.063-7.782-10.439z" fill="#007AFF"/><path d="M59.64 73.19l-2.057-.614-.974-.29v4.915a10.892 10.892 0 0 1 6.063 9.764v7.404h3.518a1.236 1.236 0 0 0 1.232-1.233v-9.508A10.891 10.891 0 0 0 59.64 73.19z" fill="#0070EB"/><path d="M36.255 72.72l-1.581.47a10.893 10.893 0 0 0-7.784 10.44v9.506c0 .68.553 1.232 1.235 1.232h8.13V72.72z" fill="#007DFF"/><path d="M36.255 81.257h20.353v13.112H36.255V81.257z" fill="#F2F2F2"/><circle cx="45" cy="45" r="44.5" stroke="#F2F2F2"/></g></svg>