<svg width="90" height="90" fill="none" xmlns="http://www.w3.org/2000/svg"><circle cx="45" cy="45" r="45" fill="#fff"/><mask id="a" maskUnits="userSpaceOnUse" x="0" y="0" width="90" height="90"><circle cx="45" cy="45" r="45" fill="#C4C4C4"/></mask><g mask="url(#a)"><path d="M71.725 67.868l-10.929-2.042a1.218 1.218 0 0 0-.214-.02h-30.29c-.073 0-.144.008-.215.02L19.05 67.892c-5.622 1.575-8.564 7.113-8.564 11.771v6.384c0 2.33 2.09 4.226 4.66 4.226h60.583c2.57 0 4.66-1.896 4.66-4.226v-6.384c0-4.658-2.94-10.196-8.663-11.795z" fill="#007AFF"/><path d="M51.084 90.272l-2.168-13.006a1.165 1.165 0 0 0-1.15-.974h-4.66c-.57 0-1.055.412-1.149.974L39.79 90.272h11.294z" fill="#B097FF"/><path d="M43.107 76.292c-.298 0-.569.116-.777.303l7.77 7.77-.66-3.954-4.119-4.12h-2.214z" fill="#7047F0"/><path d="M50.089 70.489a1.165 1.165 0 0 0-1.165-1.163h-5.825c-.442 0-.844.249-1.042.644l-1.165 2.33a1.151 1.151 0 0 0-.123.525l.008 2.303a3.499 3.499 0 0 0 3.495 3.494h2.33a3.5 3.5 0 0 0 3.495-3.497l-.008-4.636z" fill="#7047F0"/><path d="M45.997 65.979l-10.478-5.85a1.164 1.164 0 0 0-1.497.316l-4.397 5.825c-.3.398-.316.943-.036 1.355l7.103 10.484a2.323 2.323 0 0 0 1.931 1.022c.614 0 1.204-.241 1.644-.68.03-.03.058-.062.084-.095l4.828-5.994c.052-.063.097-.134.134-.208l1.157-2.306c.082-.162.124-.341.124-.522v-2.33c0-.422-.229-.811-.597-1.017z" fill="#F2F2F2"/><path d="M44.861 65.979l10.478-5.85a1.164 1.164 0 0 1 1.497.316l4.397 5.825c.3.398.315.943.035 1.355l-7.103 10.484a2.323 2.323 0 0 1-1.93 1.022 2.322 2.322 0 0 1-1.644-.68 1.144 1.144 0 0 1-.084-.095l-4.828-5.994a1.091 1.091 0 0 1-.134-.208l-1.157-2.306a1.156 1.156 0 0 1-.124-.522v-2.33c0-.422.228-.811.597-1.017z" fill="#F2F2F2"/><path d="M61.74 37.87l-2.299-2.33s-7.896-2.137-24.498 0l-6.99 2.33v8.155c0 11.581 7.824 20.97 17.476 20.97 9.651 0 17.475-9.389 17.475-20.97v-8.156c-.301.337-1.165 0-1.165 0z" fill="#FFDCAD"/><path d="M43.623 61.286a7.41 7.41 0 0 1-2.523-1.48 1.253 1.253 0 1 1 1.683-1.857c.412.372 1.543 1.235 3.157 1.2 1.234-.027 2.152-.575 2.589-.898a1.253 1.253 0 1 1 1.491 2.015c-.676.5-2.097 1.346-4.025 1.389a6.834 6.834 0 0 1-2.372-.369z" fill="#C06100"/><path d="M38.415 50.685a4.66 4.66 0 1 0 0-9.32 4.66 4.66 0 0 0 0 9.32zm13.98 0a4.66 4.66 0 1 0 0-9.32 4.66 4.66 0 0 0 0 9.32z" fill="#AEEFFF"/><path d="M47.79 47.19a1.164 1.164 0 0 1-1.164-1.165 1.166 1.166 0 0 0-2.33 0 1.164 1.164 0 1 1-2.33 0 3.499 3.499 0 0 1 3.495-3.495 3.499 3.499 0 0 1 3.495 3.495c0 .644-.521 1.165-1.165 1.165zm-13.98-1.165h-5.857a1.164 1.164 0 1 1 0-2.33h5.857a1.164 1.164 0 1 1 0 2.33zm29.095 0H57.11a1.164 1.164 0 1 1 0-2.33h5.794a1.164 1.164 0 1 1 0 2.33z" fill="#7047F0"/><path d="M38.47 51.85a5.832 5.832 0 0 1-5.825-5.825 5.832 5.832 0 0 1 5.825-5.826 5.832 5.832 0 0 1 5.826 5.826 5.832 5.832 0 0 1-5.825 5.825zm0-9.32a3.499 3.499 0 0 0-3.495 3.495 3.499 3.499 0 0 0 3.495 3.495 3.499 3.499 0 0 0 3.496-3.495 3.499 3.499 0 0 0-3.495-3.495zm13.981 9.32a5.832 5.832 0 0 1-5.825-5.825 5.832 5.832 0 0 1 5.825-5.826 5.832 5.832 0 0 1 5.825 5.826 5.832 5.832 0 0 1-5.825 5.825zm0-9.32a3.5 3.5 0 0 0-3.495 3.495 3.5 3.5 0 0 0 3.495 3.495 3.499 3.499 0 0 0 3.495-3.495 3.5 3.5 0 0 0-3.495-3.495z" fill="#7047F0"/><path d="M68.738 46a1.164 1.164 0 0 1-1.165-1.165v-13.89a1.164 1.164 0 1 1 2.33 0v13.89c0 .644-.521 1.165-1.165 1.165z" fill="#3E435E"/><path d="M72.524 24.513L48.826 16.39a12.331 12.331 0 0 0-7.963 0l-23.698 8.124a2.98 2.98 0 0 0-2.039 2.855c0 1.31.8 2.43 2.04 2.855l11.587 3.973c.122.04.25.062.378.062h.015l32.617-.407c.122-.001.245-.023.362-.063l10.4-3.565a2.98 2.98 0 0 0 2.038-2.855c0-1.31-.8-2.43-2.039-2.855z" fill="#3E435E"/><path d="M41.442 36.29a54.932 54.932 0 0 1 7.992 0c4.744.274 10.38 1.059 13.48 2.744v-9.32c0-4.003-9.06-5.826-17.476-5.826-8.417 0-17.476 1.823-17.476 5.826v9.32c3.099-1.685 8.735-2.47 13.48-2.744z" fill="#454B69"/><path d="M45.437 30.344c-5.056 0-13.431.665-17.476 2.865v2.96c0-1.014 6.125-3.495 17.476-3.495 11.351 0 17.476 2.48 17.476 3.495v-2.96c-4.044-2.2-12.42-2.865-17.476-2.865z" fill="#646E9F"/><path d="M45.429 30.344v2.33h.008c11.351 0 17.476 2.48 17.476 3.495v-2.96c-4.045-2.2-12.42-2.865-17.476-2.865h-.008z" fill="#4B506C"/><path d="M69.895 53.015h-2.33A1.165 1.165 0 0 1 66.4 51.85v-4.66a2.33 2.33 0 1 1 4.66 0v4.66c0 .643-.522 1.165-1.165 1.165z" fill="#FFDC64"/><path d="M22.136 82.483a9.321 9.321 0 0 0-2.73-6.59l-5.173-5.175c-2.469 2.447-3.747 5.883-3.747 8.945v6.384c0 2.33 2.09 4.225 4.66 4.225h6.99v-7.79zM76.63 70.73l-5.162 5.162a9.32 9.32 0 0 0-2.73 6.59v7.79h6.99c2.57 0 4.66-1.895 4.66-4.225v-6.384c0-3.055-1.273-6.481-3.757-8.934z" fill="#F2F2F2"/><path d="M41.537 79.789l-.47 2.824 7.658 7.66h2.359l-.187-1.124-9.36-9.36zm-1.511 9.065l1.418 1.418h3.295l-4.242-4.242-.47 2.824z" fill="#7047F0"/><circle cx="45" cy="45" r="44.5" stroke="#F2F2F2"/></g></svg>