<svg width="19" height="16" fill="none" xmlns="http://www.w3.org/2000/svg"><path fill-rule="evenodd" clip-rule="evenodd" d="M16.761 2.474A3.949 3.949 0 0 0 18.476.289a7.732 7.732 0 0 1-2.477.957A3.865 3.865 0 0 0 13.154 0c-2.15 0-3.897 1.77-3.897 3.95 0 .31.034.61.101.9-3.24-.166-6.111-1.736-8.036-4.13a3.986 3.986 0 0 0-.527 1.99c0 1.368.688 2.578 1.734 3.286a3.861 3.861 0 0 1-1.766-.492v.048c0 1.915 1.344 3.512 3.128 3.873a3.83 3.83 0 0 1-1.762.07c.497 1.569 1.936 2.71 3.643 2.741A7.754 7.754 0 0 1 0 13.873a10.945 10.945 0 0 0 5.975 1.774c7.17 0 11.091-6.018 11.091-11.238 0-.172-.003-.344-.01-.512A7.945 7.945 0 0 0 19 1.852c-.71.32-1.465.53-2.239.622z" fill="#848E9F"/></svg>