<svg width="24" height="24" fill="none" xmlns="http://www.w3.org/2000/svg"><path d="M19.119 6v12a2 2 0 0 1-2 2H6.881a2 2 0 0 1-2-2V6a2 2 0 0 1 2-2H17.12a2 2 0 0 1 1.999 2z" stroke="#fff" stroke-opacity=".8" stroke-width="1.6" stroke-linecap="round" stroke-linejoin="round"/><path d="M19.119 6h1.602a1.5 1.5 0 0 1 1.5 1.5v9a1.5 1.5 0 0 1-1.5 1.5h-1.602M4.881 18H3.278a1.5 1.5 0 0 1-1.5-1.5v-9a1.5 1.5 0 0 1 1.5-1.5H4.88" stroke="#fff" stroke-opacity=".8" stroke-width="1.468" stroke-linecap="round" stroke-linejoin="round"/><path d="M11.404 9.836l2.771 1.64a.61.61 0 0 1 0 1.05l-2.771 1.638a.61.61 0 0 1-.92-.525v-3.278a.61.61 0 0 1 .92-.525z" stroke="#fff" stroke-opacity=".8" stroke-width="1.5" stroke-linecap="round" stroke-linejoin="round"/></svg>