<svg width="22" height="18" fill="none" xmlns="http://www.w3.org/2000/svg"><path d="M18.119 3v12a2 2 0 0 1-2 2H5.881a2 2 0 0 1-2-2V3a2 2 0 0 1 2-2H16.12a2 2 0 0 1 1.999 2z" stroke="#848E9F" stroke-width="1.6" stroke-linecap="round" stroke-linejoin="round"/><path d="M18.119 3h1.602a1.5 1.5 0 0 1 1.5 1.5v9a1.5 1.5 0 0 1-1.5 1.5h-1.602M3.881 15H2.278a1.5 1.5 0 0 1-1.5-1.5v-9a1.5 1.5 0 0 1 1.5-1.5H3.88" stroke="#848E9F" stroke-width="1.468" stroke-linecap="round" stroke-linejoin="round"/><path d="M10.404 6.836l2.771 1.64a.61.61 0 0 1 0 1.05l-2.771 1.638a.61.61 0 0 1-.92-.525V7.361a.61.61 0 0 1 .92-.525z" stroke="#848E9F" stroke-width="1.5" stroke-linecap="round" stroke-linejoin="round"/></svg>