<svg width="20" height="12" fill="none" xmlns="http://www.w3.org/2000/svg"><path d="M16.596 6.69c-.323-.408-.23-.59 0-.955.005-.004 2.674-3.692 2.949-4.943l.002-.001c.136-.456 0-.791-.661-.791h-2.187c-.557 0-.813.288-.951.61 0 0-1.113 2.664-2.688 4.392-.509.499-.744.659-1.021.659-.137 0-.35-.16-.35-.616V.791c0-.547-.155-.791-.616-.791H7.634c-.349 0-.556.255-.556.493 0 .518.787.637.869 2.095v3.165c0 .693-.126.82-.405.82-.743 0-2.548-2.675-3.617-5.738C3.71.241 3.498.001 2.938.001H.75C.126 0 0 .288 0 .61c0 .568.743 3.394 3.457 7.128 1.808 2.548 4.355 3.93 6.672 3.93 1.392 0 1.562-.308 1.562-.835 0-2.435-.126-2.665.572-2.665.323 0 .88.16 2.18 1.389 1.486 1.457 1.73 2.11 2.562 2.11h2.187c.623 0 .939-.307.757-.912-.416-1.272-3.226-3.89-3.353-4.065z" fill="#848E9F"/></svg>