<svg width="26" height="26" fill="none" xmlns="http://www.w3.org/2000/svg"><path d="M9.4 16.6l7.2-7.2m-3.09-7.262l3.266-1.057a1.654 1.654 0 0 1 1.983.82l1.56 3.058c.16.31.411.563.722.721l3.019 1.542a1.705 1.705 0 0 1 .846 2.044l-1.044 3.225a1.66 1.66 0 0 0 0 1.019l1.057 3.266a1.654 1.654 0 0 1-.82 1.983l-3.058 1.56c-.31.159-.563.411-.721.722l-1.563 3.057a1.653 1.653 0 0 1-1.982.821l-3.266-1.057a1.66 1.66 0 0 0-1.019 0l-3.266 1.057a1.654 1.654 0 0 1-1.982-.82L5.68 21.04a1.655 1.655 0 0 0-.72-.721l-3.058-1.563a1.653 1.653 0 0 1-.821-1.982l1.057-3.266a1.66 1.66 0 0 0 0-1.019L1.081 9.225a1.656 1.656 0 0 1 .822-1.984l3.056-1.56c.311-.16.563-.411.721-.722l1.563-3.057a1.655 1.655 0 0 1 1.982-.821l3.266 1.057c.33.108.688.108 1.019 0zM9.699 9.4a.3.3 0 1 0 .301.3.3.3 0 0 0-.301-.3zm6.6 6.6a.3.3 0 1 0 .301.3.3.3 0 0 0-.301-.3z" stroke="#848E9F" stroke-width="1.5" stroke-linecap="round" stroke-linejoin="round"/></svg>