<svg width="26" height="21" fill="none" xmlns="http://www.w3.org/2000/svg"><path d="M25 10.333h-4M21 5h1.333A2.666 2.666 0 0 1 25 7.667V17a2.666 2.666 0 0 1-2.667 2.667H7.667A2.666 2.666 0 0 1 5 17v-1.333M3.667 1h14.666A2.666 2.666 0 0 1 21 3.667V13a2.666 2.666 0 0 1-2.667 2.667H3.667A2.666 2.666 0 0 1 1 13V3.667A2.666 2.666 0 0 1 3.667 1zm4 8H6.333A1.334 1.334 0 0 1 5 7.667V6.333C5 5.597 5.597 5 6.333 5h1.334C8.403 5 9 5.597 9 6.333v1.334C9 8.403 8.403 9 7.667 9z" stroke="url(#paint0_linear)" stroke-width="1.5" stroke-linecap="round" stroke-linejoin="round"/><defs><linearGradient id="paint0_linear" x1="1" y1="1" x2="1" y2="19.667" gradientUnits="userSpaceOnUse"><stop stop-color="#5986FB"/><stop offset="1" stop-color="#2D4EF5"/></linearGradient></defs></svg>