<svg width="290" height="79" fill="none" xmlns="http://www.w3.org/2000/svg"><path d="M186.612 58.27v.044c-.513 0-1.026.002-1.54 0-1.705-.008-1.749.002-1.359 1.597.62 2.53 1.786 4.79 3.673 6.661.423.42.913.464 1.403.184a24.484 24.484 0 0 0 5.786-4.562 19.768 19.768 0 0 0 1.78-2.19c.419-.601.226-.908-.511-1.007-1.014-.136-2.026-.273-3.041-.392-1.037-.123-2.074-.266-3.116-.322-1.022-.056-2.049-.012-3.075-.012zm-9.499 11.54l.027-.182c.56 0 1.12.017 1.678-.01.165-.009.394-.105.462-.23.053-.098-.064-.33-.166-.454-1.935-2.358-3.275-5.017-4.114-7.914-.512-1.766-.472-1.79-2.369-1.612-3.936.372-7.872.756-11.808 1.137-.772.075-.868.262-.415.876 1.705 2.304 3.579 4.443 6.321 5.616 1.62.694 3.236 1.457 4.932 1.904 1.768.468 3.63.594 5.452.869zm15.513-60.675l-9.461-2.485-.123.211c6.569 5.134 10.658 11.695 11.766 19.871 1.106 8.158-.974 15.563-6.077 22.358.906 0 1.611.05 2.305-.01 1.711-.147 3.418-.335 5.124-.523 1.152-.127 2.297-.298 3.45-.42 1.435-.15 2.874-.262 4.31-.408 2.401-.244 4.8-.503 7.201-.751.394-.04.79-.05 1.186-.083.599-.053 1.117-.052 1.221.748.018.14.574.344.839.296.537-.097.731.064.783.557.156 1.452.331 2.902.494 4.352.055.499.08 1.001.147 1.499.072.52-.062.8-.669.858-1.899.182-3.791.455-5.692.61-.823.066-1.229.37-1.431 1.16-.732 2.863-2.014 5.495-3.688 7.939-3.039 4.44-7.013 7.848-11.909 10.225a29.642 29.642 0 0 1-8.895 2.73c-1.693.236-3.426.38-5.132.32-4.703-.166-9.198-1.221-13.369-3.431-3.904-2.069-7.422-4.635-10.289-7.968-2.497-2.9-4.208-6.23-5.184-9.909-.263-.99-.469-1.998-.73-2.99-.119-.456.054-.633.495-.686.853-.102 1.702-.25 2.557-.33 2.386-.225 4.775-.401 7.158-.64 2.336-.233 4.665-.52 6.998-.779.648-.072 1.298-.165 1.947-.18 2.005-.04 3.838-.696 5.565-1.59 1.492-.77 3.001-1.592 4.295-2.635 1.667-1.342 3.112-2.936 4.334-4.711a23.675 23.675 0 0 0 3.869-9.601c.272-1.62.01-3.32.084-4.98.057-1.274-.254-2.463-.577-3.669-.475-1.772-.949-3.542-1.939-5.123-.678-1.083-1.326-2.192-2.09-3.215-3.07-4.101-7.218-6.355-12.392-6.753-.757-.058-1.535.068-2.296.165-.442.056-.606-.076-.605-.495.002-2.423.006-4.845-.009-7.268-.004-.639.429-.598.857-.598h11.342c3.967 0 7.934.001 11.9.003.459 0 .933-.044.806.678-.017.1.398.403.59.385.846-.08.992.412.988 1.044-.008 1.343-.038 2.687-.052 4.03-.008.679-.002 1.357-.002 2.192zM19.84 18.482h.008c0-1.92.007-3.837-.008-5.756-.003-.278-.116-.556-.178-.834-.247.099-.52.157-.733.303-.612.417-1.227.836-1.789 1.313-4.205 3.579-6.747 8.084-7.737 13.439-.053.293.026.61.043.916.343-.091.698-.15 1.024-.28.637-.251 1.245-.58 1.891-.807a17.226 17.226 0 0 1 2.235-.634c1.341-.277 2.688-.561 4.048-.707.824-.089 1.193-.298 1.194-1.129.004-1.941.002-3.883.002-5.824zM9.247 7.825c-.731.178-1.466.345-2.195.533-.765.198-1.533.396-2.285.634-.51.16-.738-.023-.709-.496.042-.688-.268-.903-.922-.785-.505.09-.644-.166-.644-.626a317.45 317.45 0 0 0-.046-5.69c-.008-.468.14-.643.643-.638 2.823.028 5.648.014 8.47.037 1.372.012 2.742.113 4.113.102 1.066-.009 2.13-.174 3.196-.188 2.496-.03 4.993-.004 7.49-.02.588-.003 1.014.06.984.802-.006.128.421.4.636.388.731-.04.902.268.901.935-.016 13.256-.011 26.511-.012 39.767 0 .877-.068.95-.942.952-1.89.004-3.78-.007-5.671.006-.507.004-.885-.064-.839-.694.032-.42-.277-.455-.61-.462-.95-.022-.953-.027-.953-.965-.002-2.17.007-4.342.002-6.512-.004-.825-.091-.866-.89-.706-2.513.5-4.806 1.455-6.723 3.158-.462.41-.884.882-1.232 1.388-.146.212-.158.628-.05.877 1.48 3.4 3.632 6.335 6.593 8.634 1.693 1.314 3.708 2.062 5.766 2.678.422.127.895.182 1.013.789.036.179.528.335.832.388.663.116.837.426.678 1.056-.481 1.904-.924 3.817-1.376 5.728-.087.372-.236.532-.684.425a26.817 26.817 0 0 1-10.668-5.22c-1.817-1.456-3.61-2.964-5.236-4.617-2.312-2.35-4.045-5.113-5.354-8.125-1.065-2.45-1.826-4.991-2.156-7.624-.28-2.227-.591-4.466-.135-6.728.303-1.492.3-3.053.688-4.52.464-1.757 1.119-3.478 1.832-5.158 1.329-3.13 3.357-5.83 5.648-8.346.3-.328.694-.573 1.044-.857-.066-.1-.13-.2-.197-.3zM55.88 9.636c-1.147.149-2.319.196-3.433.467-1.901.46-3.312 1.5-3.965 3.449-.782 2.333-.664 4.667-.155 6.988.458 2.08 1.053 4.137 1.68 6.178.615 2 1.625 3.798 3.157 5.302 1.718 1.685 4.554 1.337 6.007-.534 1.858-2.396 2.893-5.153 3.626-8.053.736-2.91 1.25-5.834.758-8.824-.339-2.06-1.416-3.58-3.546-4.323-1.354-.473-2.715-.559-4.13-.65zm13.983 23.947h5.687c-.103.523-.161.963-.278 1.388-.63 2.279-1.29 4.55-1.907 6.833-.275 1.018-.28 1.06-1.337 1.06-5.577 0-11.153.002-16.729 0-3.045-.002-5.815-.87-8.285-2.606-1.054-.741-2.17-1.453-3.043-2.373-1.08-1.139-2-2.441-2.879-3.744-1.882-2.783-2.95-5.916-3.778-9.118-.345-1.334-.472-2.73-.621-4.104-.16-1.466-.348-2.946-.31-4.415.076-2.895.4-5.772 1.805-8.4 1.362-2.549 3.323-4.51 5.964-5.83 2.2-1.099 4.534-1.756 6.957-2.069C52.554.018 54.03.05 55.497.024c2.3-.042 4.612-.088 6.872.415 3.341.74 6.553 1.812 8.957 4.367 1.81 1.924 2.918 4.21 3.492 6.793.49 2.208.639 4.422.492 6.645-.107 1.642-.447 3.273-.75 4.896-.591 3.15-1.925 6.016-3.61 8.736-.167.272-.373.521-.547.79-.16.248-.3.508-.54.917z" fill="#408F49"/><path d="M229.849.87l-.514.816c.371.073.74.17 1.115.21.338.036.685.008 1.215.008-.232.288-.334.45-.47.578-1.346 1.264-2.715 2.504-4.042 3.786-1.327 1.28-2.605 2.61-3.923 3.898-.371.364-.247.613.058.913 2.526 2.492 4.448 5.388 5.964 8.557 1.17 2.447 2 5.003 2.679 7.62a43.02 43.02 0 0 1 1.311 8.779c.122 2.567-.016 5.158-.205 7.727-.14 1.902-.395 3.823-.871 5.668-.625 2.425-1.522 4.782-2.294 7.172-.215.67-.561.729-1.194.428-1.532-.724-3.104-1.363-4.655-2.047-.494-.218-1.023-.354-1.284-.951-.104-.239-.576-.331-.888-.473-.474-.217-.626-.458-.387-1.012A31.973 31.973 0 0 0 224 42.497c.209-2.505.322-5.03.264-7.541-.039-1.695-.42-3.386-.698-5.07a31.209 31.209 0 0 0-3.459-9.99c-.605-1.1-1.33-2.142-2.063-3.168-.574-.802-.694-.78-1.387-.126-1.208 1.143-2.406 2.297-3.625 3.428-.438.406-.616.855-.615 1.452.017 7.015.012 14.03.011 21.044 0 1-.003 1.005-.999 1.005-1.889.002-3.779-.007-5.669.005-.497.003-.818-.103-.783-.68.028-.468-.325-.503-.672-.464-.648.073-.869-.207-.861-.827.025-1.85.026-3.7.008-5.551-.014-1.41-.098-2.822-.103-4.233a5615.6 5615.6 0 0 1-.038-16.923c-.005-4.387.001-8.775.003-13.161 0-.993.058-1.029 1.052-1.002 1.188.03 2.377.024 3.567.035.802.008 1.603 0 2.402.045.14.008.383.248.379.376-.017.638.375.735.865.668.672-.09.867.205.856.814-.024 1.371-.015 2.742.002 4.113.002.206.118.41.182.614.199-.094.442-.147.592-.291 1.513-1.452 3.009-2.92 4.511-4.385.413-.401.833-.796 1.232-1.21.455-.472.963-.69 1.661-.68 2.869.041 5.74.016 8.609.019.197 0 .398.036.625.057zm60.139 26.54l-.001 15.218c0 .9-.002.902-.941.903-1.867 0-3.733-.005-5.601.002-.487.002-.844-.072-.945-.665-.034-.201-.413-.444-.669-.492-.95-.183-.966-.156-.956-1.114.03-2.67.101-5.34.095-8.01-.009-4.728-.071-9.456-.087-14.185-.002-.6-.217-.802-.817-.796-2.426.02-4.852.018-7.279 0-.624-.004-.865.215-.863.845.018 5.897-.062 11.793.036 17.687.095 5.894 1.837 11.328 5.269 16.201.399.568.424.872-.203 1.288-1.62 1.075-3.198 2.215-4.782 3.345-.322.23-.56.274-.82-.069-.377-.5-.665-1.054-1.458-1.142-.294-.032-.556-.571-.784-.91-2.135-3.165-3.804-6.564-4.774-10.225-.656-2.477-1.308-4.993-1.318-7.592-.048-11.942-.09-23.884-.133-35.826-.004-1.085.001-1.085 1.134-1.084 1.773 0 3.546.005 5.319-.004.483-.003.882.006.895.66.003.131.427.36.66.365.961.018.969-.002.969.96.001 2.102.016 4.205-.01 6.307-.008.594.192.923.812.937 1.398.033 2.796.08 4.194.076 1.443-.003 2.886-.079 4.33-.086 1.912-.01 3.826.043 5.739.013.894-.013 1.634.292 2.337.77.454.307.666.695.664 1.267-.021 5.119-.012 10.237-.012 15.355zm-38.866-1.744c-2.052 0-4.105.013-6.158-.008-.571-.006-.795.142-.709.752.846 6.098 2.816 11.809 6.141 17.039 1.413 2.223 3.159 4.2 5.311 5.767.837.61 1.882.95 2.846 1.384.463.209.957.353 1.437.528.044.016.117.035.121.06.138.874.934.857 1.529 1.138.134.064.203.445.16.65-.401 1.918-.832 3.831-1.257 5.745-.112.508-.354.706-.946.564-3.025-.723-5.683-2.161-8.11-4.015-1.591-1.215-3.152-2.483-4.603-3.851a21.035 21.035 0 0 1-2.922-3.395c-1.358-1.983-2.704-4-3.778-6.136-1.53-3.042-2.892-6.18-3.571-9.54-.541-2.68-1.134-5.359-1.465-8.067-.219-1.785.099-3.628-.028-5.43-.12-1.678.182-3.277.535-4.875.605-2.74 1.621-5.305 3.437-7.545.977-1.206 2.03-2.308 3.315-3.175 1.354-.915 2.837-1.53 4.446-1.975 2.976-.82 5.982-.294 8.968-.468.345-.02.597.076.599.482.001.535.356.65.803.6.67-.073.894.192.881.854a162.02 162.02 0 0 0-.004 5.621c.009.568-.19.767-.768.757-1.47-.029-2.944-.076-4.41.003-3.87.212-5.912 1.406-7.481 5.02a22.958 22.958 0 0 0-.816 2.178c-.218.691-.111.807.638.81 2.122.006 4.246.002 6.369.002 1.33 0 2.66.013 3.99-.005.498-.007.817.107.803.671-.013.512.355.607.762.562.717-.08.925.217.91.9a152.627 152.627 0 0 0-.004 5.62c.01.601-.203.797-.812.789-2.053-.028-4.105-.01-6.159-.01zM108.063 53.858a1255 1255 0 0 0-1.48-2.861c-.897-1.728-1.777-3.462-2.707-5.172-.301-.553-.154-.75.387-1.009 2.299-1.1 4.588-2.231 6.343-4.136a7.4 7.4 0 0 0 1.945-4.294 55.38 55.38 0 0 0 .298-5.583c.034-6.742.013-13.483.013-20.224v-.965h-8.617c.382-1.501.717-2.91 1.101-4.305.409-1.492.882-2.966 1.289-4.457.147-.535.416-.71.983-.707 5.227.02 10.453.02 15.68.001.596-.002.818.152.817.768-.015 11.472.033 22.944-.044 34.415-.018 2.7-.493 5.398-1.701 7.882a14.908 14.908 0 0 1-5.954 6.433c-2.011 1.183-4.113 2.216-6.19 3.288-.672.345-1.394.6-2.163.926zm45.628-3.886c-1.072.173-2.144.349-3.215.517-1.631.257-3.257.53-4.894.742-.306.04-.687-.125-.966-.299-.475-.296-.897-.675-1.341-1.02-.091-.07-.189-.136-.261-.223-1.923-2.331-3.729-4.749-4.987-7.492-1.093-2.386-2.162-4.793-3.038-7.26-1.017-2.868-1.615-5.852-1.953-8.877-.201-1.807-.505-3.613-.547-5.424-.06-2.598.338-5.153 1.013-7.688.899-3.379 2.5-6.296 5.138-8.662 1.495-1.342 3.23-2.29 5.11-2.955.945-.336 1.983-.43 2.985-.597.339-.056.695.003 1.045.009 1.408.025 2.817.057 4.226.068.37.002.74-.08 1.112-.105.591-.04 1.138-.049 1.144.793.001.14.423.372.67.4.894.1.923.1.924.991.002 1.828-.007 3.656.006 5.483.004.594-.104.837-.851.73-.908-.13-1.869.111-2.781-.01-1.456-.193-2.84.123-4.208.432-2.644.596-4.065 2.513-5.02 4.836-.277.675-.473 1.382-.74 2.063-.203.521-.036.716.513.713 1.587-.01 3.174-.002 4.76-.001 1.936 0 3.872.012 5.808-.008.534-.005.857.134.865.71.008.461.325.53.719.545.891.031.923.076.925.967.001 1.805.004 3.61 0 5.415-.001.83-.072.9-.923.9-4.035.003-8.071 0-12.107.001-1.006 0-1.004.04-.873 1.02.489 3.616 1.473 7.098 2.852 10.479 1.384 3.391 3.092 6.603 5.603 9.34.868.945 1.859 1.781 2.792 2.67.193.184.372.381.559.572l-.064.225zm57.789 14.075c.188.144.327.227.437.338 1.51 1.533 3.312 2.686 5.306 3.46 2.577.998 5.276 1.635 8.007.624 1.178-.435 2.243-1.178 3.329-1.83 1.364-.816 2.628-1.826 4.062-2.486 1.434-.66 2.998-1.23 4.555-1.4 1.801-.199 3.676-.06 5.482.194 1.496.21 2.961.737 4.397 1.24 1.823.64 3.468 1.634 4.983 2.81 1.11.86 2.159 1.798 3.243 2.692.412.34.439.609.002.982-1.49 1.273-2.956 2.576-4.423 3.878-.294.262-.509.228-.763-.045-1.569-1.67-3.454-2.92-5.585-3.763-1.084-.43-2.267-.621-3.406-.917-.088-.022-.188.004-.278-.017-2.857-.635-5.176.57-7.424 2.055-1.445.955-2.857 1.979-4.391 2.772-1.408.73-2.979 1.197-4.596 1.223-1.862.03-3.748.07-5.582-.177-2.228-.3-4.353-1.07-6.344-2.133-1.745-.932-3.383-2.001-4.788-3.395-.322-.32-.384-.569-.108-.94 1.167-1.564 2.315-3.143 3.475-4.713.116-.156.262-.29.41-.452zm-94.404-1.439c2.565-.13 4.946.572 7.183 1.682 1.255.622 2.386 1.496 3.534 2.311 1.98 1.406 4.106 2.472 6.611 2.332 2.192-.123 4.334-.628 6.224-1.78 1.355-.825 2.622-1.792 3.91-2.72.311-.223.55-.26.761.06a284.447 284.447 0 0 1 3.142 4.854c.095.151.049.53-.08.65-.965.879-1.895 1.825-2.977 2.547-1.239.826-2.594 1.508-3.958 2.126-.83.376-1.769.527-2.664.753-2.493.625-5.022.6-7.554.326-2.1-.226-3.962-1.08-5.703-2.211-1.47-.955-2.889-1.996-4.413-2.86-.779-.44-1.737-.585-2.619-.845a5.524 5.524 0 0 0-1.022-.209 4.827 4.827 0 0 0-1.009.009c-.553.064-1.104.157-1.653.258-3.163.579-5.788 2.133-8.073 4.295-.701.664-.705.693-1.447.068-1.325-1.114-2.63-2.25-3.939-3.38-.415-.358-.708-.69-.14-1.215 2.139-1.977 4.445-3.692 7.095-4.991 2.004-.981 4.121-1.515 6.281-1.932.814-.156 1.671-.092 2.51-.128z" fill="#408F49"/></svg>