<svg width="40" height="40" fill="none" xmlns="http://www.w3.org/2000/svg"><path d="M20 40c11.046 0 20-8.954 20-20S31.046 0 20 0 0 8.954 0 20s8.954 20 20 20z" fill="#162F71"/><path d="M20 36.25c8.975 0 16.25-7.275 16.25-16.25S28.975 3.75 20 3.75 3.75 11.025 3.75 20 11.025 36.25 20 36.25z" stroke="#fff" stroke-width="1.5"/><path d="M5 18H2v3h3v-3zm33 0h-3v3h3v-3zm-23.585 6.867c2.815 0 4.56-1.83 4.56-4.872 0-3.037-1.745-4.862-4.565-4.862H11v9.734h3.415zm-1.182-2.006V17.14h1.065c1.588 0 2.44.76 2.44 2.856 0 2.106-.852 2.866-2.409 2.866h-1.096zM29 20c0-3.218-1.93-5-4.412-5-2.49 0-4.408 1.782-4.408 5 0 3.203 1.918 5 4.408 5C27.069 25 29 23.218 29 20zm-2.283 0c0 1.906-.794 2.937-2.129 2.937-1.33 0-2.13-1.031-2.13-2.937s.8-2.937 2.13-2.937c1.335 0 2.13 1.031 2.13 2.937z" fill="#fff"/></svg>