<svg width="1370" height="622" fill="none" xmlns="http://www.w3.org/2000/svg"><path d="M300.895 464.661h113.18V400.02h50.082v-91.739h-50.082V57.339H248.266L100 303.765v96.255h200.895v64.641zM198.184 313.08v-3.388l103.843-172.469h2.263V313.08H198.184zM683.161 472c113.18 0 182.503-81.013 182.503-210.859v-.564C865.664 130.73 796.341 50 683.161 50c-113.18 0-183.069 80.73-183.069 210.577v.564C500.092 390.987 569.981 472 683.161 472zm0-92.021c-39.613 0-61.4-42.059-61.4-118.838v-.564c0-76.779 21.787-118.556 61.4-118.556s61.117 41.777 61.117 118.556v.564c0 76.779-21.504 118.838-61.117 118.838zm423.579 84.682h113.18V400.02H1270v-91.739h-50.08V57.339h-165.81L905.843 303.765v96.255h200.897v64.641zM1004.03 313.08v-3.388l103.84-172.469h2.26V313.08h-106.1z" filter="url(#filter0_di)" fill="#fff" fill-opacity=".6"/><defs><filter id="filter0_di" x="0" y="0" width="1370" height="622" filterUnits="userSpaceOnUse" color-interpolation-filters="sRGB"><feFlood flood-opacity="0" result="BackgroundImageFix"/><feColorMatrix in="SourceAlpha" values="0 0 0 0 0 0 0 0 0 0 0 0 0 0 0 0 0 0 127 0"/><feOffset dy="50"/><feGaussianBlur stdDeviation="50"/><feColorMatrix values="0 0 0 0 0 0 0 0 0 0 0 0 0 0 0 0 0 0 0.1 0"/><feBlend in2="BackgroundImageFix" result="effect1_dropShadow"/><feBlend in="SourceGraphic" in2="effect1_dropShadow" result="shape"/><feColorMatrix in="SourceAlpha" values="0 0 0 0 0 0 0 0 0 0 0 0 0 0 0 0 0 0 127 0" result="hardAlpha"/><feOffset dy="-10"/><feComposite in2="hardAlpha" operator="arithmetic" k2="-1" k3="1"/><feColorMatrix values="0 0 0 0 0 0 0 0 0 0 0 0 0 0 0 0 0 0 0.02 0"/><feBlend in2="shape" result="effect2_innerShadow"/></filter></defs></svg>