<svg width="1440" height="465" fill="none" xmlns="http://www.w3.org/2000/svg"><path d="M720 495c397.65 0 720-13.431 720-30 0-16.568-322.35-30-720-30-397.645 0-720 13.432-720 30 0 16.569 322.355 30 720 30z" fill="#EEF2F5"/><path d="M402.916 39.585a3.166 3.166 0 0 0-.552-.96 17.814 17.814 0 0 1-4.091-12.47 17.89 17.89 0 0 0-.58-5.921l-10.022-5.451-9.893-2.399c-.286-.075-11.311.136-11.311.136l-11.236 3.96s-8.182 6.132-8.414 6.513c-.232.382-2.645 11.175-2.645 11.175l6.061 20.149-.532 2.044a4.668 4.668 0 0 1 2.68.354 78.664 78.664 0 0 1 5.086 2.542 94.465 94.465 0 0 1 20.856 15.978l1.221-2.446 3.586-7.202a2.823 2.823 0 0 1 2.632-1.54l2.645.075 2.046.061a8.553 8.553 0 0 0 6.111-2.324 8.534 8.534 0 0 0 2.677-5.961l.232-7.864a6.39 6.39 0 0 1 .436-2.146 6.51 6.51 0 0 1 1.964-2.725l.061-.055a3.142 3.142 0 0 0 .982-3.523z" fill="#EFA08D"/><path d="M349.727 56.375l-1.588 10.166 26.583 12.197 3.627-3.489-5.543-6.337-5.931-9.642-14.734-3.55-2.414.655z" fill="#EFA08D"/><path d="M396.971 23.02s-1.003 8.43-8.625 10.726c-7.623 2.296-2.441 11.835-11.925 16.925-6.893 3.687-15.613 3.803-18.927 8.6a72.085 72.085 0 0 0-5.086-2.542 4.665 4.665 0 0 0-2.679-.354l.531-2.045c2.059.456 4.199.402 6.232-.156l.164-.048a2.628 2.628 0 0 0 1.751-1.688 2.616 2.616 0 0 0-.388-2.4c-1.575-2.044-2.822-5.104.212-8 3.613-3.454 7.499.348 9.545 2.985a3.875 3.875 0 0 0 4.091 1.362l2.645-.729a3.191 3.191 0 0 0 2.161-4.088c-1.125-3.407-1.847-8.817 3.321-11.25 6.538-3.08 14.488-1.833 16.977-7.297zm4.99 20.102l-.061.054a6.511 6.511 0 0 0-1.964 2.726c-1.725-.28-3.061-2.59-.259-3.544 2.107-.715 2.925-1.935 3.239-2.76a3.14 3.14 0 0 1-.955 3.524zm-13.554 21l-2.646-.075a2.815 2.815 0 0 0-2.604 1.553l-3.586 7.237-2.046-5.853a3.274 3.274 0 0 1 .615-3.243 3.272 3.272 0 0 1 3.128-1.057l7.139 1.438z" fill="#ED8B7B"/><path d="M308.307 91.902l4.371-8.544 8.413 2.412 14.897 40.896-2.386 56.324-15.961 54.79-28.724 29.327-30.157 1.172-21.292-8.136-11.059-7.086-8.686-8.238 17.495-75.559 21.852-63.546 41.242-13.669 9.995-.143z" fill="#33313B"/><path d="M305.152 173.076c-4.671 7.263-10.228 18.322-13.916 33.558a140.681 140.681 0 0 0-3.348 20.517 251.766 251.766 0 0 1-5.87 6.636 6.51 6.51 0 0 0-1.711 4.395v6.644a1.53 1.53 0 0 0 .942 1.413 1.535 1.535 0 0 0 1.669-.323 709.054 709.054 0 0 0 4.309-4.334 192.5 192.5 0 0 0 1.718 25.525c-5.891 1.949-16.486 4.089-30.156 1.172a78.043 78.043 0 0 1-21.293-8.136l9.859-60.827a15.893 15.893 0 0 1 6.252-10.247 15.912 15.912 0 0 1 11.639-2.958l2.979.409a19.16 19.16 0 0 0 14.065-3.599 19.135 19.135 0 0 0 7.494-12.428l8.127-52.589a25.201 25.201 0 0 1 14.059-18.909c-2.53 7.23-7.343 23.719-10.398 51.52a43.26 43.26 0 0 0 3.58 22.561z" fill="url(#paint0_linear)"/><path d="M315.856 91.793c-1.309 1.629-2.107 2.726-2.229 2.882-.123.157-.641 1.363-1.657 4.3a25.218 25.218 0 0 0-14.059 18.908l-8.127 52.59a19.13 19.13 0 0 1-7.494 12.427 19.15 19.15 0 0 1-14.065 3.599l-2.979-.409a15.915 15.915 0 0 0-11.645 2.966 15.897 15.897 0 0 0-6.246 10.26l-9.886 60.827a103.392 103.392 0 0 1-11.059-7.086 33.064 33.064 0 0 0 8.434-17.716l6.927-48.242a17.082 17.082 0 0 0-2.611-11.788l-3.941-6.037a15.796 15.796 0 0 0 1.193-4.354l3.791-30.411a56.157 56.157 0 0 1 9.879-25.477l1.725-2.439a33.79 33.79 0 0 1 27.109-14.268l8.352-.123 3.504-.048 7.548-.109 9.988-.13 7.548-.122z" fill="#162F71"/><path d="M241.771 187.092l-6.928 48.242a33.062 33.062 0 0 1-8.433 17.716 118.443 118.443 0 0 1-4.534-3.489 18.344 18.344 0 0 1-4.153-4.769 18.564 18.564 0 0 1-2.604-11.775l5.045-44.692a13.958 13.958 0 0 1 6.055-9.948l3.409-2.324a15.777 15.777 0 0 0 5.625-6.813l3.934 6.023a17.086 17.086 0 0 1 2.584 11.829z" fill="url(#paint1_linear)"/><path d="M321.098 85.783a105.88 105.88 0 0 0-5.236 6.024l-7.555.109c-.504-5.09-1.002-19.08 8.53-20.646 6.525-1.077 5.147 9.784 4.261 14.513z" fill="#021340"/><path d="M315.856 91.793c-1.31 1.629-2.107 2.726-2.23 2.882-.123.157-.641 1.363-1.657 4.3a25.208 25.208 0 0 0-14.059 18.908l-8.127 52.59a19.104 19.104 0 0 1-3.092 7.842 19.133 19.133 0 0 1-6.167 5.752c-1.554-15.093-3.709-31.726-1.697-49.742 3.845-34.41 16.09-41.094 19.499-42.293l9.982-.116 7.548-.123z" fill="#021340"/><path d="M301.995 162.882a43.19 43.19 0 0 0 3.157 10.221c-.437.681-.887 1.397-1.364 2.146-.279.464-.566.941-.852 1.438a.838.838 0 0 0-.055.102c-.156.259-.306.532-.463.804-.157.273-.307.545-.457.825-.15.279-.314.565-.464.852a71.758 71.758 0 0 0-1.193 2.282c-.129.246-.252.498-.375.757a64.495 64.495 0 0 0-.757 1.553 116.71 116.71 0 0 0-7.963 22.799 140.546 140.546 0 0 0-3.348 20.517 253.477 253.477 0 0 1-5.87 6.637 6.508 6.508 0 0 0-1.711 4.395v6.643a1.527 1.527 0 0 0 .942 1.413 1.535 1.535 0 0 0 1.669-.323 734.626 734.626 0 0 0 4.309-4.333c.016 8.528.599 17.046 1.745 25.497-5.891 1.949-16.486 4.089-30.156 1.172.682-9.239 6.518-21.218 15.947-35.936 8.693-13.573 7.705-29.756 5.803-48.256a19.123 19.123 0 0 0 9.259-13.594l8.127-52.589a25.19 25.19 0 0 1 4.683-11.196 25.222 25.222 0 0 1 9.375-7.713c-2.543 7.23-7.356 23.719-10.411 51.52a43.198 43.198 0 0 0 .423 12.367z" fill="#67354E"/><path d="M301.995 162.882a43.19 43.19 0 0 0 3.157 10.221c-.437.681-.887 1.397-1.364 2.146-.279.464-.566.941-.852 1.438a.838.838 0 0 0-.055.102c-.156.259-.306.532-.463.804-.157.273-.307.545-.457.825-.15.279-.314.565-.464.852a71.758 71.758 0 0 0-1.193 2.282c-.129.246-.252.498-.375.757a64.495 64.495 0 0 0-.757 1.553 116.71 116.71 0 0 0-7.963 22.799 140.546 140.546 0 0 0-3.348 20.517 253.477 253.477 0 0 1-5.87 6.637 6.508 6.508 0 0 0-1.711 4.395v6.643a1.527 1.527 0 0 0 .942 1.413 1.535 1.535 0 0 0 1.669-.323 734.626 734.626 0 0 0 4.309-4.333c.016 8.528.599 17.046 1.745 25.497-5.891 1.949-16.486 4.089-30.156 1.172.682-9.239 6.518-21.218 15.947-35.936 8.693-13.573 7.705-29.756 5.803-48.256a19.123 19.123 0 0 0 9.259-13.594l8.127-52.589a25.19 25.19 0 0 1 4.683-11.196 25.222 25.222 0 0 1 9.375-7.713c-2.543 7.23-7.356 23.719-10.411 51.52a43.198 43.198 0 0 0 .423 12.367z" fill="url(#paint2_linear)"/><path d="M241.77 187.092l-6.927 48.242a33.07 33.07 0 0 1-8.434 17.716 118.443 118.443 0 0 1-4.534-3.489 18.322 18.322 0 0 1-4.152-4.769c13.377 3.89 15.804-41.299 18.32-54.436 2.291-11.965-.682-20.694-.812-21.082l3.934 6.023a17.084 17.084 0 0 1 2.605 11.795z" fill="url(#paint3_linear)"/><path d="M287.263 92.202l3.505-.048a37.164 37.164 0 0 0-8.052 7.577c-6.518 8.068-15.157 24.183-19.507 55.233a1.03 1.03 0 0 1-1.152.873 1.016 1.016 0 0 1-.677-.398 1.017 1.017 0 0 1-.196-.761c4.439-31.718 13.37-48.194 20.12-56.446a42.394 42.394 0 0 1 5.959-6.03z" fill="#021340"/><path d="M404.812 228.193l-5.837-33.388-43.322 19.134-11.481 60.371 11.461 39.67 79.771 121.014h9.654c-30.524-93.69-39.258-194.365-40.246-206.801z" fill="#212028"/><path d="M362.43 204.937l-50.726-12.912-20.454 14.609-4.009 34.949c.001 8.536.571 17.063 1.704 25.524a250.77 250.77 0 0 0 7.998 37.477.124.124 0 0 1 0 .047 322.666 322.666 0 0 0 4.384 13.853l-56.358 111.4 8.181 5.11 49.37-46.736a239.646 239.646 0 0 0 53.133-74.271 257.978 257.978 0 0 0 7.5-18.336l19.09-52.917-19.813-37.797z" fill="#33313B"/><path d="M300.966 211.159c-4.228 5.369-8.734 10.902-13.077 15.998a140.688 140.688 0 0 1 3.347-20.516 164.163 164.163 0 0 0 9.73 4.518zm69.794 31.05l-32.727 22.398a6.557 6.557 0 0 1-10.002-3.578l-13.002-44.576.396-.136 15.518 37.476a4.17 4.17 0 0 0 5.42 2.269l34.233-13.962.164.109zm-73.845 62.381a250.73 250.73 0 0 1-7.998-37.476 192.472 192.472 0 0 1-1.69-25.525c6.197-6.282 15.647-16.101 24.476-26.24-.634.974-25.09 39.35-14.788 89.241zm4.397 13.901l2.836 8.98a5.273 5.273 0 0 1-4.391 6.814l-6.859.838 8.414-16.632z" fill="#212028"/><path d="M313.489 194.805c1.63-2.173 3.041-4.088 4.166-5.614l-1.507-1.322a43.358 43.358 0 0 1-14.14-25.007l27.599 1.172 17.904 51.267a264.866 264.866 0 0 1-34.022-20.496z" fill="#67354E"/><path d="M404.06 192.025c-.614-21.409-1.793-47.343-4.009-61.359a66.864 66.864 0 0 0-6.634-20.789l1.043-6.623a17.154 17.154 0 0 0-3.061-12.701 127.604 127.604 0 0 0-13.05-15.284c-6.907-6.882-15.681-13.907-25.943-18.52a4.665 4.665 0 0 0-2.679-.354 4.718 4.718 0 0 0-3.873 3.584l-2.795 12.946-37.908 100.164-10.725 32.707 6.538 5.349 10.752 4.17 2.196-.334 1.622 1.629 25.909 10.527 63.408 1.015-.791-36.127z" fill="#162F71"/><path d="M326.442 196.911a245.898 245.898 0 0 1-2.727 3.768l-8.727 3.407a4.156 4.156 0 0 0-2.332 5.451l1.316 3.182c-.736.863-1.479 1.726-2.229 2.589-8.83 10.146-18.286 19.972-24.491 26.261a734.626 734.626 0 0 1-4.309 4.333 1.534 1.534 0 0 1-2.611-1.09v-6.643a6.514 6.514 0 0 1 1.711-4.395c1.896-2.044 3.866-4.293 5.871-6.637 4.343-5.069 8.863-10.63 13.077-15.999a856.674 856.674 0 0 0 16.677-21.941l8.774 7.714z" fill="#834C69"/><path d="M326.442 196.911a245.898 245.898 0 0 1-2.727 3.768l-8.727 3.407a4.156 4.156 0 0 0-2.332 5.451l1.316 3.182c-.736.863-1.479 1.726-2.229 2.589-8.83 10.146-18.286 19.972-24.491 26.261a734.626 734.626 0 0 1-4.309 4.333 1.534 1.534 0 0 1-2.611-1.09v-6.643a6.514 6.514 0 0 1 1.711-4.395c1.896-2.044 3.866-4.293 5.871-6.637 4.343-5.069 8.863-10.63 13.077-15.999a856.674 856.674 0 0 0 16.677-21.941l8.774 7.714z" fill="url(#paint4_linear)"/><path d="M317.643 189.211c-1.125 1.533-2.537 3.407-4.166 5.615a886.123 886.123 0 0 1-12.511 16.353c-4.091-1.744-7.377-3.318-9.73-4.518a116.722 116.722 0 0 1 7.937-22.826 94.315 94.315 0 0 1 5.952-10.759 43.394 43.394 0 0 0 10.984 14.813l1.534 1.322z" fill="#021340"/><path d="M315.534 216.61a156.054 156.054 0 0 1-3.839-1.302c.75-.858 1.493-1.721 2.23-2.589l1.609 3.891z" fill="#28374B"/><path d="M415.081 219.526l-11.005-27.501-6.334-15.815a4.167 4.167 0 0 0-5.386-2.33l-37.84 14.793-25.909 10.125-4.888 1.908-6.948 2.726-1.779.681a4.148 4.148 0 0 0-2.31 2.237 4.156 4.156 0 0 0-.022 3.214l1.316 3.182 1.561 3.864 15.388 37.183a4.176 4.176 0 0 0 5.421 2.269l34.417-14.009 20.154-8.218 13.909-5.669 7.957-3.243a4.165 4.165 0 0 0 2.298-5.397z" fill="#E6F5FF"/><g style="mix-blend-mode:overlay" clip-path="url(#clip0)"><path d="M373.668 234.697c11.023-4.891 15.993-17.786 11.099-28.803-4.893-11.016-17.796-15.982-28.819-11.092-11.024 4.89-15.993 17.785-11.1 28.802 4.894 11.017 17.797 15.983 28.82 11.093z" fill="#162F71"/><path d="M372.007 230.956c8.956-3.973 12.994-14.45 9.018-23.401-3.976-8.951-14.459-12.986-23.416-9.013-8.956 3.973-12.994 14.451-9.018 23.402 3.976 8.951 14.459 12.986 23.416 9.012z" stroke="#fff" stroke-width="1.5"/><path d="M348.952 219.395l-2.994 1.329 1.33 2.992 2.993-1.328-1.329-2.993zm32.934-14.61l-2.994 1.328 1.329 2.993 2.994-1.329-1.329-2.992zm-20.496 17.291c2.81-1.246 3.741-3.844 2.394-6.878-1.346-3.029-3.897-4.077-6.71-2.828l-3.404 1.51 4.312 9.708 3.408-1.512zm-2.068-1.477l-2.535-5.707 1.062-.472c1.585-.703 2.773-.322 3.702 1.769.932 2.1.418 3.235-1.135 3.925l-1.094.485zm14.468-9.834c-1.425-3.21-4.142-4.132-6.618-3.034-2.485 1.103-3.609 3.729-2.184 6.938 1.42 3.195 4.129 4.138 6.614 3.036 2.476-1.099 3.614-3.731 2.188-6.94zm-2.278 1.01c.844 1.901.509 3.281-.824 3.873-1.328.589-2.582-.086-3.426-1.987-.844-1.901-.504-3.283.824-3.873 1.332-.591 2.582.086 3.426 1.987z" fill="#fff"/></g><path d="M258.946 450.373a3.47 3.47 0 0 1-3.988.191l-14.932-9.185a3.236 3.236 0 0 1-1.024-.976 3.22 3.22 0 0 1 .554-4.196l5.413-6.323 8.182 5.11 6.716 10.562a3.551 3.551 0 0 1-.921 4.817zm198.991-4.974a3.454 3.454 0 0 1-3.055 1.806l-15.429.368a3.213 3.213 0 0 1-3.279-3.101c-.048-1.301-.034-2.603-.171-3.897l-.593-5.581h9.655l11.297 5.383a3.574 3.574 0 0 1 2.034 3.627 3.574 3.574 0 0 1-.459 1.395z" fill="#026FFF"/><path d="M317.642 189.211c-1.125 1.533-2.536 3.407-4.166 5.615-9.061-6.419-14.304-10.991-14.304-10.991a94.469 94.469 0 0 1 5.952-10.759 43.407 43.407 0 0 0 10.984 14.813l1.534 1.322z" fill="#091B4B"/><path d="M369.11 234.223l-52.37-30.832 6.948-2.712 4.888-1.908 31.043 27.153 9.491 8.299z" fill="#C2D5E1"/><path d="M367.91 134.339c-2.924 10.221-8.829 31.746-13.397 54.306l-8.066-15.16s14.986-21.021 21.463-39.146z" fill="#11265F"/><path d="M376.415 229.829l-7.302 4.394-9.491-8.299-16.561-14.486-7.786-6.814-6.696-5.853-2.134-1.86-8.802-7.7-1.506-1.322a43.374 43.374 0 0 1-14.564-37.374c3.055-27.801 7.868-44.29 10.384-51.52 1.016-2.91 1.657-4.3 1.657-4.3l.034-.033.048-.048.068-.068.177-.177c.491-.47 6.484-6.876 7.916-8.047 5.959-4.865 15.831-11.073 30.156-7.578 2.502.6 8.7 2.12 11.229 3.571 14.318 8.238 8.066 34.628 6.709 44.29l-.566 2.726v.061c-.238.852-.334 1.302-.259 1.24-5.55 18.827-22.663 42.825-22.663 42.825l8.052 15.216 20.339 38.157 1.561 2.999z" fill="#162F71"/><path d="M387.841 232.568l-1.991.776a.884.884 0 0 0-.225.109 1.97 1.97 0 0 0-.9 2.467c.044.12.101.234.17.341l.587.913a3.174 3.174 0 0 1 .39 2.575 3.183 3.183 0 0 1-1.665 2.004l-1.944.947-5.215 2.548a4.426 4.426 0 0 1-6.273-3.066v-.157l-1.636-7.829 7.302-4.395 1.663.382c2.017.467 4.07.761 6.137.879l2.181.123 1.207.068a.676.676 0 0 1 .637.572.68.68 0 0 1-.425.743z" fill="#EFA08D"/><path d="M335.309 204.624l-6.695-5.853-2.169-1.86-8.802-7.7-1.506-1.322a43.374 43.374 0 0 1-14.564-37.374c3.055-27.801 7.868-44.29 10.384-51.52 1.016-2.91 1.657-4.3 1.657-4.3l.034-.033.048-.048.068-.068.177-.177c.491-.47 1.5-1.41 2.932-2.583 5.959-4.865 19.302-13.811 33.626-10.316-.681.089-30.64 3.89-34.649 30.663-3.497 23.392-12.211 61.011 19.459 92.491z" fill="#11265F"/><path d="M397.76 18.483c.015.585-.01 1.17-.075 1.751-.906 8.702-10.227 6.562-17.672 10.078-5.195 2.446-4.438 7.87-3.3 11.311a3.173 3.173 0 0 1-.23 2.477 3.156 3.156 0 0 1-1.952 1.543l-2.645.73a3.876 3.876 0 0 1-4.091-1.363c-2.045-2.637-5.932-6.44-9.545-2.985-3.034 2.896-1.786 5.955-.211 8a2.629 2.629 0 0 1-.281 3.46 2.628 2.628 0 0 1-1.083.628l-.164.048a12.958 12.958 0 0 1-6.231.156 13.978 13.978 0 0 1-8.182-5.267c-9.327-12.394-8.488-31.61 5.959-43.575 7.561-6.261 18.184-6.514 27.668-3.91 11.863 3.25 21.933 10.956 22.035 16.918z" fill="#33313B"/><path d="M353.251 10.647c-3.825 11.788 16.234 19.372 14.536 34.356-2.045-2.637-5.931-6.44-9.545-2.985-3.034 2.896-1.786 5.956-.211 8a2.629 2.629 0 0 1-.281 3.46 2.628 2.628 0 0 1-1.083.628l-.164.048a12.958 12.958 0 0 1-6.231.156 13.978 13.978 0 0 1-8.182-5.267c-9.327-12.394-8.488-31.61 5.959-43.574 7.561-6.262 18.184-6.514 27.668-3.912 9.484 2.603-18.634-2.698-22.466 9.09z" fill="#212028"/><path d="M374.668 111.839c-2.093 6.733-4.016 13.015-4.957 16.354.075-.457.157-.975.239-1.547 1.363-9.669 2.434-33.865-11.891-42.103-17.004-9.778-34.192 1.56-41.188 7.277a50.939 50.939 0 0 0-2.931 2.583l-.178.177-.068.068-.048.048c.123-.17.921-1.254 2.23-2.882a104.865 104.865 0 0 1 5.236-6.024 91.036 91.036 0 0 1 6.314-6.132 27.38 27.38 0 0 1 28.226-4.852l1.671.681a29.746 29.746 0 0 1 15.768 14.795 29.716 29.716 0 0 1 1.577 21.557z" fill="url(#paint5_linear)"/><path d="M446.632 435.587l-2.161 2.766a.725.725 0 0 0 .314 1.118l3.197 1.186a.73.73 0 0 0 .819-.232l2.004-2.555a.723.723 0 0 0-.266-1.097l-3.034-1.397a.736.736 0 0 0-.873.211zm4.992 2.392l-2.162 2.725a.727.727 0 0 0 .035.936.72.72 0 0 0 .279.189l3.198 1.178a.722.722 0 0 0 .818-.231l2.004-2.549a.723.723 0 0 0-.012-.904.72.72 0 0 0-.254-.2l-3.034-1.362a.713.713 0 0 0-.872.218zm6.314 7.42a3.451 3.451 0 0 1-3.054 1.806l-15.429.368a3.216 3.216 0 0 1-3.109-2.174h21.592zm-198.992 4.975a3.477 3.477 0 0 1-3.988.191l-14.932-9.185a3.228 3.228 0 0 1-1.53-2.297 3.22 3.22 0 0 1 .814-2.637l19.636 13.928zm-4.458-14.425l-3.313 1.165a.722.722 0 0 0-.447.475.726.726 0 0 0 .113.642l2.045 2.726a.682.682 0 0 0 .811.245l3.062-1.07a.728.728 0 0 0 .442-.446.735.735 0 0 0-.074-.624l-1.807-2.807a.725.725 0 0 0-.832-.306zm2.918 4.701l-3.314 1.158a.73.73 0 0 0-.334 1.118l2.046 2.725a.678.678 0 0 0 .811.245l3.061-1.069a.71.71 0 0 0 .447-.445.717.717 0 0 0-.079-.625l-1.779-2.821a.68.68 0 0 0-.859-.286z" fill="#fff"/><path d="M1101.54 368.788l9.09 4.47c14.83-2.18 16.29-11.761 9.26-19.556-4-4.2-7.74-8.647-11.18-13.314a60.804 60.804 0 0 0-10.09-10.902c-2.64-1.731-11.9 0-11.9 0 5.19 8.565-7.62 35.868 14.82 39.302zm-70.73-55.915a44.984 44.984 0 0 0 8.23 19.596 44.943 44.943 0 0 0 16.32 13.622l10.57 5.199c5.61-14.479 11.06-38.669 9.87-50.872-2.78.381-21.25-2.787-23.97-2.331-8.55 1.438-19.87-1.601-21.02 14.786z" fill="#ED8B7B"/><path d="M946.087 129.928l.362-5.451a5.444 5.444 0 0 1 2.649-4.336 5.46 5.46 0 0 1 5.076-.271l73.696 33.525 2.15.981c.73.331 1.38.818 1.9 1.428.52.609.9 1.326 1.12 2.099.21.773.25 1.583.11 2.373a5.496 5.496 0 0 1-.91 2.195l-3.57 5.11-3.58 5.363-12.27 5.601-17.486-8.061-46.881-17.43a5.456 5.456 0 0 1-3.545-5.485l1.179-17.641z" fill="#E6F5FF"/><path d="M944.936 147.596a5.45 5.45 0 0 0 3.546 5.485l46.88 17.43a2.156 2.156 0 0 0 0-1.506l-.593-1.601a1.108 1.108 0 0 1 .381-1.288 1.11 1.11 0 0 1 1.344.021l11.226 8.708 20.96-7.237 3.57-5.11c.46-.656.77-1.406.91-2.195.13-.79.09-1.6-.12-2.373a5.431 5.431 0 0 0-1.11-2.099 5.458 5.458 0 0 0-1.9-1.428l-2.15-.981s1.52 11.032-12.96 11.584c-14.48.551-62.484-57.816-68.832-35.092l-1.152 17.682z" fill="#C2D5E1"/><path d="M1140.72 87.075l11.27 1.997c1.13.197 2.25.436 3.34.681.37-5.942.04-16.462-6.62-17.423-6.45-.9-7.78 8.715-7.99 14.745z" fill="#021340"/><path d="M1061.27 31.154l2.29-7.652 21.13 5.526 10.71 15.938 11.39 26.758-11.18 7.733-4.98-7.147-1.73-5.084-3.52 1.411a10.46 10.46 0 0 1-7.89-.032 10.456 10.456 0 0 1-5.63-5.535l-1.19-2.766a5.188 5.188 0 0 0-2.87-2.767l-1.6-.62c-.38-.15-.72-.386-1-.688a2.729 2.729 0 0 1-.61-1.056c-.17-.58-.14-1.202.1-1.758 2.05-4.654.65-9.056-2.57-18.697a22.885 22.885 0 0 1-.85-3.564z" fill="#EFA08D"/><path d="M1034.61 184.289l-4.63-6.589 5.92-7.857 4.43-6.262c9.52-27.398 26.19-58.115 30.69-66.217.3-.544.46-1.156.46-1.778a3.692 3.692 0 0 0-.68-2.18 3.543 3.543 0 0 1-.67-2.576 3.59 3.59 0 0 1 1.27-2.337l19.23-16.183 7.04-5.908 19.68 2.978 15.1 16.939 4.99 7.618c1.68-.525 3.25 3.693-.86 7.945 1.96 10.52 2.59 25.211-2.41 42.45-10.28 35.494-9.86 39.071-.25 71.294.16.538.32 1.07.47 1.615-5.71 20.162-58.5 31.194-84.88 22.336-1.52-.511-13.17-24.455-11.8-32.026a12.525 12.525 0 0 1-3.41-6.132c-1.15-4.47-.94-10.391.31-17.13z" fill="#162F71"/><path d="M1007.72 174.845l.05.279 1.51 7.495 25.33 1.656 33.21 2.174a36.357 36.357 0 0 0 34.33-18.95c10.47-19.283 22.58-47.772 14.51-65.106-4.94-2.426-7.88-6.167-9.87-10.412a32.029 32.029 0 0 0-6.21-2.596c-37.97-11.583-39.5 67.015-39.5 67.015l-20.75 7.216-11.65 4.027-20.96 7.202z" fill="#19347C"/><path d="M1061.11 310.502c1.2 12.204 2.77 26.077 4.82 40.788 2.04 14.711 4.55 30.077 7.61 45.517 8.96 7.038 19.83 4.32 22.98-.804.74-5.322 1.62-10.528 2.67-15.175.97-4.293 1.74-8.306 2.32-12.04 2.61-16.919 1.26-28.543-3.95-37.095 0 0 .38-.776 1.03-2.18 1.03-2.201 2.73-5.942 4.84-10.691a473.26 473.26 0 0 0 4.78-11.229c-3.96-16.619-15.22-15.052-30.48-12.947l-11.72.321c-10.56 1.219-4.41 15.467-4.9 15.535z" fill="#EFA08D"/><path d="M1110.6 373.258l9.79 4.811.92.456.92.457 4.66 2.289.91.45.92.456 21.87 10.746 10.83-1.206-6.29-7.332c-3.8-2.501-11.04-8.068-19.28-15.324l-.79-.682-.79-.681c-1.36-1.179-2.67-2.405-4.01-3.666l-.77-.77-.77-.736c-3-2.828-5.98-5.805-8.87-8.858a164.827 164.827 0 0 1-9.25 19.59z" fill="url(#paint6_linear)"/><path d="M1120.39 378.069l.92.456.92.457a386.957 386.957 0 0 0 8.03-14.991l-.77-.729-.78-.736c-2.2 4.354-5.01 9.696-8.32 15.543zm6.5 3.202l.91.45.92.456c2.73-4.769 5.11-9.212 7.13-13.096l-.79-.681-.79-.682a389.674 389.674 0 0 1-7.38 13.553z" fill="#C2D5E1"/><path d="M989.722 176.262c-.007.829.23 1.642.682 2.337l2.345 3.577a8.86 8.86 0 0 0 5.183 3.742 8.88 8.88 0 0 0 6.358-.716l4.94-2.569-1.51-7.495-.05-.28-11.232-8.708a1.118 1.118 0 0 0-1.344-.02 1.107 1.107 0 0 0-.381 1.288l.593 1.601c.181.486.181 1.02 0 1.506a2.21 2.21 0 0 1-1.827 1.478 4.297 4.297 0 0 0-3.757 4.259z" fill="#EFA08D"/><path d="M1143.96 86.946l11.2 1.99 11.27 1.996c1.13.198 2.25.436 3.34.681 2.75.684 5.42 1.595 8.01 2.726 1.06.454 2.1.952 3.11 1.492a49.767 49.767 0 0 1 16.21 13.431 49.888 49.888 0 0 1 9.21 18.921c3.55 14.541 6.53 32.646 5.98 51.295l-6.14 79.927-5.45 4.64c-2.73 1.595-6.14 3.407-9.87 5.24l-23.86 2.903-27.4-74.503-5.91-25.007-2.19-73.385 12.49-12.347z" fill="#162F71"/><path d="M1119.27 219.544c.15.538-16.08 23.358-15.93 23.903 5.45 18.82 27.76 20.046 42.51 32.325 8.33 3.468 18.2 2.678 27.61.123a103.564 103.564 0 0 0 17.31-6.603l-3.81-63.546a15.201 15.201 0 0 0-4.52-9.913 15.225 15.225 0 0 0-9.99-4.349l-17.98-.79a12.954 12.954 0 0 1-8.76-3.983 12.976 12.976 0 0 1-3.6-8.929V95.109c-8.02-5.329-15.21-8.109-17.61-6.385 1.96 10.52-10.45 31.405-15.45 48.665-10.24 35.493.63 49.932 10.22 82.155z" fill="url(#paint7_linear)"/><path d="M1197.73 257.926c.01 1.174.28 2.33.79 3.389a7.95 7.95 0 0 0 2.14 2.744 7.876 7.876 0 0 0 7.24 1.547 36.58 36.58 0 0 0 10.66-5.349 15 15 0 0 0 6.44-12.265v-50.988c0-3.568-1.38-6.999-3.84-9.581l-5.45-5.717a8.413 8.413 0 0 0-4.69-2.487 8.412 8.412 0 0 0-5.25.825c-3.58 1.84-7.39 5.451-7.93 12.571-.81 10.685-.36 48.801-.11 65.311z" fill="url(#paint8_linear)"/><path d="M1034.34 201.453a12.604 12.604 0 0 0 3.41 6.132 10.379 10.379 0 0 0 3.86 2.276c26.38 8.858 65.26 9.908 92.82 7.387-.15-.546-.31-1.077-.47-1.615-9.61-32.223-10.03-35.8.25-71.294 5-17.259 4.37-31.93 2.41-42.45-4.39 3.154-10.54 4.224-17.9 1.437l-.32-.129c-.59-.227-1.17-.484-1.73-.77 8.08 17.334-4.04 45.823-14.5 65.107a36.374 36.374 0 0 1-14.39 14.499 36.39 36.39 0 0 1-19.95 4.45l-33.2-2.174h.07c1.51.47 25.91 7.966 46.13 10.16 1.52.162 2.92.877 3.95 2.008a6.218 6.218 0 0 1 1.6 4.124c0 4.382-.98 9.867-5.93 10.964-8.51 1.914-44.55-6.017-46.11-10.112z" fill="#162F71"/><path d="M1009.28 182.633l25.33 1.656 33.21 2.173a36.365 36.365 0 0 0 19.94-4.449 36.307 36.307 0 0 0 14.39-14.5c10.47-19.283 22.58-47.772 14.51-65.106-4.94-2.426-7.88-6.167-9.87-10.412a32.035 32.035 0 0 0-6.21-2.596s15.41 17.334 7.87 41.667c-7.54 24.332-15.92 45.837-34.86 47.997-18.94 2.16-64.31 3.57-64.31 3.57z" fill="#172D69"/><path d="M1034.61 184.289h.08c1.63.395 34.32 6.357 51.13 6.357 15.96 0 25.7-19.651 31.61-35.275 5.02-13.26 15.62-43.084.98-52.215-.59-.226-1.17-.483-1.73-.77 8.07 17.335-4.04 45.823-14.51 65.107a36.357 36.357 0 0 1-34.33 18.949l-33.23-2.153z" fill="#152E70"/><path d="M1062.6 310.298c1.44-.068 20.25-.797 40.83 8.524a473.26 473.26 0 0 0 4.78-11.229 283.45 283.45 0 0 0-45.61 2.705z" fill="#ED8B7B"/><path d="M1037.81 207.633c.08.069.21.191.41.355-.14-.082-.28-.239-.41-.355z" fill="#212028"/><path d="M1064.62 55.16c.12.392.33.753.6 1.056.28.301.63.537 1.01.688l1.6.62c.19.072.38.159.55.258.92-.51-.04-2.044-1.61-2.084a5.18 5.18 0 0 1-2.15-.539zm24.3 12.053l1.17-.613c.25-.13.54-.18.82-.147.28.034.54.152.75.337.22.186.37.432.44.705.07.273.06.562-.03.828l-1.44 3.987-1.71-5.097z" fill="#ED8B7B"/><path d="M1142.14 95.109v82.673c0 2.942 1 5.796 2.85 8.088 3.41-17.308 10.3-34.656 13.71-52.951 6.31-33.83-3.54-43.984-3.54-43.984l-11.2-1.99c-7.05-1.743-6.77 5.575-1.82 8.164z" fill="#021340"/><path d="M1133.95 215.612c.15.539.32 1.07.47 1.615 5.45 18.82 9.31 40.413 11.45 58.545 8.33 3.468 18.2 2.678 27.61.123-3.94-12.885-16.55-23.249-25.63-45.449-6.23-15.208-5.78-29.886-2.86-44.583a12.867 12.867 0 0 1-2.85-8.088V95.109c-4.09-4.231-9.06.572-5.54 6.759 1.97 10.521 2.6 25.212-2.4 42.451-10.28 35.493-9.86 39.057-.25 71.293z" fill="#67354E"/><path d="M1133.95 215.612c.15.539.32 1.07.47 1.615 5.45 18.82 9.31 40.413 11.45 58.545 8.33 3.468 18.2 2.678 27.61.123-3.94-12.885-16.55-23.249-25.63-45.449-6.23-15.208-5.78-29.886-2.86-44.583a12.867 12.867 0 0 1-2.85-8.088V95.109c-4.09-4.231-9.06.572-5.54 6.759 1.97 10.521 2.6 25.212-2.4 42.451-10.28 35.493-9.86 39.057-.25 71.293z" fill="url(#paint9_linear)"/><path d="M1197.73 257.926c.01 1.174.28 2.33.79 3.389a7.95 7.95 0 0 0 2.14 2.744 7.876 7.876 0 0 0 7.24 1.547c-5.95.224-4.72-16.429-3.85-34.56.95-19.359 1.79-40.413 2.64-44.44 1.61-7.591 8.61-5.077 8.99-4.941a8.392 8.392 0 0 0-9.93-1.662c-3.58 1.84-7.4 5.451-7.94 12.571-.78 10.726-.33 48.842-.08 65.352z" fill="#67354E"/><path d="M1197.73 257.926c.01 1.174.28 2.33.79 3.389a7.95 7.95 0 0 0 2.14 2.744 7.876 7.876 0 0 0 7.24 1.547c-5.95.224-4.72-16.429-3.85-34.56.95-19.359 1.79-40.413 2.64-44.44 1.61-7.591 8.61-5.077 8.99-4.941a8.392 8.392 0 0 0-9.93-1.662c-3.58 1.84-7.4 5.451-7.94 12.571-.78 10.726-.33 48.842-.08 65.352z" fill="url(#paint10_linear)"/><path d="M1177.79 94.36c4.15 6.704 9.87 24.795 9.95 73.589a1.034 1.034 0 0 0 1.02 1.029c.27-.002.53-.111.73-.304.19-.192.3-.453.3-.725-.08-43.431-4.63-63.158-8.87-72.104a60.605 60.605 0 0 0-3.13-1.486z" fill="#021340"/><path d="M1061.27 31.154c4.72 3.98 17.64 4.967 19.58 11.045 2.51 7.87 1.36 13.962 13.56 21.294 1.26.759 2.38 1.74 3.29 2.895 4.94 6.133 5.03 16.94 9.09 25.607 1.99 4.245 4.93 7.986 9.86 10.412.67.336 1.35.636 2.05.899 1.7.661 3.48 1.129 5.28 1.397 4.42.753 8.95-.266 12.62-2.835a17.238 17.238 0 0 0 5.53-6.76 19.5 19.5 0 0 0-.68-17.756c-7.27-12.946-15.84-13.86-16.42-32.55-.49-16.353-5.27-29.054-14.37-36.706-11.21-9.424-31.12-7.877-42.89 4.333a32.959 32.959 0 0 0-8.03 14.228c-.53 1.88.14 3.318 1.53 4.497z" fill="#2E1F0A"/><path d="M1067.8 12.43c.73-.294 25.91-10.078 33.96 4.878 8.18 15.168-4.05 34.478 7.2 47.48 11.24 13 31.05 30.375 15 39.915a17 17 0 0 0 12.61-2.835c2.4-1.741 4.3-4.068 5.54-6.76a19.621 19.621 0 0 0 1.79-8.96c-.12-3.086-.97-6.1-2.48-8.796-7.27-12.946-15.83-13.86-16.41-32.55-.5-16.353-5.27-29.054-14.38-36.706-11.14-9.424-31.05-7.877-42.83 4.333z" fill="#261704"/><path d="M1011.08 307.695a49.25 49.25 0 0 0 10.91 3.802l.68.164c2.69.575 5.41.98 8.15 1.212 7.36.56 14.76.189 22.02-1.103 2.73-.457 5.46-.886 8.27-1.268a285.034 285.034 0 0 1 47.12-2.909c11.99.347 22.95 1.71 31.61 4.333a6.16 6.16 0 0 0 5.42-.902 6.067 6.067 0 0 0 1.85-2.131 6.07 6.07 0 0 0 .71-2.731c.17-7.182-.49-17.968-1.95-30.383a406.168 406.168 0 0 0-7.68-44.086 302.97 302.97 0 0 0-3.77-14.459c-2.09.191-4.24.361-6.44.511-26.93 1.806-62 .293-86.39-7.897-.52-.174-1.03-.386-1.52-.634-.63-.324-1.23-.715-1.78-1.165l-.07-.055c-.14-.115-.28-.238-.41-.354l-.07-.068c-8.23 14.064-32.79 58.381-33.98 87.81-.1 2.539.54 5.053 1.84 7.238a13.105 13.105 0 0 0 5.48 5.075z" fill="url(#paint11_linear)"/><path d="M1101.76 289.808c22.15-13.287 25.58-30.764 24.17-43.806a16.786 16.786 0 0 0-5.09-10.218 16.816 16.816 0 0 0-10.44-4.623c-46.72-3.584-68.46-20.087-72.09-23.119.55.45 1.15.841 1.78 1.165.5.248 1 .46 1.52.634 24.61 8.265 60.11 9.73 87.13 7.843l1.52-.109 1.28-.13c.97-.075 1.94-.157 2.9-.245 1.36 4.681 2.61 9.539 3.77 14.459a406.642 406.642 0 0 1 7.65 44.113c1.45 12.415 2.12 23.167 1.95 30.383a6.336 6.336 0 0 1-.71 2.731 6.17 6.17 0 0 1-1.85 2.131 6.16 6.16 0 0 1-2.6 1.087c-.95.157-1.91.093-2.82-.184-8.67-2.624-19.62-3.987-31.61-4.334a285.33 285.33 0 0 0-47.13 2.909c-2.78.382-5.54.811-8.26 1.268a87.862 87.862 0 0 1-22.03 1.104 65.17 65.17 0 0 1-8.15-1.213l-.68-.164s39.49 2.494 79.79-21.682z" fill="url(#paint12_linear)"/><path d="M1073.54 396.807c.63 3.111 1.27 6.219 1.93 9.321.07.341.15.681.22 1.022l.23 1.022c.37 1.726.76 3.448 1.15 5.165.07.341.16.682.23 1.022l.24 1.022a479.921 479.921 0 0 0 5.75 22.486l4.88 7.073 4.77-7.059s.36-10.167 1.49-23.018c0-.333.05-.681.09-1.015l.09-1.035c.16-1.724.33-3.496.52-5.288 0-.341.08-.681.11-1.022.03-.341.07-.682.12-1.043.33-3.134.72-6.309 1.16-9.45-5.62.361-13.66.756-22.98.797z" fill="url(#paint13_linear)"/><path d="M1075.47 406.128c.07.341.15.681.22 1.022l.23 1.022c7.5-.068 14.09-.347 19.21-.681 0-.341.07-.682.11-1.022.03-.341.07-.682.11-1.043-5.22.348-12.09.648-19.88.702zm1.6 7.209c.07.341.16.682.23 1.022l.24 1.022a369.78 369.78 0 0 0 16.89-.524c0-.334.05-.682.09-1.016.03-.333.06-.681.09-1.035a374.7 374.7 0 0 1-17.54.531z" fill="#E6F5FF"/><path d="M1073.47 450.084l13.9.273h1.36l3.58.068c.5.011 1.01-.099 1.46-.319.46-.22.86-.545 1.16-.948.31-.404.52-.874.61-1.372.09-.499.06-1.011-.08-1.497l-.92-3.1-.4-1.302-1.2-4.04h-9.65l-11.3 5.383a3.585 3.585 0 0 0-1.99 4.016c.17.795.61 1.509 1.24 2.025s1.41.802 2.23.813z" fill="#162F71"/><path d="M1094.14 441.915l.4 1.301a7.413 7.413 0 0 0-4.15 2.577 7.457 7.457 0 0 0-1.66 4.591h-1.36c.02-1.965.7-3.867 1.92-5.402a8.823 8.823 0 0 1 4.85-3.067zm-10.75 2.432a.676.676 0 0 0 .37-.115.66.66 0 0 0 .29-.431c.04-.176 0-.36-.1-.51a22.745 22.745 0 0 0-4.09-4.524.666.666 0 0 0-.48-.124.693.693 0 0 0-.6.72c.01.173.09.335.22.453a22.102 22.102 0 0 1 3.8 4.225.701.701 0 0 0 .59.306zm-3.57 1.254c.12.007.24-.024.34-.089a.525.525 0 0 0 .18-.163c.05-.065.09-.14.11-.219a.656.656 0 0 0-.07-.469 21.5 21.5 0 0 0-3.54-4.293.62.62 0 0 0-.45-.157.657.657 0 0 0-.43.205.66.66 0 0 0-.16.448c.01.081.03.161.06.235a.58.58 0 0 0 .15.196 20.382 20.382 0 0 1 3.3 4.006.59.59 0 0 0 .22.215.55.55 0 0 0 .29.085z" fill="#738598"/><path d="M1156.77 407.321l6.76-12.136.68-1.192 1.74-3.121c.24-.443.38-.938.4-1.444.02-.507-.08-1.01-.29-1.47-.22-.46-.53-.864-.93-1.178-.4-.314-.87-.53-1.36-.63l-3.17-.641-1.37-.265-4.1-.859-4.54 8.517-.55 12.497c-.03.807.2 1.604.67 2.26a3.652 3.652 0 0 0 1.93 1.356 3.608 3.608 0 0 0 4.13-1.694z" fill="#162F71"/><path d="M1159.26 385.244l1.36.265a7.409 7.409 0 0 0 .34 4.869 7.406 7.406 0 0 0 3.28 3.615l-.68 1.192a8.781 8.781 0 0 1-3.86-4.233 8.816 8.816 0 0 1-.44-5.708zm-2.9 10.629a.717.717 0 0 0 .08-.381.77.77 0 0 0-.08-.257.673.673 0 0 0-.41-.332.642.642 0 0 0-.26-.025c-2.03.227-4.01.722-5.91 1.472-.16.07-.3.203-.37.37a.726.726 0 0 0 0 .523.694.694 0 0 0 .9.368c1.77-.69 3.62-1.148 5.51-1.363a.698.698 0 0 0 .32-.12.704.704 0 0 0 .22-.255zm-.56 3.748a.702.702 0 0 0 .09-.348.687.687 0 0 0-.07-.242.61.61 0 0 0-.37-.322.61.61 0 0 0-.25-.028c-1.86.125-3.69.499-5.45 1.11a.704.704 0 0 0-.22.122.714.714 0 0 0-.15.196.952.952 0 0 0-.06.239c0 .083.01.166.04.244.03.079.07.15.13.211.05.061.12.11.2.144a.61.61 0 0 0 .48.009c1.65-.558 3.36-.904 5.1-1.028.1-.002.21-.031.3-.085.09-.054.17-.13.23-.222z" fill="#4E667C"/><defs><linearGradient id="paint0_linear" x1="237.496" y1="98.995" x2="237.496" y2="269.708" gradientUnits="userSpaceOnUse"><stop stop-color="#5986FB"/><stop offset="1" stop-color="#2D4EF5"/></linearGradient><linearGradient id="paint1_linear" x1="215" y1="169.24" x2="215" y2="253.05" gradientUnits="userSpaceOnUse"><stop stop-color="#5986FB"/><stop offset="1" stop-color="#2D4EF5"/></linearGradient><linearGradient id="paint2_linear" x1="258.789" y1="98.995" x2="258.789" y2="269.708" gradientUnits="userSpaceOnUse"><stop stop-color="#456EDC"/><stop offset="1" stop-color="#1D3AD0"/></linearGradient><linearGradient id="paint3_linear" x1="217.723" y1="169.274" x2="217.723" y2="253.05" gradientUnits="userSpaceOnUse"><stop stop-color="#456EDC"/><stop offset="1" stop-color="#1D3AD0"/></linearGradient><linearGradient id="paint4_linear" x1="280.332" y1="189.197" x2="280.332" y2="246.344" gradientUnits="userSpaceOnUse"><stop stop-color="#365FC9"/><stop offset="1" stop-color="#0C27AF"/></linearGradient><linearGradient id="paint5_linear" x1="313.646" y1="72.852" x2="313.646" y2="128.193" gradientUnits="userSpaceOnUse"><stop stop-color="#5986FB"/><stop offset="1" stop-color="#2D4EF5"/></linearGradient><linearGradient id="paint6_linear" x1="1161.42" y1="353.668" x2="1161.42" y2="392.923" gradientUnits="userSpaceOnUse"><stop stop-color="#5986FB"/><stop offset="1" stop-color="#2D4EF5"/></linearGradient><linearGradient id="paint7_linear" x1="1190.77" y1="88.215" x2="1190.77" y2="278.099" gradientUnits="userSpaceOnUse"><stop stop-color="#5986FB"/><stop offset="1" stop-color="#2D4EF5"/></linearGradient><linearGradient id="paint8_linear" x1="1225" y1="179.104" x2="1225" y2="265.91" gradientUnits="userSpaceOnUse"><stop stop-color="#5986FB"/><stop offset="1" stop-color="#2D4EF5"/></linearGradient><linearGradient id="paint9_linear" x1="1173.48" y1="93.506" x2="1173.48" y2="278.099" gradientUnits="userSpaceOnUse"><stop stop-color="#456EDC"/><stop offset="1" stop-color="#1D3AD0"/></linearGradient><linearGradient id="paint10_linear" x1="1215.68" y1="179.063" x2="1215.68" y2="265.91" gradientUnits="userSpaceOnUse"><stop stop-color="#456EDC"/><stop offset="1" stop-color="#1D3AD0"/></linearGradient><linearGradient id="paint11_linear" x1="1147.85" y1="207.572" x2="1147.85" y2="313.126" gradientUnits="userSpaceOnUse"><stop stop-color="#5986FB"/><stop offset="1" stop-color="#2D4EF5"/></linearGradient><linearGradient id="paint12_linear" x1="1147.83" y1="208.042" x2="1147.83" y2="313.119" gradientUnits="userSpaceOnUse"><stop stop-color="#547DEA"/><stop offset="1" stop-color="#1B39CE"/></linearGradient><linearGradient id="paint13_linear" x1="1096.52" y1="396.01" x2="1096.52" y2="444.94" gradientUnits="userSpaceOnUse"><stop stop-color="#5986FB"/><stop offset="1" stop-color="#2D4EF5"/></linearGradient><clipPath id="clip0"><path fill="#fff" transform="rotate(-23.924 648.633 -691.116) skewX(.026)" d="M0 0h43.671v43.653H0z"/></clipPath></defs></svg>