<svg width="276" height="673" fill="none" xmlns="http://www.w3.org/2000/svg"><path d="M94.394 656.84h13.67l27.08-125.31 17.07-79s20.08-17 30.13-29.5a43.842 43.842 0 0 0 4.53-8.43c12.09-30.31-24.51-53.39-53.31-61-29.82-1.06-49.92-4.6-59.82-6.85 0 .49 0 1-.08 1.48-7.12 131.23 20.73 308.61 20.73 308.61z" fill="#162F71"/><path d="M77.384 671.19a4.118 4.118 0 0 0 3.48 1.77h24.54a4.01 4.01 0 0 0 2.992-1.319 3.992 3.992 0 0 0 1.008-3.111l-.1-.88-1.21-10.81h-13.67l-15.5 8.09a4.237 4.237 0 0 0-2.258 4.591 4.24 4.24 0 0 0 .718 1.669z" fill="url(#paint0_linear)"/><path d="M91.494 658.38l3.61 4.19a1.281 1.281 0 0 1-.35 1.95l-1.59.89a1.282 1.282 0 0 1-1.61-.32l-3.5-4.3a1.28 1.28 0 0 1 .4-1.94l1.48-.77a1.277 1.277 0 0 1 1.56.3zm-5.54 2.75l3.61 4.18a1.285 1.285 0 0 1 .318 1.086 1.274 1.274 0 0 1-.668.914l-1.59.88a1.284 1.284 0 0 1-1.61-.31l-3.5-4.3a1.29 1.29 0 0 1 .4-1.95l1.48-.76a1.29 1.29 0 0 1 1.56.26z" fill="#fff"/><path d="M104.424 671.57a3.78 3.78 0 0 0 .26 1.39h.72a4.01 4.01 0 0 0 2.992-1.32 3.989 3.989 0 0 0 1.008-3.11l-.1-.88a3.825 3.825 0 0 0-.84-.09 3.998 3.998 0 0 0-4 3.63c-.03.12-.04.25-.04.38z" fill="#60424C"/><path d="M77.384 671.19a4.118 4.118 0 0 0 3.48 1.77h24.54a4.006 4.006 0 0 0 3.32-1.77h-31.34z" fill="#60424C"/><path d="M135.145 531.53l17.069-79s20.081-17 30.131-29.5a43.952 43.952 0 0 0 4.53-8.43c-10.69-19.15-18.241-6-55.521-14.79 0 .02 12.081 48.86 3.791 131.72z" fill="#CA754F"/><path d="M56.624 171.86l7 26.6 8.92 33.71a439.21 439.21 0 0 1 2.82 46.64c.27 19-.25 41.35-1.66 67.94 9.91 2.21 30 5.79 59.83 6.91 18.757.648 37.535.341 56.26-.92 18.47-1.19 39-3.35 61.44-6.82a574.23 574.23 0 0 0 6.31-1s-49.51-199.71-133.88-289.82c0 0-64.14 13.15-102 40.41-9.06 23.04 4.08 74.05 34.96 76.35z" fill="url(#paint1_linear)"/><path d="M90.124 131.7s-14.66 21.26-34.32 28.13a3.79 3.79 0 0 0-2.18 5.23c5 10.23 17.58 38.57 19 67.11l17.5-100.47z" fill="#186CDB"/><path d="M63.653 198.46l8.92 33.71a439.247 439.247 0 0 1 2.82 46.64c35.35-65.06 28.92-144.17 28.92-144.17l-1.16-11.55-17.41 36.07-22.09 39.3z" fill="url(#paint2_linear)"/><path d="M109.394 342.84c7.57 22.88 124.44 314 124.44 314h13.67l-7.76-175.29-2.27-50.88s23.72-49.64 5.8-96.21a88.235 88.235 0 0 0-2.05-4.91 46.672 46.672 0 0 0-9.94 2.68c-12.58 4.91-21.34 14.09-32 18.32a30.657 30.657 0 0 1-9.44 2.19c-11.52.75-29.18-2-45.55-4.75-14.23-2.42-27.48-4.88-34.9-5.15z" fill="#DEA379"/><path d="M184.743 367.9c51.18 14.24 52.69 62.77 52.69 62.77s23.72-49.64 5.8-96.21l-12-2.23-14.42-2.68-17.56 21-14.51 17.35z" fill="#CA754F"/><path d="M276 24a6 6 0 0 0-6-6H109a6 6 0 0 0-6 6v647h173V24z" fill="#fff"/><path d="M90.124 131.7l1.6-9.87a21.367 21.367 0 0 1 9.43-14.49l5.33-3.46a2.638 2.638 0 0 1 4.008 1.566 2.632 2.632 0 0 1-.118 1.644l-4.06 10s5 15.52-6.43 21.08l-9.76-6.47z" fill="#EFA08D"/><path d="M14.914 216.55a231.022 231.022 0 0 0 9.87 22.3c3.34-.088 6.65-.65 9.83-1.67a27.867 27.867 0 0 0 12.61-8.43c16.12-18.73 9.4-56.89 9.4-56.89-3.87-8.81-8.2-17.21-12.85-26.32a516.531 516.531 0 0 1-22.09-50c-2.06 1.48-4.03 3-5.91 4.56-24.09 19.96-17.48 73.12-.86 116.45z" fill="url(#paint3_linear)"/><path d="M15.744 100.1a107.2 107.2 0 0 1 5.91-4.56c-1.27 1.07-30.7 26.91-1.75 92.51a8.754 8.754 0 0 0 6.027 4.966 8.754 8.754 0 0 0 7.593-1.826l23.11-19.33-9.4 56.89a27.995 27.995 0 0 1-12.6 8.42l-.28.08c-.54.167-1.09.327-1.65.48l-.49.12c-.69.17-1.39.32-2.12.45-.12 0-.26 0-.39.06-.62.1-1.25.18-1.9.25l-.61.07c-.78.07-1.57.13-2.39.16a231.022 231.022 0 0 1-9.87-22.3c-16.64-43.32-23.25-96.48.81-116.44z" fill="url(#paint4_linear)"/><path d="M24.744 238.85v.07a140.015 140.015 0 0 0 3.2 6c7.69 13.85 26.75 14 35.92 1.1a133.925 133.925 0 0 0 8.63-13.89c10.65-19.59 18.88-45 24.75-78.11a528.84 528.84 0 0 0 2.56-15.91l-9.76-6.45a153.685 153.685 0 0 1-33.5 40.16c-.66.56-1.34 1.11-2 1.65-20.49 16.34-35.06 36.94-29.8 65.38z" fill="#EFA08D"/><path d="M42.684 55.43l4.6 2.71 6 3.51 34.92-33s1.86-9.92-8.83-20.7c-4.73-4.76-11.5-7.19-18.44-7.71-9.38-.7-19 2.08-24.37 7.29a1.68 1.68 0 0 1-2.77-.71 6.388 6.388 0 0 1-.2-.78.8.8 0 0 0-1.48-.25c-5.03 8.97-15.37 33.69 10.57 49.64z" fill="#362808"/><path d="M42.683 55.43l4.6 2.71a40.773 40.773 0 0 0 6-9.63c10.07-21.84-8.81-20.28-7.57-32.76C46.953 3.27 60.853.22 60.853.22c-9.38-.7-19 2.08-24.37 7.29a1.68 1.68 0 0 1-2.77-.71 6.35 6.35 0 0 1-.2-.78.8.8 0 0 0-1.48-.25c-4.95 8.99-15.29 33.71 10.65 49.66z" fill="#2B1F04"/><path d="M85.743 31.78s-.3-6.4 3.25-5.48c3.55.92 8.42 14.51 2.84 16.84s-6.09-11.36-6.09-11.36zM49.484 55.83s-7.1-4.36-9.34-.81c-2.24 3.55 8.12 16.54 16.24 14.41 8.12-2.13-6.9-13.6-6.9-13.6z" fill="#EA8575"/><path d="M44.743 52.29l8.25 15.14a35.09 35.09 0 0 0 20.31 16.71 17.12 17.12 0 0 0 15-2.28 17.15 17.15 0 0 0 7.12-11.09 53.89 53.89 0 0 0-5-33.82l-7.39-14.57a6.3 6.3 0 0 0-7-3.21 23.84 23.84 0 0 1-11.58-.79 2.75 2.75 0 0 0-3.43 1.76c-2.54 8-10.37 19.25-14.25 22.3l-.13.11a7.78 7.78 0 0 0-1.9 9.74z" fill="#EFA08D"/><path d="M24.824 238.92a140.015 140.015 0 0 0 3.2 6c7.69 13.85 26.75 14 35.92 1.1a134.031 134.031 0 0 0 8.63-13.89c10.65-19.59 18.88-45 24.75-78.11-3.7 17.81-12.33 47.21-31.53 70.39-28.59 34.59-40.21 15.83-40.97 14.51zm19.92-186.63l8.25 15.14a35.09 35.09 0 0 0 20.31 16.71 17.121 17.121 0 0 0 15-2.28c-31.84.59-31.79-32.31-26.49-43.62 5.3-11.31 2.61-19.86 2.61-19.86a2.75 2.75 0 0 0-3.43 1.76c-2.54 8-10.37 19.25-14.25 22.3l-.13.11a7.78 7.78 0 0 0-1.87 9.74z" fill="#ED8B7B"/><defs><linearGradient id="paint0_linear" x1="109.427" y1="656.84" x2="109.427" y2="672.961" gradientUnits="userSpaceOnUse"><stop stop-color="#5986FB"/><stop offset="1" stop-color="#2D4EF5"/></linearGradient><linearGradient id="paint1_linear" x1="257.544" y1="55.1" x2="257.544" y2="353.99" gradientUnits="userSpaceOnUse"><stop stop-color="#5986FB"/><stop offset="1" stop-color="#2D4EF5"/></linearGradient><linearGradient id="paint2_linear" x1="104.771" y1="123.09" x2="104.771" y2="278.81" gradientUnits="userSpaceOnUse"><stop stop-color="#507AE9"/><stop offset="1" stop-color="#2340D6"/></linearGradient><linearGradient id="paint3_linear" x1="58.013" y1="95.54" x2="58.013" y2="238.85" gradientUnits="userSpaceOnUse"><stop stop-color="#5986FB"/><stop offset="1" stop-color="#2D4EF5"/></linearGradient><linearGradient id="paint4_linear" x1="56.634" y1="95.54" x2="56.634" y2="238.84" gradientUnits="userSpaceOnUse"><stop stop-color="#507AE9"/><stop offset="1" stop-color="#2340D6"/></linearGradient></defs></svg>