<svg width="570" height="590" fill="none" xmlns="http://www.w3.org/2000/svg"><path d="M279.661 83.92l1.476-.68-.88-1.296.88-12.024 25.03-50.254a18.738 18.738 0 0 1 8.813-6.03s6.146-8.622 14.798-11.912l17.721 1.248s6.912-.454 10.619.945c0 0 7.953 6.201 8.842 8.735l10.638 7.014s8.765 15.532 7.697 27.415l-13.702 45.205-.189 24.578 16.425 4.197 3.376 8.65h6.468l12.898 12.081s13.824 38.664-19.347 50.944h-6.147l-2.298 2.287-55.573 6.155-37.824-17.139-10.316-99.92.595-.2zm246.613 117.967s8.132 12.138 7.082 11.751c-1.049-.388-11.876-.53-11.876-.53l-8.208-9.283 13.002-1.938z" fill="#FF2E4C"/><path d="M211.586 550.333l-14.922 3.668 4.274-12.686 10.648-5.804v14.822zm26.771-137.913l11.46-6.334-2.146-26.951 12.917-35.525-9.532-24.106 12.368-27.962-24.254 8.281 3.848-30.279 77.218-41.556 42.789 63.951-45.276 87.811-77 103.059-11.442-54.999 9.05-15.39z" fill="#2E99B0"/><path d="M156.318 160.208L101.984 268.92a29.214 29.214 0 0 1-36.009 14.435 30.028 30.028 0 0 1-3.177-1.361l-1.286-.643a29.194 29.194 0 0 1-13.078-39.136l54.325-108.712a29.153 29.153 0 0 1 16.878-14.669 29.16 29.16 0 0 1 22.308 1.595l1.286.633a29.212 29.212 0 0 1 13.087 39.146z" fill="url(#paint0_linear)"/><path d="M156.316 160.208L101.982 268.92a29.222 29.222 0 0 1-36.009 14.435 29.862 29.862 0 0 1-.075-26.885l69.208-138.518a29.152 29.152 0 0 1 6.837 2.42l1.286.634a29.207 29.207 0 0 1 13.087 39.183v.019z" fill="url(#paint1_linear)"/><path d="M70.265 229.926l-4.946 9.897a2.674 2.674 0 0 1-3.281 1.314l-.293-.122-.114-.057a2.674 2.674 0 0 1-1.191-3.573l4.945-9.898a2.666 2.666 0 0 1 2.941-1.409c.218.048.427.124.624.227l.123.057a2.667 2.667 0 0 1 1.335 1.535 2.657 2.657 0 0 1-.143 2.029z" fill="url(#paint2_linear)"/><path d="M88.015 194.306l-12.293 25.429a2.645 2.645 0 0 1-3.272 1.314 1.748 1.748 0 0 1-.293-.123l-.114-.056a2.668 2.668 0 0 1-1.334-1.536 2.652 2.652 0 0 1 .143-2.028l12.293-25.429a2.658 2.658 0 0 1 3.565-1.191l.123.056a2.665 2.665 0 0 1 1.182 3.564z" fill="url(#paint3_linear)"/><path d="M242.962 169.425l-54.334 108.712a29.209 29.209 0 0 1-39.186 13.074l-1.286-.643a29.192 29.192 0 0 1-14.659-16.883 29.19 29.19 0 0 1 1.581-22.3l54.325-108.712a29.168 29.168 0 0 1 39.186-13.074l1.286.633a29.222 29.222 0 0 1 14.662 16.888 29.21 29.21 0 0 1-1.575 22.305z" fill="url(#paint4_linear)"/><path d="M242.963 169.425l-54.335 108.712a29.226 29.226 0 0 1-36.008 14.435 29.854 29.854 0 0 1-3.234-13.433 29.856 29.856 0 0 1 3.158-13.452l69.247-138.461a29.062 29.062 0 0 1 6.837 2.42l1.286.633a29.204 29.204 0 0 1 13.049 39.146z" fill="url(#paint5_linear)"/><path d="M156.902 239.209l-4.945 9.888a2.65 2.65 0 0 1-3.272 1.314 1.567 1.567 0 0 1-.293-.123l-.113-.056a2.64 2.64 0 0 1-1.338-1.534 2.65 2.65 0 0 1 .146-2.03l4.946-9.898a2.64 2.64 0 0 1 2.94-1.408c.217.046.426.119.625.217l.113.057a2.661 2.661 0 0 1 1.191 3.573z" fill="url(#paint6_linear)"/><path d="M174.651 203.561l-12.293 25.429a2.656 2.656 0 0 1-3.281 1.314l-.284-.123-.113-.057a2.664 2.664 0 0 1-1.192-3.573l12.293-25.42a2.658 2.658 0 0 1 2.941-1.418c.217.05.426.127.624.227l.114.057a2.643 2.643 0 0 1 1.334 1.535 2.648 2.648 0 0 1-.143 2.029z" fill="url(#paint7_linear)"/><path d="M451.316 309.106l-6.912 22.338a23.621 23.621 0 0 1-13.333 14.764 23.632 23.632 0 0 1-19.886-.641l-170.436-85.958L12.982 144.743a23.638 23.638 0 0 1-11.7-13.421 23.626 23.626 0 0 1 .986-17.775l21.636-45.725a23.635 23.635 0 0 1 22.95-13.48l174.161 11.58 1.059.066a84.962 84.962 0 0 1 42.552 14.794l100.99 69.557 11.811 8.13a23.498 23.498 0 0 1 7.565 8.508l64.688 124.234a23.626 23.626 0 0 1 1.636 17.895z" fill="url(#paint8_linear)"/><path d="M451.316 309.106l-6.913 22.338c6.676-49.157-51.166-60.066-82.759-102.586-31.592-42.521 3.953-78.519 3.953-78.519l11.81 8.13a23.498 23.498 0 0 1 7.565 8.508l64.708 124.234a23.626 23.626 0 0 1 1.636 17.895z" fill="#495560"/><path d="M451.316 309.106l-6.913 22.338c6.676-49.157-51.166-60.066-82.759-102.586-31.592-42.521 3.953-78.519 3.953-78.519l11.81 8.13a23.498 23.498 0 0 1 7.565 8.508l64.708 124.234a23.626 23.626 0 0 1 1.636 17.895z" fill="url(#paint9_linear)"/><path d="M385.295 47.072V69.41c0 .766 0 1.522-.104 2.269a25.885 25.885 0 0 1-13.598 20.599l-32.841-32.794a20.7 20.7 0 0 1 1.825-30.912l.946-.728a60.465 60.465 0 0 0 15.007-5.53 30.817 30.817 0 0 0 9.768-7.846c.047-.06.091-.124.132-.19v.672l.095 1.068a6.495 6.495 0 0 0 2.515 4.576c3.556 2.741 9.532 9.15 11.073 22.508a4.325 4.325 0 0 0 3.102 3.706 6.44 6.44 0 0 0 1.759.283l.321-.019z" fill="#EFA08D"/><path d="M388.804 42.894a3.999 3.999 0 0 1-3.508 4.178h-.341a6.452 6.452 0 0 1-1.759-.284 4.333 4.333 0 0 1-3.101-3.705c-1.542-13.358-7.518-19.767-11.073-22.508a6.497 6.497 0 0 1-2.516-4.576l-.094-1.068v-.671c.05-.578.238-1.136.548-1.626.051-.094.112-.183.18-.265a3.733 3.733 0 0 1 2.648-1.503 3.612 3.612 0 0 1 2.127.426c14.591 8.139 16.633 25.457 16.889 31.602z" fill="url(#paint10_linear)"/><path d="M366.958 12.283c.01.123.01.246 0 .369a3.12 3.12 0 0 1-.548 1.626 2.385 2.385 0 0 1-.132.189c-.19.246-.407.51-.643.785a32.145 32.145 0 0 1-9.088 7.023 60.458 60.458 0 0 1-15.006 5.53 99.183 99.183 0 0 1-14.024 2.222c-.491 0-.945.066-1.484.066a14.769 14.769 0 0 1-3.783-.53 13.875 13.875 0 0 1-3.706-1.644 13.682 13.682 0 0 1-3.206-2.836l-.284-.35a8.801 8.801 0 0 1-1.777-3.923 8.688 8.688 0 0 1 .737-5.435c.285-.618.601-1.22.946-1.806a26.993 26.993 0 0 1 3.347-4.434v-.047a39.45 39.45 0 0 1 1.891-1.89 28.253 28.253 0 0 1 9.456-5.54c-5.598 2.92-11.347 7.562-11.413 14.18-.151 13.064 44.699 4.282 43.242-5.965a9.793 9.793 0 0 0-3.489-6.04 25.933 25.933 0 0 1 8.047 6.352c.543.57.868 1.313.917 2.098z" fill="url(#paint11_linear)"/><path d="M318.364 15.924c.076-6.665 5.816-11.278 11.414-14.18a31.024 31.024 0 0 1 10.78-1.74c5.115.076 11.678.946 17.559 3.933a9.79 9.79 0 0 1 3.49 6.04c1.456 10.229-43.366 19.011-43.243 5.947z" fill="#2E2763"/><path d="M318.364 15.924c.076-6.665 5.815-11.278 11.413-14.18a31.028 31.028 0 0 1 10.78-1.74c5.116.076 11.679.946 17.56 3.933a9.793 9.793 0 0 1 3.489 6.04c1.457 10.229-43.365 19.011-43.242 5.947z" fill="#B9E1FF"/><path d="M387.924 122.235a6.854 6.854 0 0 1-4.728 6.503 18.904 18.904 0 0 1-5.57.946h-.057a19.728 19.728 0 0 1-3.167-.18 19.387 19.387 0 0 1-11.026-5.454l-21.872-22.074a58.75 58.75 0 0 0-11.404-8.952 34.664 34.664 0 0 0-2.156-3.96c-2.165-3.394-5.116-6.523-9.068-8.083-9.532-3.781-30.666-3.706-38.259 1.89-.691-1.673-7.991-19.851-5.91-30.25 2.184-10.918 17.276-28.19 24.235-33.162.36-.255.738-.51 1.107-.737a37.715 37.715 0 0 1 14.921-5.03c-.345.587-.66 1.19-.945 1.806a8.816 8.816 0 0 0 1.04 9.359l.284.35a14.014 14.014 0 0 0 10.676 4.982c.491 0 .945 0 1.484-.067a99.118 99.118 0 0 0 14.023-2.221l-.945.728a20.693 20.693 0 0 0-6.545 23.626 20.703 20.703 0 0 0 4.72 7.286l32.841 32.793 6.023 6.012a33.949 33.949 0 0 1 9.456 18.359l.738 4.433c.064.362.099.729.104 1.097z" fill="#162F71"/><path d="M377.597 129.721a19.631 19.631 0 0 1-3.168-.179 19.39 19.39 0 0 1-11.054-5.492l-21.872-22.074a58.751 58.751 0 0 0-11.404-8.952 34.811 34.811 0 0 0-2.155-3.96c-2.166-3.395-5.116-6.524-9.069-8.083a46.782 46.782 0 0 0-13.777-2.515 40.553 40.553 0 0 1-.057-7.175c9.617-1.749 20.321-7.78 28.16-1.446 13.229 10.72 22.487 59.791 44.396 59.876z" fill="#0F2663"/><path d="M322.771 9.95a7.79 7.79 0 0 1 3.158-5.852 13.308 13.308 0 0 1 7.073-3.006 16.18 16.18 0 0 1 2.241-.104c2.938 0 5.85.549 8.586 1.616a5.319 5.319 0 0 1 2.724 2.354 4.9 4.9 0 0 1 .529 1.636c.823 5.757-24.396 10.7-24.311 3.356z" fill="#D5EEFF"/><path d="M322.234 29.603a82.571 82.571 0 0 0-9.371 14.35 70.567 70.567 0 0 0-7.811 27.32c-2.196.451-4.449.55-6.676.292a109.068 109.068 0 0 1 10.789-43.135 75.882 75.882 0 0 1 4.095-7.562 8.802 8.802 0 0 0 1.778 3.923l.283.35a13.684 13.684 0 0 0 3.206 2.836 13.862 13.862 0 0 0 3.707 1.626z" fill="url(#paint12_linear)"/><path d="M382.76 195.044a295.6 295.6 0 0 1-2.052 21.099 422.063 422.063 0 0 1-17.683 75.787 126.133 126.133 0 0 0-23.707-17.867 68.589 68.589 0 0 0-73.085 1.749 138.317 138.317 0 0 0-27.044 24.011v-.085a52.615 52.615 0 0 1-.851-2.836c-9.457-34.977 18.77-65.18 34.372-96.016 9.305-18.396 8.983-34.032 6.761-44.497a46.184 46.184 0 0 0-5.078-13.877l39.489-39.344 2.175-2.165 11.886-11.93a34.664 34.664 0 0 1 2.156 3.96 58.767 58.767 0 0 1 11.404 8.953l4.321 4.348 17.551 17.716c2.982 3 6.864 4.942 11.054 5.53l.132.189c7.896 18.859 9.579 42.218 8.199 65.275z" fill="#FF2E4C"/><path d="M318.365 123.407l-.331.274-38.619 32.67a188.981 188.981 0 0 0-21.257-15.191c-57.285-35.724-144.384-57.277-144.384-57.277V71.688a591.408 591.408 0 0 1 65.786-.434c58.088 2.77 99.855 12.638 99.855 12.638l30.874 3.375 3.546 15.863 4.246 18.906.284 1.371zm207.909 78.519l-4.728 11.221h-.085c-2.449-.946-56.093-20.797-130.229-20.353 6.298-4.519 12.085-15.579 13.4-35.091.945-13.357-2.837-22.262-6.951-27.934-.009-.047 99.96 51.369 128.593 72.157z" fill="#FF2E4C"/><path d="M526.273 201.888l12.019-3.092a10.516 10.516 0 0 1 8.511 1.437l6.619 4.396a19.258 19.258 0 0 0 8.595 3.12l4.426.482a1.14 1.14 0 0 1 1.037 1.053 1.14 1.14 0 0 1-.867 1.196l-8.964 2.354a1.263 1.263 0 0 0-.938 1.077 1.265 1.265 0 0 0 .673 1.258l11.952 6.249a1.19 1.19 0 0 1-.737 2.24l-13.012-2.079a1.702 1.702 0 0 0-1.702 2.609l5.012 7.732a1.39 1.39 0 0 1-1.816 1.986l-8.047-4.273a2.074 2.074 0 0 0-2.823.885 2.07 2.07 0 0 0-.222 1.062l.36 6.372a1.97 1.97 0 0 1-1.447 1.996 1.96 1.96 0 0 1-1.303-.095 1.963 1.963 0 0 1-.957-.89l-2.941-5.672a15.986 15.986 0 0 0-6.421-6.617l-3.177-1.758a15.542 15.542 0 0 1-6.77-7.497l-1.788-4.263 4.728-11.268z" fill="#EFA08D"/><path d="M317.749 379.75c-20.415 38.201-44.509 77.347-64.584 108.485-23.565 36.565-41.607 62.089-41.607 62.089l-10.572-9.009c6.62-12.667 14.648-53.316 18.364-87.196 1.891-17.29 6.818-27.802 11.177-33.937 4.17-5.88 7.83-7.761 7.83-7.761l3.026 9.944c2.401 7.875 13.843 6.977 14.968-1.191l4.208-30.77s27.773-3.942 57.19-10.654z" fill="#162F71"/><path d="M308.351 329.497c-.246.189-4.34 3.365-15.99 16.807-12.028 13.878-37.607 31.432-37.607 31.432l-7.082 1.4c-1.248-23.435 1.569-47.484 3.347-59.669 20.889 19.804 56.547 10.238 57.332 10.03z" fill="#091F58"/><path d="M404.603 157.665c-1.314 19.512-7.101 30.572-13.399 35.091a11.35 11.35 0 0 1-8.444 2.287c1.38-23.056-.303-46.415-8.199-65.312l-.132-.189a19.29 19.29 0 0 0 8.794-.803 6.875 6.875 0 0 0 4.605-7.658 27.724 27.724 0 0 1 9.844 8.641c4.132 5.672 7.839 14.586 6.931 27.943z" fill="url(#paint13_linear)"/><path d="M384.898 352.477c-3.215 5.256-11.867 10.144-23.214 14.549-12.596 4.897-28.491 9.188-43.933 12.724-29.418 6.712-57.162 10.654-57.162 10.654l-5.834-12.668s7.565-5.218 16.482-12.223c7.385-5.832 15.659-12.903 21.125-19.209 11.649-13.442 15.744-16.618 15.99-16.808-.785.208-36.415 9.766-57.294-9.992a41.425 41.425 0 0 1-8.69-11.939l-.171-.34a61.812 61.812 0 0 1-2.988-7.364l1.05-1.201.7-.775 1.04-1.144a217.114 217.114 0 0 1 3.584-3.781l.766-.766 1.304-1.286c.521-.501 1.06-1.02 1.617-1.54l1.239-1.144c.586-.539 1.192-1.087 1.816-1.636.945-.822 1.891-1.654 2.837-2.476l1.002-.832a67.726 67.726 0 0 1 2.383-1.891l1.815-1.39c.445-.34.899-.68 1.362-1.011.463-.331.728-.539 1.097-.794 1.122-.813 2.273-1.61 3.451-2.392l1.003-.662a67.64 67.64 0 0 1 62.759-5.671 65.45 65.45 0 0 1 6.185 2.921l1.04.557 1.04.577.132.076.133.075 1.409.842c.775.463 1.551.945 2.335 1.427l1.504.945 1.475.946c1.261.832 2.522 1.701 3.782 2.609.454.312.946.633 1.353.945.671.492 1.352.993 2.023 1.503l1.551 1.201c.738.576 1.475 1.172 2.213 1.777l.246.198c.709.596 1.418 1.192 2.118 1.806.7.614 1.475 1.295 2.203 1.976 0 0 .047 0 .066.056a87.271 87.271 0 0 1 2.147 2.033c22.524 21.988 35.479 38.333 21.909 60.538z" fill="#162F71"/><path d="M260.56 390.404l-4.236 30.77c-1.126 8.168-12.567 9.066-14.969 1.191l-3.026-9.945-6.525-21.458a7.775 7.775 0 0 1 2.967-8.613 7.782 7.782 0 0 1 2.962-1.266l9.91-1.947 7.083-1.399 5.834 12.667z" fill="url(#paint14_linear)"/><path d="M211.587 550.333l9.182 29.673c2.43 7.875-7.565 13.528-13.059 7.402l-6.95-7.713-14.997-16.704a7.772 7.772 0 0 1-.953-9.056 7.79 7.79 0 0 1 2.144-2.402l8.161-5.955 5.872-4.264 10.6 9.019z" fill="url(#paint15_linear)"/><path d="M385.191 71.679a25.885 25.885 0 0 1-13.598 20.598l-32.841-32.793a20.7 20.7 0 0 1 1.825-30.912l.946-.728a60.469 60.469 0 0 0 15.007-5.53 30.817 30.817 0 0 0 9.768-7.846s-2.26 9.141-10.818 17.961a26.781 26.781 0 0 0-7.167 23.841 18.684 18.684 0 0 0 7.366 12.006c12.974 9.17 29.512 3.403 29.512 3.403z" fill="#E06855"/><path d="M305.098 78.466l-1.891-.066h-4.842a78.494 78.494 0 0 1 0-6.844c2.227.258 4.48.159 6.676-.293a40.493 40.493 0 0 0 .057 7.203z" fill="#040214"/><path d="M305.098 78.466l-1.891-.066h-4.842a78.494 78.494 0 0 1 0-6.844c2.227.258 4.48.159 6.676-.293a40.493 40.493 0 0 0 .057 7.203z" fill="url(#paint16_linear)"/><path d="M298.385 78.428c-7.206.303-14.099 1.712-17.787 4.406-.69-1.674-7.99-19.852-5.91-30.25 2.184-10.92 17.276-28.19 24.236-33.163.359-.255.737-.51 1.106-.737-.558.605-22.533 24.579-12.085 44.676 2.837 5.426 6.402 7.667 10.402 8.234a127.08 127.08 0 0 0 .038 6.834z" fill="#0F2663"/><path d="M352.426 129.722a26.287 26.287 0 0 1-9.333 11.088c-19.442 13.707-4.851 24.966-10.402 34.278-.207.347-.434.681-.681 1.002-3.357 4.339-9.267 4.112-15.054.17-6.884-4.661-13.588-14.568-15.621-28.246-3.678-24.74 18.127-38.305 7.773-55.538-6.147-10.21-30.08-.766-29.437-8.565.038-.32.104-.637.199-.945a6.792 6.792 0 0 1 2.714-3.536c3.848-2.836 11.044-4.282 18.562-4.603 2.326-.085 4.728-.067 6.988 0a48.823 48.823 0 0 1 14.373 2.618 16.182 16.182 0 0 1 3.782 2.165c3.603 2.704 6.137 6.683 7.868 10.399a46.837 46.837 0 0 1 2.354 6.21 6.628 6.628 0 0 0 4.066 4.339 20.81 20.81 0 0 1 12.293 12.951 22.408 22.408 0 0 1-.444 16.213z" fill="url(#paint17_linear)"/><path d="M341.503 27.844a31.15 31.15 0 0 1-12.719 4.51 19.079 19.079 0 0 0-13.238 7.562 41.98 41.98 0 0 0-2.639 4.027 82.687 82.687 0 0 1 9.371-14.35c1.233.34 2.504.517 3.783.53.492 0 .945 0 1.484-.067a99.148 99.148 0 0 0 13.958-2.212z" fill="#0F2A9F"/><path d="M322.234 29.603a82.63 82.63 0 0 0-9.371 14.35s-3.707-5.861-3.707-15.504a75.882 75.882 0 0 1 4.095-7.562 8.813 8.813 0 0 0 1.778 3.923l.283.35a13.7 13.7 0 0 0 3.206 2.835 13.863 13.863 0 0 0 3.716 1.608z" fill="#040214"/><path d="M322.234 29.603a82.63 82.63 0 0 0-9.371 14.35s-3.707-5.861-3.707-15.504a75.882 75.882 0 0 1 4.095-7.562 8.813 8.813 0 0 0 1.778 3.923l.283.35a13.7 13.7 0 0 0 3.206 2.835 13.863 13.863 0 0 0 3.716 1.608z" fill="url(#paint18_linear)"/><path d="M385.293 47.072h-.341a6.442 6.442 0 0 1-1.758-.284 4.329 4.329 0 0 1-3.102-3.705c-1.541-13.358-7.517-19.767-11.073-22.508a6.497 6.497 0 0 1-2.515-4.576l-.095-1.068v-.671c.05-.578.238-1.136.549-1.626.051-.094.111-.183.179-.265a3.725 3.725 0 0 1 2.648-1.503s-3.839.35-1.409 5.672c1.891 4.075 8.435 7.08 11.347 15.56 2.743 8.3.643 14.246 5.57 14.974z" fill="url(#paint19_linear)"/><path d="M365.597 15.338a32.155 32.155 0 0 1-9.087 7.023 60.465 60.465 0 0 1-15.007 5.53 99.14 99.14 0 0 1-14.023 2.222c-.492 0-.946.066-1.485.066a14.761 14.761 0 0 1-3.782-.53 13.866 13.866 0 0 1-3.707-1.644 13.702 13.702 0 0 1-3.206-2.836l-.283-.35a8.813 8.813 0 0 1-1.778-3.923 8.702 8.702 0 0 1 .737-5.436c.286-.617.601-1.22.946-1.805a26.944 26.944 0 0 1 3.348-4.434c-.464.634-5.012 7.015-2.639 11.675 2.506 4.906 7.423 8.706 27.111 4.282 14.467-3.223 22.439-9.529 22.855-9.84z" fill="url(#paint20_linear)"/><path d="M332.681 175.097c-.208.347-.435.682-.681 1.002-7.338 9.501-26.94-2.883-30.676-28.076-3.678-24.739 18.128-38.304 7.773-55.538-6.383-10.606-31.971 0-29.238-9.547a6.802 6.802 0 0 1 2.714-3.536c3.849-2.836 11.045-4.282 18.562-4.604 2.326-.085 4.728-.066 6.988 0a48.817 48.817 0 0 1 14.373 2.619 16.216 16.216 0 0 1 3.783 2.165c-.567-.218-13.522-5.247-13.465 4.566.056 10.039 20.283 14.236 11.526 26.091-19.422 26.402-14.042 69.055 8.341 64.858z" fill="url(#paint21_linear)"/><path d="M389.587 173.481c-4.217 12.639-3.537 19.275 1.617 19.275a11.35 11.35 0 0 1-8.444 2.287c1.38-23.056-.303-46.415-8.199-65.312l-.132-.189a19.29 19.29 0 0 0 8.794-.803 6.875 6.875 0 0 0 4.605-7.658 27.724 27.724 0 0 1 9.844 8.641s-4.038 4.178-13.049 3.724c-3.518-.179-4.643 3.876-2.771 10.796 2.43 9.113 10.146 22.073 7.735 29.239z" fill="url(#paint22_linear)"/><path d="M258.583 251.564c-23.328 19.294-21.928 38.191-20.302 45.3-9.456-34.977 18.771-65.18 34.373-96.016 9.305-18.396 8.983-34.032 6.761-44.497a188.945 188.945 0 0 0-21.257-15.191s21.853-12.592 13.352-34.032c-8.501-21.44-92.093-35.44-92.093-35.44s.057-.17.142-.482c58.089 2.77 99.856 12.639 99.856 12.639h.255c-.643 7.799 23.291-1.645 29.437 8.565 10.354 17.233-11.451 30.798-7.773 55.537 2.033 13.679 8.738 23.586 15.622 28.247 15.772 38.37-28.804 50.896-58.373 75.37zm262.851-38.456c-2.449-.945-56.093-20.797-130.228-20.353 6.298-4.518 12.085-15.579 13.399-35.09 0 0 2.137 24.304 37.985 30.09 28.916 4.67 76.565 24.257 78.844 25.353zM382.76 195.043a295.572 295.572 0 0 1-2.052 21.1c1.957-63.734-28.283-86.422-28.283-86.422a22.405 22.405 0 0 0 .548-16.193l10.402 10.474c2.982 3 6.865 4.942 11.054 5.53l.133.189c7.895 18.907 9.579 42.266 8.198 65.322z" fill="#990510"/><path d="M253.165 488.235c24.69-47.729 5.56-57.664-5.806-54.242-13.513 4.055-16.832-13.811-16.832-13.811 4.17-5.88 7.83-7.761 7.83-7.761l3.026 9.944c2.401 7.875 13.843 6.977 14.969-1.191l4.207-30.77s27.745-3.942 57.162-10.654c-20.387 38.201-44.481 77.347-64.556 108.485z" fill="#091F58"/><path d="M334.249 314.39a1.892 1.892 0 0 1 1.634 2.637 1.883 1.883 0 0 1-.793.889 100.036 100.036 0 0 0-31.8 21.96c-19.224 19.71-31.47 25.6-32.056 25.637 7.385-5.832 15.659-12.903 21.125-19.209 11.649-13.442 15.744-16.618 15.99-16.807-.785.208-36.415 9.765-57.294-9.992.87.661 16.16 12.289 33.796 7.817 15.422-3.885 30.202-11.741 49.398-12.932z" fill="#0F2663"/><path d="M240.749 259.609L12.982 144.743a23.638 23.638 0 0 1-11.7-13.421 23.626 23.626 0 0 1 .986-17.775l21.636-45.725a23.635 23.635 0 0 1 22.95-13.48l174.161 11.58c-12.293-.738-129.132-6.958-169.065 19.511-42.183 27.963-13.484 64.651 18.61 67.761 46.107 4.471 110.238-11.183 124.819 32.198 13.381 40.015 20.737 58.713 45.37 74.217z" fill="url(#paint23_linear)"/><path d="M113.764 71.688l-9.882-7.496a10.534 10.534 0 0 0-8.378-1.938l-7.763 1.503a19.191 19.191 0 0 1-9.144-.435l-4.265-1.257a1.145 1.145 0 0 0-1.02 2.013l7.356 5.625a1.257 1.257 0 0 1-.662 2.25l-13.56 1.125a1.201 1.201 0 0 0-.18 2.354l12.804 3.072a1.712 1.712 0 0 1 .567 3.072l-7.612 5.2a1.38 1.38 0 0 0 .946 2.524l9.077-.832a2.08 2.08 0 0 1 2.052 2.977l-2.836 5.73a1.966 1.966 0 0 0 3.026 2.372l4.917-4.112a15.84 15.84 0 0 1 8.463-3.611l3.603-.397a15.605 15.605 0 0 0 9.153-4.302l3.329-3.233.009-12.204z" fill="#EFA08D"/><path d="M248.089 409.131a.95.95 0 0 1 .208-.861 1 1 0 0 1 1.074-.313c.126.04.243.105.344.19 3.868 3.224 8.643 1.541 8.69 1.522a1.01 1.01 0 0 1 1.258 1.37c-.113.242-.317.43-.567.521-.246.085-5.92 2.08-10.667-1.891a1.017 1.017 0 0 1-.34-.538z" fill="url(#paint24_linear)"/><path d="M247.475 414.765a1.065 1.065 0 0 1 .208-.86 1.001 1.001 0 0 1 1.419-.123c3.877 3.223 8.643 1.541 8.69 1.522a.993.993 0 0 1 1.086.265 1.006 1.006 0 0 1-.06 1.421c-.098.09-.212.159-.336.204-.236.085-5.91 2.089-10.666-1.89a1.025 1.025 0 0 1-.341-.539z" fill="url(#paint25_linear)"/><path d="M250.329 395.49a.942.942 0 0 1 .208-.851 1.01 1.01 0 0 1 1.418-.132c3.868 3.223 8.643 1.541 8.69 1.531a1.008 1.008 0 0 1 1.258 1.37 1.01 1.01 0 0 1-.568.521c-.245.085-5.919 2.089-10.666-1.891a1.01 1.01 0 0 1-.34-.548z" fill="url(#paint26_linear)"/><path d="M249.715 401.133a.95.95 0 0 1 .208-.86 1.01 1.01 0 0 1 1.418-.133c3.877 3.233 8.643 1.551 8.69 1.532a1.003 1.003 0 0 1 1.291.6 1.003 1.003 0 0 1-.6 1.29c-.237.095-5.92 2.09-10.667-1.89a1.023 1.023 0 0 1-.34-.539z" fill="url(#paint27_linear)"/><path d="M207.984 571.584a1.002 1.002 0 0 1 .993-1.616c4.927 1.078 8.388-2.609 8.416-2.647a1.008 1.008 0 0 1 1.419-.066 1.003 1.003 0 0 1 .066 1.418c-.17.189-4.293 4.575-10.336 3.252a.948.948 0 0 1-.558-.341z" fill="url(#paint28_linear)"/><path d="M210.048 576.859a.937.937 0 0 1-.208-.4.93.93 0 0 1 0-.451.945.945 0 0 1 1.191-.765c4.927 1.077 8.388-2.609 8.416-2.647a1.01 1.01 0 0 1 1.659.25 1.006 1.006 0 0 1-.174 1.101c-.17.19-4.293 4.576-10.326 3.252a.943.943 0 0 1-.558-.34z" fill="url(#paint29_linear)"/><path d="M203.701 558.454a.95.95 0 0 1-.208-.861 1.004 1.004 0 0 1 1.192-.765c4.926 1.077 8.387-2.609 8.416-2.647a1.01 1.01 0 0 1 1.75.64 1 1 0 0 1-.266.721c-.17.189-4.293 4.575-10.326 3.252a1.006 1.006 0 0 1-.558-.34z" fill="url(#paint30_linear)"/><path d="M205.715 563.738a.99.99 0 0 1-.208-.86c.057-.26.214-.486.437-.63.224-.143.495-.192.755-.136 4.926 1.078 8.387-2.609 8.425-2.647a1.007 1.007 0 0 1 1.418-.057 1.001 1.001 0 0 1 .057 1.418c-.17.189-4.283 4.576-10.326 3.252a1 1 0 0 1-.558-.34z" fill="url(#paint31_linear)"/><defs><linearGradient id="paint0_linear" x1="45.37" y1="117.334" x2="45.37" y2="285.075" gradientUnits="userSpaceOnUse"><stop stop-color="#4266C5"/><stop offset="1" stop-color="#1F3CCB"/></linearGradient><linearGradient id="paint1_linear" x1="62.739" y1="117.952" x2="62.739" y2="285.073" gradientUnits="userSpaceOnUse"><stop stop-color="#1C53E4"/><stop offset="1" stop-color="#5672FF"/></linearGradient><linearGradient id="paint2_linear" x1="60.163" y1="226.019" x2="60.163" y2="241.291" gradientUnits="userSpaceOnUse"><stop stop-color="#5986FB"/><stop offset="1" stop-color="#2D4EF5"/></linearGradient><linearGradient id="paint3_linear" x1="70.572" y1="190.408" x2="70.572" y2="221.207" gradientUnits="userSpaceOnUse"><stop stop-color="#5986FB"/><stop offset="1" stop-color="#2D4EF5"/></linearGradient><linearGradient id="paint4_linear" x1="131.995" y1="126.504" x2="131.995" y2="294.292" gradientUnits="userSpaceOnUse"><stop stop-color="#4266C5"/><stop offset="1" stop-color="#1F3CCB"/></linearGradient><linearGradient id="paint5_linear" x1="149.385" y1="127.226" x2="149.385" y2="294.29" gradientUnits="userSpaceOnUse"><stop stop-color="#1C53E4"/><stop offset="1" stop-color="#5672FF"/></linearGradient><linearGradient id="paint6_linear" x1="146.804" y1="235.298" x2="146.804" y2="250.569" gradientUnits="userSpaceOnUse"><stop stop-color="#5986FB"/><stop offset="1" stop-color="#2D4EF5"/></linearGradient><linearGradient id="paint7_linear" x1="157.208" y1="199.654" x2="157.208" y2="230.462" gradientUnits="userSpaceOnUse"><stop stop-color="#5986FB"/><stop offset="1" stop-color="#2D4EF5"/></linearGradient><linearGradient id="paint8_linear" y1="54.289" x2="0" y2="348.093" gradientUnits="userSpaceOnUse"><stop stop-color="#5986FB"/><stop offset="1" stop-color="#2D4EF5"/></linearGradient><linearGradient id="paint9_linear" x1="348.559" y1="150.339" x2="348.559" y2="331.444" gradientUnits="userSpaceOnUse"><stop stop-color="#4A78EE"/><stop offset="1" stop-color="#203FDF"/></linearGradient><linearGradient id="paint10_linear" x1="366.412" y1="10.845" x2="366.412" y2="47.072" gradientUnits="userSpaceOnUse"><stop stop-color="#5986FB"/><stop offset="1" stop-color="#2D4EF5"/></linearGradient><linearGradient id="paint11_linear" x1="313.126" y1="1.658" x2="313.126" y2="30.093" gradientUnits="userSpaceOnUse"><stop stop-color="#5986FB"/><stop offset="1" stop-color="#2D4EF5"/></linearGradient><linearGradient id="paint12_linear" x1="298.376" y1="20.868" x2="298.376" y2="71.705" gradientUnits="userSpaceOnUse"><stop stop-color="#5986FB"/><stop offset="1" stop-color="#2D4EF5"/></linearGradient><linearGradient id="paint13_linear" x1="374.429" y1="121.081" x2="374.429" y2="195.141" gradientUnits="userSpaceOnUse"><stop stop-color="#5986FB"/><stop offset="1" stop-color="#2D4EF5"/></linearGradient><linearGradient id="paint14_linear" x1="231.469" y1="377.737" x2="231.469" y2="427.811" gradientUnits="userSpaceOnUse"><stop stop-color="#5986FB"/><stop offset="1" stop-color="#2D4EF5"/></linearGradient><linearGradient id="paint15_linear" x1="183.78" y1="541.314" x2="183.78" y2="590" gradientUnits="userSpaceOnUse"><stop stop-color="#5986FB"/><stop offset="1" stop-color="#2D4EF5"/></linearGradient><linearGradient id="paint16_linear" x1="298.291" y1="71.263" x2="298.291" y2="78.466" gradientUnits="userSpaceOnUse"><stop stop-color="#426FE4"/><stop offset="1" stop-color="#1D3ACE"/></linearGradient><linearGradient id="paint17_linear" x1="279.658" y1="74.77" x2="279.658" y2="179.28" gradientUnits="userSpaceOnUse"><stop stop-color="#5986FB"/><stop offset="1" stop-color="#2D4EF5"/></linearGradient><linearGradient id="paint18_linear" x1="309.156" y1="20.887" x2="309.156" y2="43.953" gradientUnits="userSpaceOnUse"><stop stop-color="#426FE4"/><stop offset="1" stop-color="#1D3ACE"/></linearGradient><linearGradient id="paint19_linear" x1="366.409" y1="10.866" x2="366.409" y2="47.072" gradientUnits="userSpaceOnUse"><stop stop-color="#4570E2"/><stop offset="1" stop-color="#1631B8"/></linearGradient><linearGradient id="paint20_linear" x1="313.089" y1="9.221" x2="313.089" y2="30.179" gradientUnits="userSpaceOnUse"><stop stop-color="#4570E2"/><stop offset="1" stop-color="#1631B8"/></linearGradient><linearGradient id="paint21_linear" x1="279.656" y1="74.742" x2="279.656" y2="179.292" gradientUnits="userSpaceOnUse"><stop stop-color="#426FE4"/><stop offset="1" stop-color="#1D3ACE"/></linearGradient><linearGradient id="paint22_linear" x1="374.429" y1="121.081" x2="374.429" y2="195.141" gradientUnits="userSpaceOnUse"><stop stop-color="#426FE4"/><stop offset="1" stop-color="#1D3ACE"/></linearGradient><linearGradient id="paint23_linear" y1="54.289" x2="0" y2="259.609" gradientUnits="userSpaceOnUse"><stop stop-color="#4A78EE"/><stop offset="1" stop-color="#203FDF"/></linearGradient><linearGradient id="paint24_linear" x1="248.059" y1="407.91" x2="248.059" y2="412.136" gradientUnits="userSpaceOnUse"><stop stop-color="#92B0FF"/><stop offset="1" stop-color="#7D93FF"/></linearGradient><linearGradient id="paint25_linear" x1="247.456" y1="413.544" x2="247.456" y2="417.774" gradientUnits="userSpaceOnUse"><stop stop-color="#92B0FF"/><stop offset="1" stop-color="#7D93FF"/></linearGradient><linearGradient id="paint26_linear" x1="250.301" y1="394.277" x2="250.301" y2="398.508" gradientUnits="userSpaceOnUse"><stop stop-color="#92B0FF"/><stop offset="1" stop-color="#7D93FF"/></linearGradient><linearGradient id="paint27_linear" x1="249.685" y1="399.91" x2="249.685" y2="404.145" gradientUnits="userSpaceOnUse"><stop stop-color="#92B0FF"/><stop offset="1" stop-color="#7D93FF"/></linearGradient><linearGradient id="paint28_linear" x1="207.754" y1="566.993" x2="207.754" y2="572.173" gradientUnits="userSpaceOnUse"><stop stop-color="#92B0FF"/><stop offset="1" stop-color="#7D93FF"/></linearGradient><linearGradient id="paint29_linear" x1="209.812" y1="572.266" x2="209.812" y2="577.448" gradientUnits="userSpaceOnUse"><stop stop-color="#92B0FF"/><stop offset="1" stop-color="#7D93FF"/></linearGradient><linearGradient id="paint30_linear" x1="203.464" y1="553.856" x2="203.464" y2="559.042" gradientUnits="userSpaceOnUse"><stop stop-color="#92B0FF"/><stop offset="1" stop-color="#7D93FF"/></linearGradient><linearGradient id="paint31_linear" x1="205.482" y1="559.142" x2="205.482" y2="564.327" gradientUnits="userSpaceOnUse"><stop stop-color="#92B0FF"/><stop offset="1" stop-color="#7D93FF"/></linearGradient></defs></svg>