<svg width="1440" height="640" fill="none" xmlns="http://www.w3.org/2000/svg"><path fill="#162F71" d="M0 0h1440v640H0z"/><path d="M1494.84 714.981c-9.17 87.842-53.09 161.17-131.75 219.986-78.67 58.816-168.79 80.583-270.37 65.313-101.574-15.282-182.149-64.167-241.721-146.662-59.572-82.494-87.83-172.246-84.775-269.253 3.055-97.008 26.349-198.598 69.882-304.772 43.533-106.173 122.581-156.205 237.144-150.094 114.56 6.111 213.46 37.428 296.71 93.952 83.25 56.524 127.17 130.616 131.75 222.277 4.58 91.661 2.29 181.412-6.87 269.253z" fill="#1E3778"/></svg>