<svg width="410" height="241" fill="none" xmlns="http://www.w3.org/2000/svg"><path d="M285.168 29.756c9.378 2.897 13.578-3.737 15.164-5.66-3.849-5.606 4.074-13.34-3.979-19.724-9.749-2.528-17.451 6.994-17.967 14.927-.571 8.533 6.782 10.457 6.782 10.457z" fill="#1E0C1C"/><path d="M32.295 223.697c.18 6.795 3.173 7.444 8.508 2.958l60.693-82.131c44.813 41.49 92.469 47.96 133.774 37.164-.166-.34-.316-.68-.476-.999-2.582-5.496-9.834-7.449-11.401-23.68-25.024-7.874-84.951-64.166-122.858-47.96-52.16 22.296-68.24 114.648-68.24 114.648z" fill="#0C1F50"/><path d="M32.295 223.697l-15.73 12.759a2.533 2.533 0 0 0 .582 4.208 2.548 2.548 0 0 0 1.64.183l21.8-3.796a2.799 2.799 0 0 0 1.756-1.223 2.785 2.785 0 0 0 .372-2.104l-1.577-7.139-8.843-2.888z" fill="#1E0C1C"/><path d="M285.172 29.75c.441-4.406 2.753-7.893 4.334-9.821l20.385-7.993 16.691 11.36 3.003 12.989.235 19.604h.04l7.182 7.373c-3.063 11.925-11.036 16.212-23.808 13.024l-.655-2.942-1.502-6.784c-17.797 7.913-18.618-3.103-21.105-6.02a1.895 1.895 0 0 0-.771-.595 3.904 3.904 0 0 1-2.072-1.718c-1.001-1.774-.56-4.402.951-6.8 2.147-3.402-1.211-8.672-2.758-17.645a14.922 14.922 0 0 1-.15-4.031z" fill="#BE654F"/><path d="M289.507 19.929a13.008 13.008 0 0 0 2.502 2.668 36.719 36.719 0 0 0 2.032 1.578c7.112 5.22 11.346 4.661 11.346 4.661a25.996 25.996 0 0 1 2.002 2.059c2.342 2.652 5.92 7.638 6.221 13.488-.065-1.498-.341-10.99 3.298-10.706 2.502.21 4.554 5.34 3.798 9.218a5.13 5.13 0 0 1-2.092 3.457 4.908 4.908 0 0 1-2.257.789c.421.519.909.98 1.452 1.369.263.191.542.358.835.5a2.664 2.664 0 0 0 2.663-.066l8.543 6.955h.04c.611-.3 7.848-4.067 10.16-14.768 2.412-11.16-4.384-23.53-10.855-24.414 0 0-.221-13.899-14.154-16.422-5.846-1.054-13.148.805-18.678 4.112-6.621 3.902-10.705 9.922-6.856 15.522zM19.637 226.245L1.325 236.302a2.537 2.537 0 0 0-.338 4.236c.448.345.998.464 1.564.462h22.281c.368 0 .731-.005 1.07-.145a2.794 2.794 0 0 0 1.723-2.58v-7.314c.115-4.926-2.402-6.674-7.988-4.716z" fill="#3F1F3C"/><path d="M19.638 226.245l7.662 4.716 77.004-67.143a203.493 203.493 0 0 0 4.799 6.614c34.088 45.007 77.074 60.035 117.808 58.451-.09-.365-.165-.729-.245-1.099-3.328-15.947 16.015-30.584 15.87-43.219-.105-8.867-1.952-17.215-1.286-23.88.145-1.448-18.017-2.368-17.857-3.696-22.737-13.074-88.51-48.704-118.504-41.465-36.58 8.837-85.251 110.721-85.251 110.721z" fill="#162F71"/><path d="M150.809 136.801l47.705 30.474s13.408 12.989 23.418 17.276c-.065-5.181.065-10.027.31-14.488a186.538 186.538 0 0 1-21.435-13.879l-3.364-4.116-.58 6.709-46.054-21.976z" fill="#0E245C"/><path d="M224.068 212.841c9.389 1.524 22.266 2.348 39.788 2.059 13.903-.235 25.474-2.343 35.089-5.726a172.353 172.353 0 0 0 28.872-18.729c13.553-10.916 23.638-22.865 28.718-33.971 24.784-54.184-19.519-93.222-19.519-93.222l-23.783 13c-19.709 15.546-26.991 40.675-42.04 57.746-19.308 21.916-47.811 22.98-47.811 22.98a217.573 217.573 0 0 0 .686 55.863z" fill="url(#paint0_linear)"/><path d="M93.394 216.918c.047.286.109.569.185.849a24.333 24.333 0 0 0 1.21 3.532C99.91 233.409 112.062 241 125.23 241h222.584c3.665 0 7.305-.537 10.775-1.711 79.276-27.017 49.352-103.153 25.254-121.043-.285-.215-.571-.41-.856-.604a1.983 1.983 0 0 0-.185-.13c-17.051-11.436-26.846 9.367-36.75 28.256-4.67 8.892-9.364 17.36-14.855 21.827a111.371 111.371 0 0 1-12.842 9.072c-32.531 19.623-66.744 16.431-96.417 7.903-14.975-4.311-28.793-9.991-40.624-14.767a1.375 1.375 0 0 0-.16-.065c-2.137-.87-4.199-1.694-6.196-2.498-37.977-15.027-77.42 31.473-81.363 43.283a12.24 12.24 0 0 0-.2 6.395z" fill="#FF6741"/><path d="M124.098 86.508a5.303 5.303 0 0 1 1.156-6.26l1.001-.9 17.392 2.084 20.99 39.871 35.574 20.673-.045.714-.416 5.875-.57 7.619-.135 1.998a5.32 5.32 0 0 1-7.382 2.318l-41.04-22.885a5.336 5.336 0 0 1-2.167-2.269l-24.358-48.838zm3.398-4.636l24.524 48.998-1.682 3.497 1.687-3.497-24.529-48.999z" fill="#2E374F"/><path d="M192.118 149.14s3.163 2.878 8.689 7.024a186.345 186.345 0 0 0 21.455 13.913c20.16 11.166 47.831 21.188 74.622 13.584-4.194-16.486-14.904-29.285-21.916-36.26-.255-.249-.501-.499-.741-.729-.24-.23-.42-.415-.636-.604-.215-.19-.5-.5-.76-.725l-.846-.779-.771-.695c-.61-.534-1.136-.999-1.561-1.343a63.51 63.51 0 0 0-1.201-.97 40.745 40.745 0 0 1-3.409 2.808c-12.782 9.492-31.4 12.49-63.28-1.664a121.04 121.04 0 0 1-4.319-1.998l-2.553 4.037-2.773 4.401z" fill="#BE654F"/><path d="M268.452 141.542s21.966 16.7 28.432 42.119a70.532 70.532 0 0 0 26.17-14.108 93.998 93.998 0 0 0 14.014-14.768 55.172 55.172 0 0 0 9.193-17.96c7.042-23.794-3.668-48.534-30.749-45.706-17.592 1.843-24.914 21.042-36.11 37.468-3.233 4.691-6.766 9.173-10.95 12.955z" fill="url(#paint1_linear)"/><path d="M197.443 140.697l-3.753-8.463a6.297 6.297 0 0 0-5.46-3.732l-12.202-1.114a1 1 0 0 0-.501 1.913l7.658 3.403s-1.962 14.487 8.933 16.436c7.653-.27 8.038-3.682 5.325-8.443z" fill="#BE654F"/><path d="M287.119 58.202a3.9 3.9 0 0 0 2.072 1.718c.303.13.568.334.771.595 4.094-1.35 2.322-6.05 1.406-3.972-.916 2.078-4.239 1.654-4.239 1.654l-.01.005z" fill="#AB5141"/><path d="M305.377 28.836a25.996 25.996 0 0 1 2.002 2.059l1.546-2.498a.567.567 0 0 0-.359-.85.57.57 0 0 0-.351.03l-2.838 1.26zm15.92 20.088l8.543 6.954h.04c.611-.3 7.848-4.066 10.16-14.767 2.413-11.16-4.384-23.53-10.855-24.415 0 0 2.913 1.14 5.17 5.466 3.518 6.694 1.556 32.442-13.058 26.762z" fill="#1E0C1C"/><path d="M311.067 66.535l1.512 6.784 5.83-15.846-7.342 9.062z" fill="#AB5141"/><path d="M221.932 184.56c33.612 9.662 73.07 12.49 109.265-16.985 5.505-4.467 10.185-12.935 14.854-21.827.27-2.978.332-5.971.185-8.957a55.18 55.18 0 0 1-9.194 17.959c-35.899 46.671-84.08 32.328-114.8 15.308a215.596 215.596 0 0 0-.31 14.502z" fill="url(#paint2_linear)"/><path d="M104.304 163.818a202.013 202.013 0 0 0 4.8 6.614l-.951-12.03a1.187 1.187 0 0 0-1.078-1.088 1.198 1.198 0 0 0-.79.207c-.23.16-.396.396-.47.667l-1.511 5.63z" fill="#0E245C"/><path d="M93.394 216.918c.047.286.109.569.185.849 40.789-28.865 93.589-21.587 144.708-14.543 34.033 4.687 66.179 9.123 92.729 2.468 35.745-8.952 47.726-36.019 51.485-57.201 2.002-11.291 1.931-22.137 1.341-30.245-.285-.215-.571-.41-.856-.604.636 8.118.756 19.193-1.291 30.734-3.719 20.907-15.555 47.685-50.879 56.527-26.4 6.615-58.466 2.198-92.423-2.498-51.164-7.034-103.995-14.313-145 14.513z" fill="#EF5A35"/><path d="M181.307 169.792c35.864 14.588 48.046 28.546 86.308 29.785 67.014 2.173 78.435-53.809 78.435-53.809-4.67 8.892-9.364 17.36-14.854 21.826a111.478 111.478 0 0 1-12.843 9.073c-32.531 19.623-66.744 16.431-96.417 7.903-14.979-4.321-28.798-9.987-40.629-14.778z" fill="#E9512C"/><path d="M268.452 141.541a73.41 73.41 0 0 1 6.506 5.845c7.007 6.995 17.717 19.789 21.911 36.26a70.532 70.532 0 0 0 26.17-14.108s-15.555-31.414-43.682-40.966c-3.188 4.706-6.721 9.188-10.905 12.969z" fill="url(#paint3_linear)"/><path d="M265.043 144.349l9.925 3.038c-.255-.25-.501-.5-.741-.73-.24-.23-.42-.414-.636-.604-.215-.19-.5-.5-.76-.725-.261-.224-.576-.544-.846-.779l-.771-.694a49.39 49.39 0 0 0-1.561-1.344c-.771-.635-1.201-.969-1.201-.969a49.438 49.438 0 0 1-3.409 2.807z" fill="#AB5141"/><path d="M143.037 82.207l20.409 39.406-11.115 7.919-24.334-48.92 15.04 1.595z" fill="#ADBFD0"/><path d="M18.331 232.849a.651.651 0 0 0-.065-.499c-1.871-3.287-1.206-5.286-1.2-5.306a.653.653 0 0 0-.396-.829.64.64 0 0 0-.494.018.64.64 0 0 0-.337.362c-.04.099-.906 2.532 1.291 6.399a.653.653 0 0 0 .653.323.66.66 0 0 0 .548-.478v.01zm-2.893 1.479a.651.651 0 0 0-.065-.499c-1.872-3.288-1.211-5.286-1.201-5.306a.657.657 0 0 0-.89-.811.64.64 0 0 0-.337.362c-.04.1-.91 2.532 1.292 6.399a.662.662 0 0 0 1.085.081.652.652 0 0 0 .116-.226zm-3.184 1.993a.65.65 0 0 0-.06-.499c-1.872-3.288-1.211-5.286-1.206-5.306a.649.649 0 0 0-.883-.815.652.652 0 0 0-.338.365c-.04.1-.911 2.533 1.291 6.4a.65.65 0 0 0 1.196-.155v.01z" fill="#B01A49"/><defs><linearGradient id="paint0_linear" x1="364.068" y1="63.252" x2="364.068" y2="214.957" gradientUnits="userSpaceOnUse"><stop stop-color="#5986FB"/><stop offset="1" stop-color="#2D4EF5"/></linearGradient><linearGradient id="paint1_linear" x1="308.409" y1="90.897" x2="308.409" y2="183.661" gradientUnits="userSpaceOnUse"><stop stop-color="#3C90FF"/><stop offset="1" stop-color="#2336E7"/></linearGradient><linearGradient id="paint2_linear" x1="346.313" y1="136.791" x2="346.313" y2="191.245" gradientUnits="userSpaceOnUse"><stop stop-color="#5986FB"/><stop offset="1" stop-color="#2D4EF5"/></linearGradient><linearGradient id="paint3_linear" x1="323.039" y1="128.572" x2="323.039" y2="183.646" gradientUnits="userSpaceOnUse"><stop stop-color="#255CEE"/><stop offset="1" stop-color="#1F3FE6"/></linearGradient></defs></svg>