<svg width="260" height="235" fill="none" xmlns="http://www.w3.org/2000/svg"><path d="M206.06 32.548l-21.559-5.47-15.328-5.442-6.973-.704 3.442-3.168h7.586l25.158 3.034 7.074 5.328.6 6.422z" fill="#E13A3A"/><path d="M220.205 50.167l-3.027 5.202-17.885 2.29-7.545 5.244-1.03-1.573.75-9.468 10.481-13.009 12.991 5.584 5.265 5.73z" fill="#2B4E3E"/><path d="M194.901 88.603a103.11 103.11 0 0 1-9.606 5.986l-8.191 25.767-5.307 16.685h-2.99s-1.039-41.768.329-48.694c.447-2.238 1.623-5.335 3.1-8.655.151-.023 7.163-6.222 13.339-5.41 3.116.411 10.019 3.91 13.306 5.41.444 2.193-2.363 6.7-3.98 8.911z" fill="#60424C"/><path d="M193.374 82.45a34.728 34.728 0 0 0-9.865-2.718 44.289 44.289 0 0 0-11.286-.05c3.933-8.848 9.99-19.276 9.99-19.276 2.695.59 14.614-5.273 17.574-5.275.013 0-.675 16.004-6.413 27.319z" fill="#446E5C"/><path d="M150.395 38.468l-.462-2.63-2.233.465-4.258-1.486-2.318-4.764-8.16-2.884.963-4.176 6.311-3.7 7.462 2.594 2.536 4.092 1.916 3.393.995-2.59 1.711-.089v5.113l-2.573 7.047-1.89-.385z" fill="#60424C"/><path d="M153.788 53.647c-5.711-10.142-3.395-15.179-3.395-15.179s3.699-.904 5.989 1.641c-.057.828 1.493 5.065 1.459 5.87-.13 3.163-1.225 5.566-4.053 7.668z" fill="#6A9C78"/><path d="M172.271 56.909l3.98-10.383 2.996-22.084-11.262-3.644-6.73 1.279-5.665 7.037-3.045 11.193V50.67l1.246 2.976 18.48 3.262z" fill="#6A9C78"/><path d="M172.27 56.908c-.15 5.39-.877 12.252-3.408 15.407-4.321 5.389-31.028 11.915-31.466 12.026-.439.112 0 0 .015 0 .815-3.96 15.593-18.878 19.859-23.593 1.433-1.586 8.066-8.864 13.411-8.864.956.514 2.067 2.657 1.589 5.024z" fill="#442330"/><path d="M137.418 84.326l1.22-2.36-2.752.362-1.075 2.193 2.607-.195z" fill="#60424C"/><path d="M128.891 167.242l-2.321-1.122-.579 4.864 2.012.236.888-3.978zm-83.116 24.786l-3.3.58 1.288-3.067 4.084-1.37-2.072 3.857z" fill="#EFA08D"/><path d="M72.001 104.741l10.712-23.626 15.874-13.353 2.089-2.246 5.437-1.476v4.332l1.643 14.878-15.959 21.491-16.841 4.584L72 104.741z" fill="#0074E4"/><path d="M108.507 95.486l10.87-13.158 1.106-5.579-1.098-7.146-1.42-2.335 2.189-7.483-1.727-6.138-1.352-3.831-.424-.461-6.529 1.033-3.541 10.104-6.291 8.526-1.706 12.335 6.122 15.333 3.801-1.2z" fill="#0074E4"/><path d="M128.891 167.242l-2.9 3.742s-2.002-8.954-4.611-15.913c-2.715-7.24-5.688-17.017-4.354-20.005 0 0-12.596 1.013-24.505-.096-11.634-6.164-5.842-13.335-4.743-16.995.968-3.226 7.85-7.414 12.474-6.584 7.158 3.059 28.096 12.29 29.857 16.359 2.759 6.478-1.218 39.492-1.218 39.492z" fill="#EFA08D"/><path d="M31.48 199.922a14.88 14.88 0 0 0-5.133 3.863L.667 233.809l-.46.526h253.786a6 6 0 0 0 6-6.004l-.087-111.961a.097.097 0 0 0-.048-.089.112.112 0 0 0-.051-.015.106.106 0 0 0-.052.013l-.321.109-23.948 8.166-30.477 10.383-12.773 4.355a15.265 15.265 0 0 1-4.413.806l-3.593.119-22.974.759c-.767.026-1.531.11-2.285.254-3.407.633-6.483 2.402-8.7 5.003l-12.386 14.564-9.902 11.628a14.923 14.923 0 0 1-6.07 4.268 15.285 15.285 0 0 1-7.43.863l-19.212-2.558a11.674 11.674 0 0 0-8.435 2.145l-25.238 18.486a15.178 15.178 0 0 1-8.967 2.92H37.809a15.234 15.234 0 0 0-6.329 1.373z" fill="url(#paint0_linear)"/><path d="M55.513 202.988l-5.987 2.917a16.861 16.861 0 0 1-11.943 1.059l-6.14-1.738-.93-.253a2.385 2.385 0 0 1-1.134-.711 2.275 2.275 0 0 1-.359-2.5c.194-.406.503-.749.891-.988l.03-.017c.035-.02.07-.043.106-.061.08-.051.16-.099.241-.142l.171-.099.444-.235.359-.177.033-.016a15.204 15.204 0 0 1 6.517-1.478h13.383a5.863 5.863 0 0 1 2.708.658l1.649.853c.274.142.502.355.66.615a1.614 1.614 0 0 1-.023 1.715 1.672 1.672 0 0 1-.676.598z" fill="url(#paint1_linear)"/><path d="M36.44 227.417l-3.011 6.837-.037.081H0l26.349-30.55a14.83 14.83 0 0 1 3.554-3.021 2.347 2.347 0 0 0-.891.988 2.275 2.275 0 0 0 .358 2.5c.3.339.694.586 1.135.711l.93.253-3.895 6.64a4.197 4.197 0 0 0-.12 4.023 4.308 4.308 0 0 0 1.376 1.581 4.465 4.465 0 0 0 1.977.765l.348.045a6.857 6.857 0 0 1 2.894 1.066 6.666 6.666 0 0 1 2.103 2.214 6.439 6.439 0 0 1 .322 5.867z" fill="url(#paint2_linear)"/><path d="M33.237 202.142l-1.794 3.084-.93-.253a2.385 2.385 0 0 1-1.134-.711 2.275 2.275 0 0 1-.359-2.5 2.34 2.34 0 0 1 .891-.987l.03-.018c.035-.02.07-.043.106-.061.08-.051.16-.099.241-.142l.171-.099.444-.235.304-.152.055-.025.033-.015c.295-.12.621-.147.933-.078.312.069.593.231.807.463a1.473 1.473 0 0 1 .203 1.729z" fill="url(#paint3_linear)"/><path d="M259.908 116.37v111.884a6 6 0 0 1-6 6H119.384l7.046-2.203a9.111 9.111 0 0 0 3.134-1.708 8.854 8.854 0 0 0 2.205-2.763 8.64 8.64 0 0 0 .44-6.851l-1.669-4.657-.66-1.823a8.628 8.628 0 0 1-.001-5.826 8.864 8.864 0 0 1 3.722-4.556l21.68-13.315a8.935 8.935 0 0 0 2.993-3.009 8.677 8.677 0 0 0 1.233-4.017 8.641 8.641 0 0 0-.807-4.118 8.867 8.867 0 0 0-2.663-3.291l-3.474-2.638a8.838 8.838 0 0 1-2.916-3.902 8.62 8.62 0 0 1-.376-4.815l4.505-21.539a15.016 15.016 0 0 1 5.192-2.003 14.85 14.85 0 0 1 2.285-.254l22.973-.759 3.594-.119a15.298 15.298 0 0 0 4.413-.806l12.773-4.355 30.477-10.383 23.947-8.167.478-.007z" fill="url(#paint4_linear)"/><path d="M99.736 193.616l23.986 5.024c2.371.496 4.831.408 7.158-.255a14.679 14.679 0 0 0 6.173-3.544l3.814-3.679c4.375-4.219.639-11.431-5.452-10.499l-10.821 1.661a6.507 6.507 0 0 1-2.214-.043l-18.815-3.631a6.474 6.474 0 0 0-4.165.585 6.249 6.249 0 0 0-2.87 3l-1.283 2.862a6.05 6.05 0 0 0 .172 5.298 6.219 6.219 0 0 0 1.786 2.085 6.414 6.414 0 0 0 2.53 1.136z" fill="url(#paint5_linear)"/><path d="M65.942 228.091l14.308-11.722a10.87 10.87 0 0 0 3.19-4.316c.68-1.675.922-3.488.704-5.277l-.52-3.953c-.557-4.535-6.75-5.713-9.01-1.714l-2.384 4.214a23.565 23.565 0 0 1-5.278 6.366l-8.453 7.161a4.677 4.677 0 0 0-1.583 2.716 4.6 4.6 0 0 0 .51 3.083l1.164 2.089a4.74 4.74 0 0 0 1.398 1.559 4.933 4.933 0 0 0 4.07.749 4.867 4.867 0 0 0 1.884-.955z" fill="url(#paint6_linear)"/><path d="M126.426 232.051l-7.046 2.284H89.558l29.596-15.396a25.74 25.74 0 0 1 11.382-2.867l1.669 4.657a8.61 8.61 0 0 1 .491 3.469 8.655 8.655 0 0 1-.93 3.382 8.871 8.871 0 0 1-2.206 2.763 9.102 9.102 0 0 1-3.134 1.708z" fill="url(#paint7_linear)"/><path d="M259.906 144.876l.087 83.453a6 6 0 0 1-6 6.006H119.382l7.046-2.271a9.121 9.121 0 0 0 3.134-1.709 8.85 8.85 0 0 0 2.205-2.762 8.649 8.649 0 0 0 .931-3.382 8.607 8.607 0 0 0-.491-3.469l-1.669-4.67a26.29 26.29 0 0 1 3.149.142l37.749 4.001a14.989 14.989 0 0 0 9.875-2.413c2.892-1.925 4.985-4.795 5.902-8.091l6.516-23.421a14.96 14.96 0 0 1 5.483-7.966 15.602 15.602 0 0 1 9.315-3.083h14.116c1.631.003 3.241-.36 4.705-1.061a10.598 10.598 0 0 0 3.74-2.98l18.106-22.905a8.957 8.957 0 0 1 3.156-2.518 9.179 9.179 0 0 1 3.971-.901h3.585z" fill="url(#paint8_linear)"/><path d="M137.886 163.777v7.311c0 1.215-.386 2.4-1.105 3.392a6.011 6.011 0 0 1-2.911 2.146l-5.286 1.826a3.192 3.192 0 0 1-1.67.115 3.142 3.142 0 0 1-1.489-.746l-.732-.653a1.25 1.25 0 0 1-.408-1.017 1.275 1.275 0 0 1 .556-.948 14.737 14.737 0 0 0 3.154-2.785l7.939-9.322a1.127 1.127 0 0 1 1.221-.326c.213.075.397.211.528.391.131.18.202.396.203.616z" fill="url(#paint9_linear)"/><path d="M185.487 148.976l-13.76 3.135a6.244 6.244 0 0 1-4.429-.633l-7.363-4.123a4.008 4.008 0 0 1-1.329-1.197 3.894 3.894 0 0 1-.662-1.642 3.841 3.841 0 0 1 .135-1.759 3.93 3.93 0 0 1 .906-1.527 14.837 14.837 0 0 1 2.284-.254l22.93-.759a.095.095 0 0 1 .075.028l2.942 2.924c.442.439.757.986.911 1.583a3.376 3.376 0 0 1-.033 1.814 3.442 3.442 0 0 1-.969 1.55 3.577 3.577 0 0 1-1.638.86z" fill="url(#paint10_linear)"/><path d="M236.628 129.556l-12.171 8.84a8.598 8.598 0 0 1-5.049 1.636h-14.9a1.4 1.4 0 0 1-.68-.175 1.358 1.358 0 0 1-.503-.481 1.31 1.31 0 0 1-.027-1.327l1.423-2.558c.194-.355.517-.626.906-.759l28.467-9.707a2.796 2.796 0 0 1 2.584.413c.323.245.583.559.761.918a2.524 2.524 0 0 1-.028 2.299 2.597 2.597 0 0 1-.783.901z" fill="url(#paint11_linear)"/><path d="M220.204 50.167a30.903 30.903 0 0 0-.979-.253l-.259-.063a28.17 28.17 0 0 0-2.552-.436c-.117-.015-.232-.03-.348-.04l-.351-.04-.579-.056h-.067a19.969 19.969 0 0 0-1.189-.063c-.26-.006-.52 0-.766 0h-.353a19.838 19.838 0 0 0-9.889 3.069 19.99 19.99 0 0 0-2.259 1.653l-.306.253c-.26.22-.501.446-.743.679-.169.162-.337.322-.519.476-.127.12-.26.238-.387.352-.184.167-.371.33-.555.486a45.535 45.535 0 0 1-4.658 3.502l-.304.198h-.018l-.26.16-.026.017-.41.254a31.97 31.97 0 0 1-1.716 1.012c-2.856 0-5.703-.31-8.489-.924a44.338 44.338 0 0 1-9.957-3.497 57.037 57.037 0 0 1-2.923-1.54 56.905 56.905 0 0 1-5.735-3.748 66.73 66.73 0 0 1-3.658-2.93 66.513 66.513 0 0 1-4.32-4.076 63.483 63.483 0 0 1-1.724-1.841 49.402 49.402 0 0 1-3.515-4.305c5.971-7.03 2.855-11.538 2.754-11.684 2.191-2.87 5.322-4.776 9.053-5.85 6.312-1.816 14.342-1.243 22.444 1.086a69.03 69.03 0 0 1 12.231 4.857 65.308 65.308 0 0 1 9.185 5.673c4.014 2.973 7.529 6.353 10.203 10.017a27.712 27.712 0 0 1 3.944 7.602z" fill="#6A9C78"/><path d="M122.703 64.457c-.48.145-1.467.185-2.544.254l-.655.043c-1.97.119-4.029.19-4.029.19v-.036c4.598-4.133 2.238-7.425 1.586-11.142-.425-2.429 0-3.677-.399-4.414.81.215 1.557.84 2.162 1.603 1.316 1.628 1 3.087 3.168 4.409.968.592 1.523.998 1.742 1.413.218.415.111.79-.211 1.362-.066.12-.115.248-.145.38-.454 1.765 1.168 5.371-.675 5.938z" fill="#EFA08D"/><path d="M115.465 64.916c-.198.177-.41.357-.634.537a6.508 6.508 0 0 0-2.336-.507 7.333 7.333 0 0 0-1.501-.015c-.091 0-.184.013-.28.025a10.5 10.5 0 0 0-1.184.183 10.8 10.8 0 0 0-.93.233c-.077.02-.155.045-.236.07a9.87 9.87 0 0 0-.483.163l-.228.083-.301.12-.226.095-.281.124a12.765 12.765 0 0 0-.768.385c-.12.066-.174.094-.26.145h-.023l-.26.152-.28.172a4.02 4.02 0 0 0-.26.174l-.278.188s-.366-1.266-4.039-1.745a7.451 7.451 0 0 0 2.814-3.444c1.254-3.158.587-11.697 6.68-13.54h.013a8.835 8.835 0 0 1 2.596-.35c2.609 0 3.536.55 3.879 1.178.4.737-.026 1.985.4 4.414.644 3.743 3.004 7.035-1.594 11.16z" fill="#264E86"/><path d="M120.155 64.718l-.413.481-2.201 2.563a6.221 6.221 0 0 0-2.708-2.31 15.8 15.8 0 0 0 .633-.536v.035s2.059-.07 4.03-.19l.659-.043zm-26.37 66.329c-.407 1.284-.83 2.601-1.264 3.933-3.087 9.466-6.711 19.661-9.237 23.837-5.26 8.69-37.51 33.211-37.51 33.211l-2.012-2.487s10.761-15.447 15.026-24.756c4.266-9.309 9.744-12.476 9.744-12.476a212.158 212.158 0 0 1-1.064-9.276c-.8-8.777-.808-15.83-.237-21.56 2.843-6.45 15.045-7.906 22.92-3.708 2.22 1.185 3.86 8.359 3.634 13.282z" fill="#EFA08D"/><path d="M102.511 106.23a107.874 107.874 0 0 0-5.608 14.723c-.823 2.74-1.903 6.27-3.116 10.094a38.188 38.188 0 0 0-8.578-5.419 45.335 45.335 0 0 0-11.71-3.545 56.352 56.352 0 0 0-1.59-.233 47.13 47.13 0 0 0-4.673-.38 57.078 57.078 0 0 1 1.174-7.291c.057-.253.114-.483.174-.719a.105.105 0 0 0 0-.025l.17-.661c0-.023 0-.043.019-.063l.156-.56c.07-.253.143-.506.218-.739l.132-.423c0-.021.013-.041.021-.064.05-.159.101-.316.156-.473.085-.253.174-.507.26-.76.085-.253.153-.415.23-.62l.18-.421a38.1 38.1 0 0 1 .353-.848c.275-.643.563-1.254.864-1.833l.07-.137.198-.37c.13-.253.26-.483.4-.716a25.507 25.507 0 0 1 2.993-4.153 27.181 27.181 0 0 1 2.196-2.206 41.186 41.186 0 0 1 3.765-2.966 65.427 65.427 0 0 0 5.478-4.304c2.29-2.74 5.226-8.61 8.29-6.045.332.279 6.477 6.584 6.812 6.865 2.739 2.421 3.162 9.522.966 14.292z" fill="#264E86"/><path d="M104.709 67.268a12.75 12.75 0 0 0-1.342 1.75l-.309-.284c.344-.379.714-.736 1.106-1.068.179-.137.355-.269.534-.393.006-.005.008-.007.011-.005z" fill="#0054D8"/><path d="M110.735 65.055l-.275.046-.094.017-.093.018-.125.025-.104.026h-.034a2.275 2.275 0 0 0-.259.066 4.333 4.333 0 0 0-.307.088c-.101.03-.199.064-.296.102-.096.038-.192.07-.288.11-.096.041-.187.077-.278.12a7.675 7.675 0 0 0-.519.273l-.259.15c-.094.053-.13.08-.192.126-.041.025-.08.052-.117.082-.073.05-.146.103-.216.159-.07.056-.163.13-.241.198l-.102.088-.09.081a.695.695 0 0 0-.078.074 2.402 2.402 0 0 0-.12.116l-.114.117a2.38 2.38 0 0 0-.171.19 2.065 2.065 0 0 0-.143.167v.012a.7.7 0 0 0-.081.097l-.02.027c-.055.064-.104.132-.153.198-.05.066-.115.157-.167.235-.052.079-.109.16-.158.241-.049.081-.104.165-.151.253l-.057.084-.026.045-.109.2a5.715 5.715 0 0 0-.181.365 3.75 3.75 0 0 0-.128.279 2.529 2.529 0 0 0-.085.195l-.021.05c-.036.089-.073.18-.104.271-.021.05-.039.101-.057.152a6.587 6.587 0 0 0-.117.34c-.036.114-.07.217-.101.329a4.012 4.012 0 0 0-.057.2c-.031.106-.06.215-.086.324-.044.18-.086.362-.125.544-.115.563-.202 1.13-.259 1.702a23.34 23.34 0 0 0-.12 2.821v.309c0 .167 0 .332.019.507.018.174.015.334.026.506.01.172.018.314.031.474 0 .055 0 .11.013.164 0 .154.026.309.039.461.023.24.049.479.075.717l.07.58c.021.168.044.337.07.506l.07.463a40.797 40.797 0 0 0 .403 2.213c0 .059.023.117.036.175l.039.175c.048.233.1.463.156.691.057.254.117.492.176.732.195.76.4 1.492.61 2.178l.374 1.205.286.897c.27.844.535 1.645.794 2.403.057.17.117.34.174.507.099.283.195.56.294.828.11.312.222.616.334.911.189.507.377.984.564 1.433a65.723 65.723 0 0 0-4.432 7.549 87.984 87.984 0 0 0-1.558 3.196c-3.221-5.627-8.479-10.02-12.36-12.735a57.513 57.513 0 0 0-3.713-2.39c5.95-5.27 8.472-10.013 12.706-17.473a23.129 23.129 0 0 1 1.698-2.588c.239-.316.48-.617.724-.902a16.954 16.954 0 0 1 2.597-2.487c-.392.333-.762.69-1.106 1.069l.309.284c.395-.62.844-1.206 1.342-1.75l.278-.188c.088-.06.179-.119.259-.174l.281-.173.259-.151h.024c.085-.051.173-.1.259-.145.086-.045.236-.127.353-.185.117-.058.278-.136.416-.2l.28-.124.226-.096.301-.12.229-.083c.166-.06.327-.114.482-.162.081-.025.159-.05.237-.07a11.365 11.365 0 0 1 1.84-.385l.273-.03.021.075z" fill="url(#paint12_linear)"/><path d="M43.763 189.541l-3.82 1.616c-.24.103-.453.259-.623.455-.17.196-.292.427-.356.676a1.646 1.646 0 0 0 .31 1.449l4.759 5.903c.22.278.528.477.877.563a1.64 1.64 0 0 0 1.046-.085c.33-.142.6-.387.769-.697.17-.31.227-.666.164-1.012l-1.106-6.391-2.02-2.477zm85.128-22.299l4.546-1.31c.301-.087.624-.074.918.036.294.109.542.31.708.572a1.379 1.379 0 0 1-.175 1.689l-5.364 5.571a1.884 1.884 0 0 1-2.718-.023 1.79 1.79 0 0 1-.447-.878l-.368-1.917 2.9-3.74z" fill="#264E86"/><path d="M92.522 129.128l-.366.625-1.781 3.039a.584.584 0 0 1-.513.291.583.583 0 0 1-.513-.291c-.89-1.565-2.596-5.424-2.913-12.282-.156-3.484-.241-6.895-.54-9.934-.041-.42-.085-.831-.137-1.236a24.155 24.155 0 0 0-1.08-5.024 10.248 10.248 0 0 0-1.241-2.489 6.48 6.48 0 0 0-1.182-1.292l.016-.015a33.33 33.33 0 0 0 1.54-1.615l.17-.195.079-.09a71.15 71.15 0 0 0 1.383-1.635c.278.253.538.522.78.808l.054.063c1.015 1.21 2.098 3.133 2.336 5.951.442 5.556.372 20.112 3.908 25.321z" fill="#446E5C"/><path d="M84.677 104.301l-.841 1.651-2.256 4.426a2.675 2.675 0 0 1-.695.863c-.29.238-.627.415-.99.52-.683.198-1.636.464-2.773.76a71.001 71.001 0 0 1-8.718 1.671c.057-.253.114-.484.174-.719a.105.105 0 0 0 0-.025l.171-.661c0-.023 0-.043.019-.064.051-.19.103-.374.155-.559.07-.254.143-.507.218-.74l.133-.423c0-.02.013-.04.02-.063.05-.159.102-.316.156-.473l.26-.76c.086-.253.153-.415.231-.621l.184-.433a30.598 30.598 0 0 1 1.218-2.681l.07-.137.197-.37c.13-.253.26-.483.4-.716 3.302.124 6.75-1.168 9.53-3.563.177-.155.354-.312.52-.474l.18-.172.017-.015a6.463 6.463 0 0 1 .478.44l.034.033.181.195c.125.145.26.296.364.453.044.056.086.112.125.17.039.058.124.18.184.274a9.503 9.503 0 0 1 .343.58c.054.101.106.202.155.306.05.104.089.18.13.273.016.031.031.064.044.097.013.033.06.131.086.197.104.243.203.497.296.76z" fill="url(#paint13_linear)"/><path d="M107.056 91.558a49.15 49.15 0 0 1-3.341 1.61A58.52 58.52 0 0 1 86.32 97.76l-.098.002a8.72 8.72 0 0 0-.78-.807c.312-.388.63-.793.951-1.21.59-.178 1.332-.416 2.191-.72A49.718 49.718 0 0 0 99.98 89.33a35.316 35.316 0 0 0 5.112-4.216c.195.76.4 1.491.61 2.177l.374 1.206c.052.164.104.326.153.488.049.162.088.274.132.408l.408 1.266.213.638c.01.089.047.175.075.261z" fill="#446E5C"/><path d="M132.044 84.653l-14.362 5.599a43.162 43.162 0 0 0 1.696-7.924c.654-5.318.446-11.19-1.838-14.566a6.227 6.227 0 0 0-2.708-2.31 6.511 6.511 0 0 0-2.337-.506 7.322 7.322 0 0 0-1.5-.015l-.281.025-.272.03c-.208.026-.429.061-.662.105l-.247.048c-.293.06-.605.136-.93.233-.077.02-.155.045-.236.07a9.867 9.867 0 0 0-.483.163l-.228.083-.301.12-.226.095-.281.124a12.765 12.765 0 0 0-.768.385c-.119.066-.174.094-.26.145h-.023l-.26.152-.28.172a4.062 4.062 0 0 0-.26.174l-.277.188-.104.111a13.61 13.61 0 0 0-1.239 1.639 16.255 16.255 0 0 0-2.295 5.553c-1.067 5.214.291 9.701 4.014 10.542.195.76.4 1.492.61 2.178l.374 1.205c.052.165.104.327.153.49.049.161.088.273.133.407l.407 1.266v.015l.382 1.132c.057.17.117.34.174.506.098.284.194.56.293.829.111.312.223.616.335.911.189.507.376.984.563 1.433 1.781 4.328 3.516 6.544 5.933 6.886 1.542.22 4.338-1.849 7.292-4.594 5.31-4.933 11.128-12.048 11.128-12.048l-.829-1.051z" fill="#EFA08D"/><path d="M119.379 82.328c.654-5.318.446-11.19-1.838-14.566a6.221 6.221 0 0 0-2.708-2.31s5.12 1.163 6.439 8.19c.581 3.12-.343 6.083-1.893 8.686z" fill="#446E5C"/><path d="M150.395 26.098l-.239 1.35-1.365 7.728s-.444.507-1.086 1.127c-1.072 1.059-2.7 2.512-3.756 2.717-1.69.33-2.937-1.628-3.999-2.251a.814.814 0 0 0-.127-.06c-.612-.229-1.708.09-2.178-.406a.837.837 0 0 1-.21-.481c-.283-2.087-1.254-3.006-3.282-4.847-1.121-1.013-1.282-2.568-1.181-3.798 1.781-1.41 4.081-3.971 6.272-3.518 1.47.304 2.454 1.502 3.085 2.672a10.86 10.86 0 0 1 .296.6c.046.101.106.253.153.354l.104.271c.018.049.036.094.052.142l.093.269a.58.58 0 0 0 .419.375.603.603 0 0 0 .549-.145l.195-.185a.7.7 0 0 0 .214-.53.699.699 0 0 0-.263-.51c-.473-.385-.995-.98-.802-1.652a1.052 1.052 0 0 1 .111-.263c.727-1.266 2.134.19 2.134.19l2.311 1.62a1.236 1.236 0 0 0 1.558-.106c.288-.253.56-.529.802-.772l.14.109z" fill="#60424C"/><path d="M150.495 25.718l-.26.253c-.241.253-.519.507-.802.773a1.21 1.21 0 0 1-.891.324 1.2 1.2 0 0 1-.654-.218l-2.311-1.62s-1.407-1.467-2.134-.19c-.438.777.156 1.478.691 1.914a.699.699 0 0 1 .263.51.699.699 0 0 1-.214.531l-.194.184a.598.598 0 0 1-.969-.23 10.19 10.19 0 0 0-.698-1.636l-.052-.091-.029-.05a3.07 3.07 0 0 0-.117-.206c-.63-1.05-1.557-2.051-2.887-2.325-1.199-.253-2.43.406-3.593 1.282-.958.722-1.866 1.593-2.671 2.23-.727.576-1.368.958-1.88.872-1.768-.299-1.846-2.213-.423-3.338.278-.234.539-.488.779-.76 1.874-2.083 5.548-6.948 9.024-7.584 3.85-.706 5.839.998 7.633 4.305a18.54 18.54 0 0 0 2.337 3.462l.085.096c.19.21.292.483.286.762-.007.28-.12.548-.319.75z" fill="#CE2525"/><path d="M150.398 38.468l-2.695-2.165c.641-.633 1.085-1.127 1.085-1.127l1.371-7.736.239-1.35 2.751.692c.107.149 3.215 4.657-2.751 11.686zm15.766 5.592l-.418-.059a26.172 26.172 0 0 0-5.234-.182 25.12 25.12 0 0 0-4.876.795c-.633.163-1.254.368-1.859.613-.13 3.173-.08 6.126.016 8.42a85.52 85.52 0 0 0 .298 4.642l-18.204 24.039 1.506 2.013c.119-.076 2.154-1.342 5.047-3.203a527.106 527.106 0 0 0 5.711-3.728c6.008-3.996 12.722-8.698 14.954-11.167 1.143-1.266 2.9-4.166 4.788-7.891.48-.945.965-1.942 1.454-2.98a123.85 123.85 0 0 0 3.881-9.23 27.135 27.135 0 0 0-7.064-2.082zm-32.787 38.863a9.305 9.305 0 0 0-3.152 1.403l-2.463 1.707a.398.398 0 0 0-.024.648.422.422 0 0 0 .234.091l2.466.188a.68.68 0 0 1 .341.122.642.642 0 0 1 .119.952l-1.838 2.132a.18.18 0 0 0-.02.21.192.192 0 0 0 .196.09l.826-.138a2.64 2.64 0 0 0 1.641-.965 2.16 2.16 0 0 1 1.438-.806l.901-.114c.49-.061.955-.246 1.35-.535a2.8 2.8 0 0 0 .903-1.116l1.093-2.438-1.505-2.013-2.506.582zm90.737 44.009l-2.926.6s-20.967-26.478-25.198-35.984a27.231 27.231 0 0 1-1.088-2.945c-.576-1.843-1.083-3.95-1.527-6.153-1.934-9.623-2.658-21.12-2.658-21.12a45.35 45.35 0 0 0 6.963-4.768 38.608 38.608 0 0 0 1.905-1.702c4.105-3.948 9.728-6.078 15.471-5.571a28.27 28.27 0 0 1 5.148.886c4.027 12.024-.828 24.817-4.431 31.907a61.284 61.284 0 0 1-1.69 3.105c-.904 1.55-1.511 2.423-1.511 2.423l.991 3.381 10.551 35.941z" fill="#60424C"/><path d="M175.693 38.468c-.655 2.474-1.506 5.077-2.467 7.663a27.129 27.129 0 0 0-7.067-2.071l-.418-.059a26.167 26.167 0 0 0-5.234-.182c-1.648.104-3.282.37-4.875.795-.633.163-1.254.368-1.859.613.034-.805.078-1.626.135-2.454a70.76 70.76 0 0 1 .324-3.441c.779-6.506 2.597-12.814 6.491-15.447a11.13 11.13 0 0 1 2.793-1.388 8.707 8.707 0 0 1 3.477-.423c6.241.54 10.909 8.053 8.7 16.394z" fill="#7BB288"/><path d="M221.19 127.532l-4.733 4.498a1.369 1.369 0 0 0-.241 1.69c.158.267.403.476.696.593.294.117.618.135.923.051l6.922-1.878c.333-.089.638-.256.89-.486.251-.23.442-.517.554-.835a2.03 2.03 0 0 0-.302-1.908l-1.773-2.325-2.936.6zm-52.383 9.499l-5.593 3.434a1.395 1.395 0 0 0-.581.701 1.356 1.356 0 0 0-.018.902c.097.295.292.549.554.723.261.174.575.258.892.239l7.173-.425c.344-.021.678-.123.972-.298.295-.175.541-.417.718-.705a2.02 2.02 0 0 0 .109-1.927l-1.236-2.634-2.99-.01z" fill="#264E86"/><path d="M139.229 34.591a13.96 13.96 0 0 1-1.529.552h-.016a1.01 1.01 0 0 1-.81-.099c-.641-.4-1.248-.847-1.817-1.34a.951.951 0 0 1-.169-1.297 11.191 11.191 0 0 1 1.758-1.81l.093-.078a1.002 1.002 0 0 1 1.327.04l.044.046c.132.13.26.254.369.395a6.688 6.688 0 0 1 1.298 2.431.955.955 0 0 1-.054.68.992.992 0 0 1-.494.48z" fill="#132238"/><path d="M143.442 25.05c-.037.04-.486.541-1.122 1.266-1.108 1.266-2.788 3.239-3.842 4.68a5.633 5.633 0 0 0-.369-.396l-.044-.045a1.006 1.006 0 0 0-1.319-.048c.088-.084.956-.917 2.215-2.004 1.259-1.086 0 0 0 0a55.908 55.908 0 0 1 3.157-2.532c.109-.08.218-.162.329-.238.331-.235.662-.462.995-.684z" fill="#071019"/><path d="M211.861 18.433c-.483 3.545-1.864 9.622-5.802 14.115-13.158-9.742-31.697-15.113-43.861-11.616a8.637 8.637 0 0 1 .392-4.682c.055-.147.112-.302.172-.456.742-1.955 1.765-4.508 2.879-6.837l.21-.436c.06-.124.122-.253.182-.367a9.603 9.603 0 0 1 2.609-3.216 32.859 32.859 0 0 1 4.601-3.087 7.356 7.356 0 0 1 5.729-.542c1.299.408 2.978.957 4.954 1.64.797.274 1.641.573 2.523.89 6.127 2.2 14.121 5.389 21.406 9.286.61.326 1.218.658 1.817.995a4.366 4.366 0 0 1 1.766 1.832 4.23 4.23 0 0 1 .423 2.48z" fill="#FFA258"/><path d="M206.046 32.538l-.016-.013c-13.155-9.737-31.674-15.088-43.832-11.593a8.637 8.637 0 0 1-.158-1.644v-.357c0-.1 0-.205.018-.306v-.043c0-.068.013-.137.021-.205l.023-.21v-.079c0-.099.029-.197.044-.296 0-.033.013-.066.019-.099.015-.084.033-.167.052-.253.018-.086.044-.198.07-.294.026-.096.039-.154.062-.233l.016-.058a8.989 8.989 0 0 1 .202-.61c.042-.11.112-.302.171-.456 2.077-1.056 6.535-3.003 10.455-2.621 5.86.572 14.799 3.054 32.853 19.37z" fill="#446E5C"/><path d="M166.988 11.851a.809.809 0 0 1-.548.65 6.332 6.332 0 0 0-2.188 1.276 6.15 6.15 0 0 0-1.491 2.017s-1.243 1.405-2.033-.188l-.038-.078c-.738-1.603-.86-2.512 1.505-4.135.172-.12.356-.254.556-.368a22.834 22.834 0 0 1 3.307-1.797.728.728 0 0 1 .66.055.7.7 0 0 1 .324.562c.031.67.012 1.34-.054 2.006z" fill="#ED6363"/><path d="M203.458 14.267a19.1 19.1 0 0 1-.637 4.85.999.999 0 0 1-.194.374 1.033 1.033 0 0 1-.748.377 1.064 1.064 0 0 1-.426-.063l-6.49-2.413a1.032 1.032 0 0 1-.522-.437.99.99 0 0 1-.127-.66c.114-.716.205-1.398.28-2.026a.154.154 0 0 0 0-.03c.119-1.013.19-1.91.234-2.583a1.002 1.002 0 0 1 .481-.781 1.062 1.062 0 0 1 .931-.088l6.555 2.533c.196.074.364.204.482.373.118.17.181.37.181.574z" fill="#446E5C"/><path d="M206.024 32.52a29.357 29.357 0 0 0-.455-.332l-.465-.334-.519-.375-.503-.347c-.177-.121-.356-.253-.538-.362-.309-.205-.623-.41-.937-.613a50.341 50.341 0 0 0-1.641-1.013 69.34 69.34 0 0 0-10.117-5.004c-.304-.124-.61-.253-.917-.357a65.631 65.631 0 0 0-6.49-2.102l-.392-.103a57.885 57.885 0 0 0-3.209-.737l-.439-.086a50.197 50.197 0 0 0-6.675-.826c-3.793-.202-7.365.109-10.509 1.013a8.478 8.478 0 0 1-.158-1.643v-.357c1.331-1.034 4.034-2.556 8.409-2.568 8.487-.03 23.326 6.445 35.526 16.123l.029.023z" fill="#E13A3A"/><path d="M193.573.962v1.43a18.133 18.133 0 0 0-1.888-.017c-1.648.063-3.977.36-5.234 1.461-.882-.316-1.726-.615-2.523-.889.727-.663 2.619-1.937 6.602-2.081 1.015-.033 2.032 0 3.043.096z" fill="#ED6363"/><path d="M194.433 1.028l-.049.294-.26 1.537a.633.633 0 0 1-.262.414.657.657 0 0 1-.486.113l-2.126-.332a.653.653 0 0 1-.37-.192.63.63 0 0 1-.173-.373v-.043l-.148-1.471V.782a.623.623 0 0 1 .184-.508.657.657 0 0 1 .517-.188l2.612.213a.663.663 0 0 1 .439.248.618.618 0 0 1 .122.48z" fill="#FF7128"/><path d="M222.308 72.855a71.586 71.586 0 0 1-1.599 9.035 1.836 1.836 0 0 1-.389.75 1.885 1.885 0 0 1-.69.506 1.943 1.943 0 0 1-1.678-.071 20.894 20.894 0 0 0-2.176-.993 25.3 25.3 0 0 0-7.09-1.592 34.54 34.54 0 0 0-6.203.05 39.688 39.688 0 0 0-9.102 1.92c-1.934-9.623-2.658-21.12-2.658-21.12s.667-.352 1.716-1.013l.41-.253.026-.018.26-.16h.018l.303-.197a45.426 45.426 0 0 0 4.663-3.484c.185-.157.371-.32.556-.487.13-.114.259-.233.387-.352.171-.154.34-.313.519-.476a20.589 20.589 0 0 1 3.313-2.583 20.584 20.584 0 0 1 2.977-1.55 19.722 19.722 0 0 1 8.025-1.536c.26 0 .52.017.779.032.138 0 .273.018.41.03h.068l.579.057.35.04c.117 0 .231.025.348.04a27.986 27.986 0 0 1 2.552.436c.091.018.182.04.26.063.33.074.654.155.979.254 2.824 7.7 2.824 16.12 2.087 22.672zM62.473 112.29l-.245-.083c2.797-7.825.914-14.333.896-14.399l.26-.07c.008.065 1.913 6.651-.911 14.552zm3.969-1.701l-.26-.036a30.24 30.24 0 0 0-.446-11.114l.26-.066c.843 3.681.995 7.481.447 11.216z" fill="#446E5C"/><path d="M66.4 111.503c.376 0 .68-.399.68-.892 0-.492-.304-.891-.68-.891-.376 0-.68.399-.68.891 0 .493.304.892.68.892z" fill="#6A9C78"/><path d="M66.403 109.717a.524.524 0 0 0-.125.018 1 1 0 0 1 .405.362.96.96 0 0 1 0 1.029 1 1 0 0 1-.405.362.654.654 0 0 0 .125.015c.376 0 .68-.4.68-.892 0-.491-.304-.894-.68-.894z" fill="#4B7D58"/><path d="M62.347 113.141c.376 0 .68-.399.68-.891s-.304-.892-.68-.892c-.376 0-.68.4-.68.892s.304.891.68.891z" fill="#6A9C78"/><path d="M62.336 111.356a.493.493 0 0 0-.138.02 1 1 0 0 1 .397.363.968.968 0 0 1-.397 1.384.458.458 0 0 0 .138.018c.376 0 .68-.4.68-.891s-.293-.894-.68-.894z" fill="#4B7D58"/><path d="M64.874 107.892c.024.187-.417.395-1.038.506-.104.02-.213.036-.325.048-.778.089-1.422-.017-1.448-.235-.026-.218.579-.469 1.355-.557l.15-.013c.715-.056 1.283.048 1.306.251z" fill="#6A9C78"/><path d="M64.45 107.955c.019.152-.22.317-.604.446-.104.02-.213.035-.325.048-.779.088-1.422-.018-1.448-.236-.026-.217.578-.468 1.355-.557l.15-.012c.504.025.852.139.873.311z" fill="#4B7D58"/><path d="M104.715 67.26a4.197 4.197 0 0 0-.535.393c-.392.333-.762.69-1.106 1.069-.371.397-.795.896-1.272 1.52-.23.293-.47.614-.719.964-1.379 1.93-3.095 4.753-5.058 8.843-.418.871-.857 1.742-1.298 2.603-.26.476-.5.952-.76 1.423a90.29 90.29 0 0 1-1.332 2.353l-.455.76c-.15.253-.306.506-.46.76-.152.252-.306.506-.461.759l-.465.74c-.156.252-.312.486-.467.726-.156.24-.312.481-.468.717-.155.235-.314.47-.47.701-.155.23-.311.461-.467.689l-.169.253c-.254.37-.509.733-.763 1.09l-.231.32a73.978 73.978 0 0 1-2.3 3.024c-.26.322-.52.636-.78.935-.259.299-.459.537-.682.79l-.171.195a32.198 32.198 0 0 1-1.54 1.615l-.015.016-.019.015-.179.172c-2.855 2.697-6.542 4.168-10.055 4.036-.132 0-.26-.012-.394-.022h-.026c-.13 0-.26-.021-.39-.036l-.296-.038c-.078 0-.156-.02-.233-.035-.078-.015-.18-.028-.26-.046a10.975 10.975 0 0 1-.771-.175l-.226-.063a6.17 6.17 0 0 1-.452-.139l-.26-.096a6.403 6.403 0 0 1-.617-.254c-.203-.096-.468-.217-.696-.341l-.075-.043a7.208 7.208 0 0 1-.24-.135 8.28 8.28 0 0 1-.778-.504c-.101-.073-.22-.157-.327-.24l-.06-.048c-.08-.064-.16-.127-.241-.198a.468.468 0 0 1-.08-.066 3.976 3.976 0 0 1-.23-.2c-.137-.119-.259-.253-.4-.374-.14-.122-.199-.203-.298-.309-.098-.107-.153-.165-.226-.254-.072-.088-.093-.103-.137-.157l-.172-.207a9.507 9.507 0 0 1-.36-.469c-.089-.121-.177-.253-.26-.37a6.574 6.574 0 0 1-.234-.357.82.82 0 0 1-.067-.108 12.171 12.171 0 0 1-.493-.86 13.593 13.593 0 0 1-.45-.94 6.976 6.976 0 0 1-.181-.424l-.013-.03a18.84 18.84 0 0 1-.177-.461c0-.023-.018-.046-.026-.069a19.252 19.252 0 0 1-.179-.506l-.122-.375-.117-.37a24.265 24.265 0 0 1-.298-1.012 20.234 20.234 0 0 1-.151-.552c-.05-.183-.093-.362-.138-.54a24.52 24.52 0 0 1-.121-.522 18.214 18.214 0 0 1-.208-1.012 22.213 22.213 0 0 1-.218-1.395c-.019-.15-.034-.294-.05-.439-.077-.728-.1-1.461-.07-2.193 0-.078 0-.154.013-.23.013-.076 0-.216.026-.32a8.42 8.42 0 0 1 .146-.997c.018-.078.033-.154.052-.228a5.993 5.993 0 0 1 .327-1.013c.023-.06.052-.119.078-.177a3.34 3.34 0 0 1 .083-.17c.028-.055.036-.066.057-.099.253-.49.63-.912 1.093-1.225a2.529 2.529 0 0 1 1.934-.344c1.8.387 3.292-.935 5.335-2.996 1.66-1.677 3.681-3.84 6.524-5.974 6.091-4.578 13.386-7.546 19.342-8.38a21.256 21.256 0 0 1 4.64-.187c.306.025.594.056.864.089l.317.043c3.338.514 3.684 1.712 3.684 1.712z" fill="#6A9C78"/><path d="M101.062 71.214c-1.379 1.93-3.095 4.753-5.058 8.842a111.24 111.24 0 0 1-1.298 2.604c-.26.476-.5.952-.76 1.423a89.83 89.83 0 0 1-1.332 2.352c-.15.254-.304.507-.455.76-.15.253-.306.507-.46.76-.152.253-.305.506-.461.76l-.465.739c-.156.253-.311.486-.467.727-.156.24-.312.48-.468.716-.155.236-.314.471-.47.702-.155.23-.311.46-.467.688l-.169.254c-.254.37-.508.733-.763 1.089l-.23.321a74.409 74.409 0 0 1-2.3 3.024c-.26.322-.52.636-.78.934-.26.3-.46.537-.683.79l-.171.195a32.218 32.218 0 0 1-1.54 1.616l-.015.015-.019.015-.179.173c-2.855 2.696-6.542 4.168-10.055 4.036-.132 0-.26-.013-.394-.023h-.106c-.105 0-.209-.017-.31-.03l-.296-.038c-.078 0-.155-.02-.233-.036-.078-.015-.18-.027-.26-.045-.117-.02-.231-.046-.343-.071l-.093-.02c-.088-.021-.177-.041-.26-.066l-.07-.018-.226-.063a7.33 7.33 0 0 1-.451-.139h-.019c-.085-.028-.166-.059-.26-.089l-.228-.086a5.34 5.34 0 0 1-.376-.157h-.013c-.236-.107-.467-.22-.696-.342l-.075-.043a5.669 5.669 0 0 1-.239-.134l-.112-.066a10.62 10.62 0 0 1-.319-.2l-.036-.023c-.107-.071-.21-.142-.312-.215-.101-.074-.22-.157-.327-.241l-.06-.048a5.97 5.97 0 0 1-.241-.197.52.52 0 0 1-.08-.066l-.019-.015c-.062-.054-.125-.107-.187-.165l-.023-.02-.156-.142c-.083-.076-.164-.155-.244-.233a10.82 10.82 0 0 1-.524-.562c-.042-.043-.08-.091-.12-.137l-.018-.02-.171-.208-.091-.114-.26-.334-.015-.02c-.089-.122-.177-.254-.26-.37a6.516 6.516 0 0 1-.234-.357.82.82 0 0 1-.067-.11 2.967 2.967 0 0 1-.177-.299 10.39 10.39 0 0 1-.317-.567 13.647 13.647 0 0 1-.449-.939l-.03-.065a11.3 11.3 0 0 1-.151-.358l-.013-.03c-.06-.152-.12-.304-.177-.46 0-.024-.018-.046-.026-.07a19.618 19.618 0 0 1-.301-.88 53.14 53.14 0 0 1-.117-.37 24.44 24.44 0 0 1-.298-1.013 33.91 33.91 0 0 1-.115-.415c-.013-.046-.026-.091-.036-.137-.05-.182-.093-.362-.138-.54a25.598 25.598 0 0 1-.122-.521c-.08-.344-.148-.679-.207-1.013a21.874 21.874 0 0 1-.267-1.833 14.75 14.75 0 0 1-.07-2.194c0-.078 0-.154.012-.23.013-.076 0-.215.026-.319.031-.335.08-.668.146-.998.018-.078.033-.154.052-.228a6.117 6.117 0 0 1 .327-1.013c.023-.06.051-.119.078-.177a3.34 3.34 0 0 1 .083-.17c.028-.055.036-.065.057-.098.148-.236.36-.427.613-.552a1.56 1.56 0 0 1 1.6.134c.227.165.403.389.508.646v.03c1.165 3.006.838 10.583 7.16 14.103l.127.07c1.638.887 3.183 1.163 4.673.917a7.887 7.887 0 0 0 2.807-1.071c2.048-1.215 4.045-3.343 6.103-6.12 6.709-9.041 13.41-24.17 16.528-21.492z" fill="#446E5C"/><path d="M94.586 67.706c-.802 1.52-2.659 3.725-6.927 8.395-8.346 9.132-15.21 11.49-18.017 8.445a3.15 3.15 0 0 1-.818-2.132 4.396 4.396 0 0 1 .48-2.1c.236-.465.545-.893.917-1.265a48.631 48.631 0 0 1 5.618-5.055c5.452-4.092 11.846-6.895 17.394-8.04a1.28 1.28 0 0 1 .689.057c.219.082.41.222.551.405a1.2 1.2 0 0 1 .113 1.29z" fill="#446E5C"/><path d="M90.15 93.496c-.553.485-1.08.999-1.578 1.54-.86.303-1.602.541-2.19.718.442-.577.892-1.181 1.35-1.813l.23-.322c.255-.356.509-.719.763-1.088.45.293.927.615 1.426.965z" fill="#163366"/><path d="M88.572 95.035a37.022 37.022 0 0 0-2.243 2.725l-.063.08-.054-.062-.213-.254a9.23 9.23 0 0 0-.566-.564c.312-.388.628-.793.95-1.21.221-.067.465-.143.727-.226.434-.134.93-.294 1.462-.489z" fill="#2B4E3E"/><path d="M105.08 85.124a35.294 35.294 0 0 1-5.112 4.216 14.536 14.536 0 0 1-.642-1.033s-3.694.063-9.174 5.189a56.48 56.48 0 0 0-1.423-.965l.168-.254c.156-.228.312-.455.468-.688.156-.233.314-.466.47-.702.156-.235.311-.473.467-.716.156-.244.312-.482.467-.727l.465-.74a1913.499 1913.499 0 0 0 .922-1.52 73.096 73.096 0 0 0 1.786-3.112c.26-.47.52-.946.76-1.422a64.09 64.09 0 0 0 1.299-2.604c1.962-4.09 3.678-6.913 5.057-8.843.249-.349.489-.67.719-.964.478-.618.901-1.117 1.272-1.52l.309.284a16.266 16.266 0 0 0-2.3 5.571c-1.06 5.222.299 9.709 4.022 10.55z" fill="url(#paint14_linear)"/><path d="M108.508 95.483a14.83 14.83 0 0 1-4.792-2.317 49.15 49.15 0 0 0 3.341-1.61l.086.253c.057.17.117.34.174.506.098.284.194.56.293.829a60.6 60.6 0 0 0 .898 2.339z" fill="#0054D8"/><path d="M107.057 91.558a49.39 49.39 0 0 1-3.341 1.61 15.163 15.163 0 0 1-3.75-3.828 35.305 35.305 0 0 0 5.113-4.216c.194.76.4 1.491.61 2.177l.374 1.206.285.896.408 1.266.213.639c.023.078.059.164.088.25z" fill="#2B4E3E"/><path d="M107.945 94.053c-3.946 1.846-8.827 2.785-12.947 3.251a58.244 58.244 0 0 0-1-.86 59.47 59.47 0 0 0 9.718-3.275 49.39 49.39 0 0 0 3.341-1.61l.086.252c.057.17.116.34.174.507.098.284.194.56.293.828.107.309.219.611.335.907z" fill="url(#paint15_linear)"/><path d="M94.999 97.304a70.38 70.38 0 0 1-8.776.459l.12-.013c2.585-.26 5.148-.7 7.669-1.317.32.289.652.57.987.871z" fill="#163366"/><path d="M104.713 67.26a4.343 4.343 0 0 0-.535.393c-.392.333-.761.69-1.106 1.069a20.42 20.42 0 0 0-1.272 1.52c-.23.293-.47.615-.719.964-3.115-2.677-9.819 12.451-16.522 21.492-2.077 2.785-4.073 4.913-6.127 6.128a7.888 7.888 0 0 1-2.796 1.056c-1.496.253-3.04-.03-4.673-.917l-.128-.07c9.087 1.623 15.746-12.837 18.633-17.78 6.774-11.598 8.246-10.215 11.595-13.353 2.077-1.952.397-2.092-.062-2.2 3.367.5 3.712 1.699 3.712 1.699z" fill="#4B7D58"/><path d="M101.067 71.214c-1.379 1.93-3.095 4.753-5.058 8.842a111.24 111.24 0 0 1-1.298 2.604c-.26.476-.5.952-.76 1.423-.434.795-.88 1.58-1.332 2.352-.15.254-.304.507-.455.76-.15.253-.306.507-.46.76-.152.253-.305.506-.461.76l-.465.739c-.156.253-.312.486-.467.727a85.042 85.042 0 0 1-1.405 2.106l-.169.254c-.254.37-.508.732-.763 1.089l-.23.321a74.965 74.965 0 0 1-2.3 3.024c-.26.322-.52.636-.78.934-.26.3-.46.537-.683.79l-.171.195a32.655 32.655 0 0 1-1.54 1.616l-.015.015-.018.015-.18.173c-.17.162-.347.319-.519.473-2.775 2.396-6.23 3.687-9.53 3.563-.133 0-.26-.013-.395-.023h-.106c-.104 0-.208-.017-.31-.03l-.295-.038c-.078 0-.156-.02-.234-.036-.078-.015-.18-.027-.26-.045-.117-.02-.23-.046-.342-.071l-.094-.02c-.088-.021-.176-.041-.26-.066l-.07-.018-.225-.063a7.35 7.35 0 0 1-.452-.139h-.018c-.086-.028-.166-.059-.26-.089l-.228-.086a5.34 5.34 0 0 1-.377-.157h-.013a9.902 9.902 0 0 1-.696-.342l-.075-.043a5.733 5.733 0 0 1-.239-.134l-.111-.066a10.749 10.749 0 0 1-.32-.2l-.036-.023a12.22 12.22 0 0 1-.312-.215c-.1-.074-.22-.157-.327-.241l-.06-.048a5.97 5.97 0 0 1-.24-.197.514.514 0 0 1-.081-.066l-.019-.015c-.062-.054-.124-.107-.186-.165l-.024-.02-.156-.142c-.083-.076-.163-.155-.244-.233a10.813 10.813 0 0 1-.524-.562c-.042-.043-.08-.091-.12-.137l-.018-.02-.171-.208-.09-.114-.26-.334-.016-.02c-.088-.122-.177-.254-.26-.37a6.457 6.457 0 0 1-.233-.357.822.822 0 0 1-.068-.11 10.202 10.202 0 0 1-.493-.866 13.593 13.593 0 0 1-.45-.939l-.03-.066a11.431 11.431 0 0 1-.151-.356l-.013-.03c-.06-.153-.12-.305-.176-.462 0-.023-.019-.045-.026-.068a19.618 19.618 0 0 1-.302-.881l-.117-.37c2.597 4.776 5.99 5.211 9.427 3.47l.127.07c1.639.886 3.183 1.162 4.674.917a7.884 7.884 0 0 0 2.783-1.079c2.048-1.215 4.045-3.343 6.103-6.12 6.709-9.041 13.41-24.17 16.528-21.492z" fill="#2B4E3E"/><path d="M114.831 65.453a6.508 6.508 0 0 0-2.336-.507 7.333 7.333 0 0 0-1.501-.015c-.091 0-.184.013-.28.025a10.5 10.5 0 0 0-1.184.183 10.8 10.8 0 0 0-.93.233c-.077.02-.155.045-.236.07a9.87 9.87 0 0 0-.483.163l-.228.083-.301.12-.226.095-.281.124a12.765 12.765 0 0 0-.768.385c-.12.066-.174.094-.26.145h-.023l-.26.152-.28.172a4.02 4.02 0 0 0-.26.174l-.278.188s-.366-1.266-4.039-1.745a7.451 7.451 0 0 0 2.814-3.444c1.254-3.158.587-11.697 6.68-13.54-.2.086-3.115 1.286-3.115 4.662 0 4.525 4.566 3.6 5.356 7.29.825 3.87.895 4.346 2.419 4.987z" fill="#163366"/><path d="M111.869 97.112c-2.415-4.336 1.018-10.758-1.784-17.876-2.907-7.377-4.198-11.71-.304-14.14l-.246.048a10.8 10.8 0 0 0-.93.233c-.077.02-.155.045-.236.07a9.765 9.765 0 0 0-.483.163l-.228.083-.301.12-.226.095-.281.124a12.76 12.76 0 0 0-.768.385c-.12.066-.174.094-.26.145h-.023l-.26.152-.28.172a4.02 4.02 0 0 0-.26.175l-.277.187-.104.111c-.141.155-.408.469-.738.917l-.018.023c-.067.091-.135.19-.208.294l-.031.043c-.078.114-.161.233-.244.362a16.255 16.255 0 0 0-2.295 5.553c-1.067 5.214.291 9.701 4.014 10.542.195.76.4 1.492.61 2.178l.374 1.205c.052.165.104.327.153.49.049.161.088.273.132.407l.408 1.266v.015l.382 1.132c.057.17.117.34.174.507.098.283.194.56.293.828.111.312.222.616.335.911.189.507.376.984.563 1.434 1.781 4.327 3.516 6.543 5.933 6.885 1.542.22 4.338-1.849 7.292-4.594-.272.213-6.758 4.954-9.878-.645zm5.157 37.964s-12.597 1.013-24.505-.096a641.971 641.971 0 0 0 4.382-14.027s1.654 8.803 11.041 10.094c9.388 1.292 11.862-.987 11.769 5.984-.073 5.346-1.464 8.048 1.667 18.04-2.705-7.24-5.688-17.017-4.354-19.995z" fill="#E06855"/><path d="M87.172 126.598a39.759 39.759 0 0 0-1.965-.973 91.086 91.086 0 0 1-.52-10.759 45.92 45.92 0 0 0-.84-8.914l.84-1.651c1.429 4.052 1.48 10.005 1.758 16.207.079 2.045.322 4.082.728 6.09z" fill="#163366"/><path d="M84.677 104.301a18.37 18.37 0 0 0-.384-.957 1.152 1.152 0 0 0-.044-.097 4.75 4.75 0 0 0-.13-.273 8.466 8.466 0 0 0-.808-1.33l-.08-.103-.08-.107-.203-.253-.182-.195-.034-.033-.096-.094-.093-.091-.029-.028-.239-.21-.023-.02-.018.015-.18.172c-2.855 2.697-6.542 4.169-10.054 4.037a31.702 31.702 0 0 0-2.856 6.67c5.275.413 8.752-2.446 11.755-6.181.195-.244.457-.428.756-.53a1.69 1.69 0 0 1 1.739.401c.22.223.37.502.431.805v.043l.852-1.641z" fill="#0054D8"/><path d="M92.155 129.756l-1.78 3.039a.584.584 0 0 1-.513.291.583.583 0 0 1-.513-.291c-.577-1.013-1.496-2.981-2.155-6.093l.067-.071c-7.874-4.199-15.867-5.042-20.016-5.164-.571 5.731-.564 12.784.236 21.561a42.19 42.19 0 0 1 2.025-9.104 9.386 9.386 0 0 1 3.52-4.658 9.77 9.77 0 0 1 5.652-1.754h.063a9.031 9.031 0 0 1 4.976 1.555 8.692 8.692 0 0 1 3.217 4.016 15.03 15.03 0 0 0 1.246 2.505.816.816 0 0 0 1.141.226.793.793 0 0 0 .272-.325l2.562-5.733z" fill="#E06855"/><path d="M81.891 103.346s-2.193 3.338-4.769 9.165a71.001 71.001 0 0 1-8.718 1.671c.057-.253.114-.484.174-.719a.113.113 0 0 0 0-.026l.171-.66c0-.023 0-.044.019-.064a43.697 43.697 0 0 1 .373-1.299l.133-.423c0-.02.013-.04.02-.063.05-.16.102-.317.156-.474l.26-.759c.086-.254.153-.416.231-.621l.184-.423c.117-.288.234-.572.353-.848.276-.643.564-1.254.865-1.833l.07-.137.197-.37c.13-.253.26-.483.4-.716 3.303.124 6.75-1.168 9.53-3.563l.351 2.162z" fill="url(#paint16_linear)"/><path d="M71.573 124.967c0 .035-.017.046-.025.025-.008-.02.005-.017.025-.025zm1.927-2.882a45.299 45.299 0 0 1 11.712 3.546c-1.438-1.849-4.546-4.012-6.981-5.546a4.749 4.749 0 0 1-1.991-2.537 4.624 4.624 0 0 1 .117-3.194c.285-.704.56-1.365.778-1.843a71.001 71.001 0 0 1-8.718 1.671 57.09 57.09 0 0 0-1.173 7.29c1.572.051 3.14.18 4.699.388l.73.099c.277.04.547.081.828.126z" fill="#163366"/><path d="M123.515 58.142c-.066.12-.115.247-.145.38-.26.111-.595-.17-.198-.466.209-.136.372-.328.47-.553a1.22 1.22 0 0 0 .081-.713c.207.38.114.78-.208 1.352zm-.814 6.315c-.48.145-1.466.185-2.544.254l-.413.48-.241-.437-.065-.117a.407.407 0 0 1 .205-.572.432.432 0 0 1 .229-.028l2.829.42z" fill="#E06855"/><path d="M94.586 67.706c-.802 1.52-2.659 3.725-6.927 8.395-8.346 9.132-15.21 11.49-18.017 8.445a3.15 3.15 0 0 1-.818-2.132 4.396 4.396 0 0 1 .48-2.1c.018 1.05.317 4.053 3.134 3.427 3.398-.76 4.102-7.655 9.346-10.357 5.244-2.702 13.91-4.996 11.45-7.43a1.28 1.28 0 0 1 .688.057c.219.082.41.222.551.405a1.2 1.2 0 0 1 .113 1.29z" fill="#2B4E3E"/><path d="M173.229 46.131a122.165 122.165 0 0 1-3.881 9.23c-2.409 5.13-4.808 9.284-6.231 10.871-2.233 2.47-8.946 7.172-14.954 11.168 10.455-8.017 13.89-18.207 15.489-25.11.639-2.763 1.194-5.531 2.521-8.238a27.1 27.1 0 0 1 7.056 2.079z" fill="#442330"/><path d="M175.696 38.468c-.654 2.474-1.506 5.077-2.466 7.663a27.14 27.14 0 0 0-7.067-2.071c2.046-4.179 4.728-8.37 5.608-13.057 1.404-7.483-4.414-8.845-4.775-8.927 6.242.537 10.91 8.05 8.7 16.392z" fill="#6A9C78"/><path d="M172.271 56.908s-2.354 7.03-6.108 11.234c-5.473 6.128-27.951 15.804-28.746 16.184.831-.506 21.427-13.373 25.69-18.086 1.433-1.588 3.832-5.74 6.231-10.871a54.137 54.137 0 0 0 2.933 1.54z" fill="#331B25"/><path d="M194.904 88.603a102.772 102.772 0 0 1-9.606 5.984l-8.191 25.769-.855 1.116s.47-22.005 5.414-35.08a38.581 38.581 0 0 0 1.858-6.66c2.505.317 4.969.89 7.35 1.712.839.294 1.677.628 2.503 1.013.444 2.196.95 4.303 1.527 6.146z" fill="#442330"/><path d="M193.373 82.45a32.256 32.256 0 0 0-2.502-1.013 36.617 36.617 0 0 0-7.35-1.712c2.027-10.958-1.298-19.327-1.298-19.327 2.786.614 5.633.924 8.489.924 0 0 .335 5.318 1.156 11.73.389 3.036.885 6.313 1.505 9.397z" fill="#2B4E3E"/><path d="M220.206 50.167a30.843 30.843 0 0 0-.978-.253l-.26-.063a27.986 27.986 0 0 0-2.552-.436c-.117-.015-.231-.03-.348-.04l-.35-.04-.579-.056h-.068a19.886 19.886 0 0 0-1.189-.063c-.26-.006-.519 0-.766 0h-.353a19.84 19.84 0 0 0-9.889 3.069c-1.794-3.432-2.933-7.311-3.98-10.922-2.077-7.144-15.577-7.329-18.028 1.284-2.451 8.612-8.583 14.251-8.583 14.251a57.456 57.456 0 0 1-2.923-1.54 122.227 122.227 0 0 0 3.881-9.23c.961-2.585 1.818-5.188 2.467-7.662 1.363-5.146.109-9.975-2.519-13.047-1.63-1.91-3.79-3.14-6.181-3.345 1.794-.479 3.977-.722 6.449-.772a48.651 48.651 0 0 1 23.43 5.57 65.952 65.952 0 0 1 9.186 5.673c4.013 2.973 7.529 6.354 10.203 10.018a27.706 27.706 0 0 1 3.93 7.604z" fill="#4B7D58"/><path d="M195.36 26.126a48.648 48.648 0 0 0-21.917-4.812c-2.471.051-4.655.294-6.449.773a8.7 8.7 0 0 0-3.476.423 2.264 2.264 0 0 1-.852-.629 2.195 2.195 0 0 1-.464-.939c6.311-1.816 14.341-1.243 22.444 1.086a68.57 68.57 0 0 1 10.714 4.098z" fill="#4B7D58"/><path d="M220.205 50.167a30.903 30.903 0 0 0-.979-.253l-.26-.063a28.105 28.105 0 0 0-2.552-.436c-.116-.015-.231-.03-.348-.04l-.35-.04-.579-.056h-.068a20 20 0 0 0-1.189-.063c-.259-.006-.519 0-.765 0h-.354a19.833 19.833 0 0 0-9.888 3.069 20.589 20.589 0 0 0-3.313 2.583 12.06 12.06 0 0 1-.519.476 30.147 30.147 0 0 1-.943.838c-.13.114-.26.225-.392.331a45.512 45.512 0 0 1-4.26 3.174l-.304.197h-.018l-.26.16-.026.017-.41.254c-1.038.65-1.716 1.013-1.716 1.013s.724 11.501 2.658 21.119c0 0-.449-11.92 1.987-17.541 3.52-8.13 13.453-10.396 18.009-4.8 5.003 6.147 2.649 18.327-4.694 20.37 2.435.19 4.828.728 7.101 1.599.744.289 1.471.62 2.176.992a1.932 1.932 0 0 0 2.366-.429c.187-.217.321-.473.391-.748 1.365-5.543 3.98-19.517-.501-31.723z" fill="#2B4E3E"/><path d="M194.9 88.603a102.512 102.512 0 0 1-9.606 5.984c2.689-4 4.579-8.46 5.572-13.143a27.31 27.31 0 0 1 2.503 1.013c.449 2.196.955 4.303 1.531 6.146z" fill="#331B25"/><path d="M193.376 82.45a32.256 32.256 0 0 0-2.502-1.013c.595-2.76.93-5.566.999-8.385.387 3.036.883 6.313 1.503 9.397z" fill="#192D23"/><path d="M215.775 82.075a60.498 60.498 0 0 1-1.69 3.104c-5.011-3.504-11.603-4.636-11.603-4.636a34.549 34.549 0 0 1 6.203-.051c2.43.184 4.819.718 7.09 1.583zm-2.211 8.908h-1.27c-.173 0-.342-.044-.492-.128a.972.972 0 0 1-.36-.35.944.944 0 0 1-.005-.96l1.135-1.942.992 3.38zm-73.746-54.275c-.613-.228-1.708.091-2.178-.405.059 0 1.038.21 1.638-.066.54-.248.971.2.54.471zm7.883-.405l.555-.623a.497.497 0 0 1 .515-.145.492.492 0 0 1 .347.398l.26 1.733-1.677-1.363z" fill="#442330"/><path d="M139.232 34.591c-.498.214-1.008.398-1.529.552.14-.05 1.267-.47 1.428-1.013.288-.985-.984-2.532-1.49-3.12-.506-.587-.948-.417-.995-.402l.094-.079a1.002 1.002 0 0 1 1.327.04c.147.144.284.291.412.442a6.676 6.676 0 0 1 1.299 2.43.959.959 0 0 1-.057.673c-.1.21-.273.38-.489.477z" fill="#0B1828"/><path d="M135.033 33.188c.083.4.846.927 1.121.76.275-.167-.106-.279-.371-.582-.379-.433.164-.73 0-.978s-.878.155-.75.8z" fill="#283C55"/><path d="M153.146 26.782c-1.43-.155-2.336.149-2.99.658-1.522 1.188-1.607 3.502-3.614 3.68-1.337.118-1.992-.348-3.282-1.97-1.29-1.624-3.445.759-3.796 1.69-.35.933 1.382 2.883.868 3.569-.514.686-2.63.734-2.63.734a13.96 13.96 0 0 0 1.529-.552.99.99 0 0 0 .493-.48.96.96 0 0 0 .055-.677 6.69 6.69 0 0 0-1.298-2.431c1.054-1.44 2.733-3.409 3.842-4.68.052.096.101.193.148.289.052.104.101.21.148.311.047.102.106.254.153.355.047.101.073.182.104.27.018.049.036.095.052.143.034.093.065.182.093.268a.58.58 0 0 0 .419.376.604.604 0 0 0 .55-.146l.194-.184a.686.686 0 0 0-.049-1.041c-.472-.385-.994-.98-.802-1.651a1.052 1.052 0 0 1 .111-.264c.727-1.266 2.135.19 2.135.19l2.31 1.621a1.236 1.236 0 0 0 1.558-.106c.288-.254.561-.53.802-.773l.158.112 2.739.689z" fill="#442330"/><path d="M150.492 25.718l-.259.253c-.242.253-.52.507-.803.773a1.21 1.21 0 0 1-.89.324c2.856-1.575-.615-4.743-3.116-4.242-2.5.502-4.535-.998-6.114-2.588-1.692-1.704-7.544 3.393-7.869 3.677 1.875-2.084 5.548-6.949 9.025-7.584 3.85-.707 5.839.997 7.633 4.305a18.535 18.535 0 0 0 2.336 3.461l.086.096c.194.21.299.485.294.768a1.106 1.106 0 0 1-.323.757z" fill="#BA1515"/><path d="M138.967 28.504c.114-.178 1.48-2.348 0-3.455-1.48-1.106-3.18-.192-3.315-.116 1.163-.876 2.394-1.52 3.593-1.281 1.324.273 2.256 1.266 2.887 2.324a51.544 51.544 0 0 0-3.165 2.528z" fill="#442330"/><path d="M86.223 101.178c-.656 2.343-.955 3.293-.451 8.147a24.148 24.148 0 0 0-1.08-5.024 10.23 10.23 0 0 0-1.241-2.489 6.81 6.81 0 0 0-.488-.623 6.046 6.046 0 0 0-.691-.669l.015-.015a33.81 33.81 0 0 0 1.54-1.616l.171-.195.078-.088a71.15 71.15 0 0 0 1.384-1.636c.177.162.369.35.566.564l.213.254c.026.063.638 1.013-.016 3.39z" fill="#2B4E3E"/><path d="M85.997 97.53a16.96 16.96 0 0 1-3.048 3.659 6.039 6.039 0 0 0-.69-.669l.015-.015c.483-.469.997-1.013 1.54-1.616l.17-.195.079-.088a71.15 71.15 0 0 0 1.383-1.636c.161.157.353.344.55.56z" fill="#1E352A"/><path d="M87.106 95.529a18.138 18.138 0 0 1-1.11 2 9.287 9.287 0 0 0-.567-.564c.312-.388.629-.793.95-1.21.221-.066.465-.142.727-.226z" fill="#1E352A"/><path d="M205.985 32.487c-12.202-9.679-27.039-16.154-35.526-16.123-4.375.012-7.077 1.534-8.409 2.567a13.055 13.055 0 0 1 7.916-4.097c5.153-.694 8.894 3.353 14.084 3.68 4.982.314 20.728 12.993 21.935 13.973zm-2.528-18.22a19.1 19.1 0 0 1-.636 4.85 1.032 1.032 0 0 1-.942.751 1.064 1.064 0 0 1-.426-.063l-6.49-2.413a1.031 1.031 0 0 1-.522-.437.99.99 0 0 1-.127-.66c.114-.716.205-1.398.28-2.026-.013.284-.101 2.457.761 2.485.921.032 2.65-2.642 4.787-2 2.137.64 3.315-.487 3.315-.487z" fill="#2B4E3E"/><path d="M190.701 2.438c-1.498.14-3.229.507-4.25 1.398-.882-.316-1.726-.615-2.523-.889 1.69-1.38 4.444-.6 5.452-.937.277-.074.53-.22.73-.42.201-.202.343-.451.412-.724h.013l.166 1.572z" fill="#E13A3A"/><path d="M194.382 1.317l-.259 1.537a.633.633 0 0 1-.262.414.661.661 0 0 1-.486.112l-2.126-.326a.653.653 0 0 1-.37-.192.624.624 0 0 1-.173-.373v-.043l-.148-1.471c.07.301.301 1.198.654 1.438.823.562 2.804.626 3.17-1.096z" fill="#CE5A2C"/><path d="M166.988 11.851a.808.808 0 0 1-.548.65 6.334 6.334 0 0 0-2.188 1.276 6.149 6.149 0 0 0-1.491 2.017s-1.243 1.405-2.033-.188l-.038-.078c-.738-1.603-.86-2.512 1.505-4.135-.085.068-1.573 1.281-1.277 2.352.296 1.071.794 2.1 1.28 1.454.485-.646.732-2.449 2.165-2.958 1.433-.509 2.76-2.588 1.698-3.016a.723.723 0 0 1 .897.294.676.676 0 0 1 .092.321c.028.671.007 1.343-.062 2.011z" fill="#E13A3A"/><path d="M209.678 14.117c-.6-.336-1.207-.668-1.817-.995 2.539 2.221 1.666 13.855-6.571 11.32-9.386-2.89-13.903-9.208-21.697-12.591-4.779-2.074-8.435-1.605-10.548-.932a1.09 1.09 0 0 1-.889-.097 1.053 1.053 0 0 1-.331-.31 1.023 1.023 0 0 1-.167-.416c-.064-.433-.147-.818-.347-.932-.491-.28-1.182.028-1.241.056a.721.721 0 0 1 .893.298.695.695 0 0 1 .091.32 13.81 13.81 0 0 1-.063 2.013.778.778 0 0 1-.178.402.816.816 0 0 1-.37.249 6.341 6.341 0 0 0-2.188 1.275 6.147 6.147 0 0 0-1.49 2.017c2.077-1.056 6.534-3.004 10.455-2.621 5.838.57 14.767 3.039 32.841 19.377 3.939-4.5 5.32-10.577 5.803-14.115a4.237 4.237 0 0 0-.42-2.483 4.37 4.37 0 0 0-1.766-1.835zm-17.715-4.388a.134.134 0 0 1-.119.079.13.13 0 0 1-.052 0l-9.406-3.923a15.008 15.008 0 0 0-7.029-1.095c-2.4.203-4.712.979-6.731 2.26l-2.988 1.904.21-.435 2.638-1.667a15.176 15.176 0 0 1 6.848-2.3 15.268 15.268 0 0 1 7.153 1.113l9.398 3.9a.125.125 0 0 1 .088.114.121.121 0 0 1-.01.05z" fill="#F76F32"/><path d="M46.54 193.418l-2.778.471m3.147.656l-2.778.471m2.917.742l-2.778.471m85.706-29.798l.672 2.672m.456-3.105l.673 2.669m.56-2.892l.672 2.672" stroke="#6A9C78" stroke-width="2" stroke-miterlimit="10" stroke-linecap="round"/><path d="M163.79 140.275a.683.683 0 0 0 .693.371.714.714 0 0 0 .265-.087l1.349-.76a.668.668 0 0 0 .32-.418.644.644 0 0 0-.088-.514l-.19-.289a.678.678 0 0 0-.488-.301.701.701 0 0 0-.55.172l-1.161 1.061a.647.647 0 0 0-.15.765zm2.949-1.945a.342.342 0 0 0 .214.18.373.373 0 0 0 .145.013.37.37 0 0 0 .137-.046l.698-.398a.346.346 0 0 0 .166-.217.333.333 0 0 0-.046-.266l-.097-.15a.345.345 0 0 0-.109-.106.36.36 0 0 0-.431.041l-.602.549a.338.338 0 0 0-.075.4zm50.09-6.614a.68.68 0 0 0 .751.237.686.686 0 0 0 .243-.133l1.179-1.013a.668.668 0 0 0 .232-.469.655.655 0 0 0-.185-.489l-.244-.253a.697.697 0 0 0-.817-.123.686.686 0 0 0-.222.189l-.934 1.266a.654.654 0 0 0-.003.788zm2.517-2.454a.351.351 0 0 0 .392.124.362.362 0 0 0 .127-.071l.61-.522a.331.331 0 0 0 .089-.111.328.328 0 0 0 .036-.137.34.34 0 0 0-.102-.258l-.127-.129a.359.359 0 0 0-.54.035l-.485.651a.333.333 0 0 0 0 .418z" fill="#6A9C78"/><defs><linearGradient id="paint0_linear" x1=".206" y1="116.266" x2=".206" y2="234.335" gradientUnits="userSpaceOnUse"><stop stop-color="#8CACFF"/><stop offset="1" stop-color="#516BF0"/></linearGradient><linearGradient id="paint1_linear" x1="28.798" y1="198.549" x2="28.798" y2="207.597" gradientUnits="userSpaceOnUse"><stop stop-color="#5986FB"/><stop offset="1" stop-color="#2D4EF5"/></linearGradient><linearGradient id="paint2_linear" y1="200.764" x2="0" y2="234.335" gradientUnits="userSpaceOnUse"><stop stop-color="#5986FB"/><stop offset="1" stop-color="#2D4EF5"/></linearGradient><linearGradient id="paint3_linear" x1="28.798" y1="199.913" x2="28.798" y2="205.226" gradientUnits="userSpaceOnUse"><stop stop-color="#4F79E6"/><stop offset="1" stop-color="#2D4EF5"/><stop offset="1" stop-color="#2242E2"/></linearGradient><linearGradient id="paint4_linear" x1="119.384" y1="116.37" x2="119.384" y2="234.254" gradientUnits="userSpaceOnUse"><stop stop-color="#5986FB"/><stop offset="1" stop-color="#2D4EF5"/></linearGradient><linearGradient id="paint5_linear" x1="94.718" y1="178.532" x2="94.718" y2="198.957" gradientUnits="userSpaceOnUse"><stop stop-color="#5986FB"/><stop offset="1" stop-color="#2D4EF5"/></linearGradient><linearGradient id="paint6_linear" x1="56.839" y1="198.675" x2="56.839" y2="229.201" gradientUnits="userSpaceOnUse"><stop stop-color="#5986FB"/><stop offset="1" stop-color="#2D4EF5"/></linearGradient><linearGradient id="paint7_linear" x1="89.558" y1="216.072" x2="89.558" y2="234.335" gradientUnits="userSpaceOnUse"><stop stop-color="#5986FB"/><stop offset="1" stop-color="#2D4EF5"/></linearGradient><linearGradient id="paint8_linear" x1="119.382" y1="144.876" x2="119.382" y2="234.335" gradientUnits="userSpaceOnUse"><stop stop-color="#436EDE"/><stop offset="1" stop-color="#162FAD"/></linearGradient><linearGradient id="paint9_linear" x1="124.282" y1="162.707" x2="124.282" y2="178.628" gradientUnits="userSpaceOnUse"><stop stop-color="#759BFF"/><stop offset="1" stop-color="#4463FF"/></linearGradient><linearGradient id="paint10_linear" x1="157.898" y1="140.217" x2="157.898" y2="152.268" gradientUnits="userSpaceOnUse"><stop stop-color="#5986FB"/><stop offset="1" stop-color="#2D4EF5"/></linearGradient><linearGradient id="paint11_linear" x1="203.131" y1="124.875" x2="203.131" y2="140.032" gradientUnits="userSpaceOnUse"><stop stop-color="#5986FB"/><stop offset="1" stop-color="#2D4EF5"/></linearGradient><linearGradient id="paint12_linear" x1="86.447" y1="64.979" x2="86.447" y2="106.238" gradientUnits="userSpaceOnUse"><stop stop-color="#5986FB"/><stop offset="1" stop-color="#2D4EF5"/></linearGradient><linearGradient id="paint13_linear" x1="68.404" y1="100.523" x2="68.404" y2="114.192" gradientUnits="userSpaceOnUse"><stop stop-color="#5986FB"/><stop offset="1" stop-color="#2D4EF5"/></linearGradient><linearGradient id="paint14_linear" x1="88.729" y1="68.719" x2="88.729" y2="93.496" gradientUnits="userSpaceOnUse"><stop stop-color="#2F5BCE"/><stop offset="1" stop-color="#2D4EF5"/><stop offset="1" stop-color="#223DC6"/></linearGradient><linearGradient id="paint15_linear" x1="93.998" y1="91.558" x2="93.998" y2="97.304" gradientUnits="userSpaceOnUse"><stop stop-color="#2F5BCE"/><stop offset="1" stop-color="#2D4EF5"/><stop offset="1" stop-color="#223DC6"/></linearGradient><linearGradient id="paint16_linear" x1="68.404" y1="101.184" x2="68.404" y2="114.182" gradientUnits="userSpaceOnUse"><stop stop-color="#2F5BCE"/><stop offset="1" stop-color="#2D4EF5"/><stop offset="1" stop-color="#223DC6"/></linearGradient></defs></svg>