<svg width="332" height="456" fill="none" xmlns="http://www.w3.org/2000/svg"><g clip-path="url(#clip0)"><path d="M47.878 55.146l-3.586.37-.2-2.68 1.749-.385 2.037 2.695z" fill="#E06855"/><path d="M34.988 73.531l5.544 3.768.56-5.494-.455-5.086 4.834-4.007 2.188-4.716-6.498-4.786-4.844 4.836.2 6.053-1.529 9.432z" fill="#EFA08D"/><path d="M93.99 241.02l15.033 21.743 55.212 16.639 37.781 16.618 15.227-20.336-16.571-4.991a22.972 22.972 0 0 1-5.244-4.461l-11.766-20.791 2.392-3.074-4.125-40.923-10.528-53.553 3.581-7.726 1.134-6.907.439-4.781h5.134l8.386-21.105-18.789-42.654-4.13-3.553-10.777-6.862-14.484 1.158s-9.089 3.448-11.057 9.257a77.454 77.454 0 0 0-2.672 9.562l-3.126 18.26-13.704 23.321-1.404 6.593-10.238-6.393-18.863 8.664 21.435 23.735 8.615 11.857 7.916 31.441s-8.785 43.717-24.806 49.262z" fill="url(#paint0_linear)"/><path d="M22.778 380.002l-13.02 9.322-5.968-.314c-4.235-.225-5.254-6.024-1.344-7.671l15.423-6.487c2.786 1.222 4.909 5.15 4.909 5.15z" fill="url(#paint1_linear)"/><path d="M26.443 392.438l-14.982 6.602c-3.88 1.712-7.412-2.994-4.665-6.238l2.947-3.493 8.59-10.136 4.43-4.936 4.05 4.936 2.372 6.987a5.072 5.072 0 0 1-2.742 6.278z" fill="url(#paint2_linear)"/><path d="M93.83 241.039c-2.566.339-17.48 17.936-38.045 37.429-11.527 10.92-22.919 24.953-24.512 46.188-1.563 20.87-8.81 41.277-8.67 50.165.045 2.88-4.255 4.357-4.255 4.357s-.19-1.577-.5-4.357c-1.862-17.592-7.935-83.342 2.997-102.002 14.978-25.367 69.61-31.436 72.986-31.78z" fill="#162F71"/><g clip-path="url(#clip1)"><rect x="25.034" width="56" height="54" rx="27" transform="rotate(25 25.034 0)" fill="url(#paint3_linear)"/><path fill-rule="evenodd" clip-rule="evenodd" d="M35.685 47.355l-1.514 3.247-3.776-1.76 1.408-3.022-6.797-3.17 9.861-21.147 6.797 3.17 1.41-3.02 3.776 1.76-1.515 3.247c4.387 3.157 5.431 8.072 2.772 13.774-2.72 5.834-7.153 8.258-12.422 6.92zm1.681-3.606c2.825.092 5.2-1.634 6.806-5.078 1.566-3.357 1.335-6.288-.525-8.39l-6.28 13.468zm2.775-15.808l-2.965-1.382-6.813 14.611 2.964 1.382 6.814-14.61z" fill="#fff" filter="url(#filter0_d)"/></g><g filter="url(#filter1_f)"><rect x="48.716" y="195" width="40" height="40" rx="20" transform="rotate(-45 48.716 195)" fill="url(#paint4_linear)"/><path d="M73.629 199.404c1.623-1.623 1.588-3.742-.214-5.545-1.83-1.83-3.895-1.781-5.504-.172-1.609 1.609-1.65 3.68.18 5.51 1.809 1.809 3.915 1.83 5.538.207zm5.966 2.9l-3.397-16.531-1.865 1.865 3.398 16.531 1.864-1.865zm-7.485-4.419c-.38.38-.988.311-2.003-.704-1.036-1.036-1.056-1.595-.677-1.975.387-.387.946-.352 1.975.677 1.015 1.015 1.085 1.622.705 2.002zm13.9-1.637c1.623-1.622 1.588-3.742-.214-5.545-1.83-1.829-3.895-1.781-5.504-.172-1.608 1.609-1.65 3.68.18 5.51 1.81 1.81 3.915 1.83 5.538.207zm-1.519-1.519c-.38.38-.987.311-2.003-.704-1.035-1.036-1.056-1.595-.676-1.975.386-.387.946-.352 1.975.677 1.015 1.015 1.084 1.623.704 2.002z" fill="#fff"/></g><rect x="208.976" y="230.505" width="25" height="25" rx="12.5" transform="rotate(15 208.976 230.505)" fill="url(#paint5_linear)"/><path d="M213.625 245.518c1.663.445 3.027-.372 3.521-2.219.503-1.874-.303-3.197-1.951-3.639-1.649-.442-3.01.308-3.512 2.183-.497 1.854.279 3.229 1.942 3.675zm.354 4.963l9.463-8.406-1.91-.512-9.464 8.406 1.911.512zm.063-6.52c-.389-.104-.572-.524-.293-1.564.284-1.062.639-1.285 1.029-1.18.396.106.583.482.301 1.536-.279 1.04-.648 1.313-1.037 1.208zm6.276 8.415c1.662.446 3.026-.372 3.521-2.218.502-1.875-.303-3.198-1.952-3.639-1.648-.442-3.009.308-3.512 2.183-.496 1.853.28 3.229 1.943 3.674zm.417-1.556c-.389-.104-.572-.525-.294-1.565.285-1.061.64-1.284 1.029-1.18.396.106.584.482.301 1.537-.278 1.039-.647 1.312-1.036 1.208z" fill="#fff"/><g filter="url(#filter2_f)"><rect x="78.976" y="70.505" width="25" height="25" rx="12.5" transform="rotate(15 78.976 70.505)" fill="url(#paint6_linear)"/><path d="M83.625 85.518c1.662.445 3.026-.372 3.521-2.219.503-1.874-.303-3.197-1.951-3.639-1.649-.442-3.01.308-3.512 2.183-.497 1.854.28 3.23 1.942 3.675zm.354 4.963l9.463-8.406-1.91-.512-9.464 8.406 1.91.512zm.063-6.52c-.39-.104-.572-.524-.293-1.564.284-1.062.64-1.285 1.029-1.18.396.106.583.482.3 1.536-.278 1.04-.647 1.313-1.036 1.209zm6.276 8.415c1.662.446 3.026-.372 3.521-2.218.502-1.875-.303-3.198-1.952-3.64-1.648-.441-3.01.309-3.511 2.184-.497 1.853.28 3.229 1.942 3.674zm.417-1.556c-.39-.104-.572-.525-.294-1.565.285-1.061.64-1.284 1.03-1.18.395.106.583.482.3 1.537-.278 1.04-.647 1.312-1.036 1.208z" fill="#fff"/></g><path d="M147.923 104.872a71.836 71.836 0 0 0-6.637 8.159c-.26.135-6.882 3.838-21.031 3.644a57.187 57.187 0 0 1-8.915-.829c-2.177-1.806-4.669-4.237-6.113-6.842-2.811-5.095 7.107-13.365 8.191-18.904.053-.26.085-.524.095-.789.1-3.054.429-4.925 1.608-6.078.954-.933 2.452-1.403 4.839-1.647 4.315-.444 5.993-3.174 8.216-7.311.529-.998 1.094-2.046 1.728-3.174 1-1.71 2.345-3.191 3.95-4.352a22.14 22.14 0 0 0-.299 3.848c.013 1.292.158 2.58.434 3.843 1.349 6.248 5.659 12.905 10.888 15.64 1.553 3.848 3.246 9.347 3.046 14.792z" fill="#EFA08D"/><path d="M169.363 72.518a16.635 16.635 0 0 1-2.592 7.95 22.573 22.573 0 0 1-6.777 6.628c-.38.25-.769.499-1.164.738l-.379.225-.23.135-.589.334h-.03c-.22.125-.44.24-.665.354-.224.115-.414.22-.624.33a51.492 51.492 0 0 1-3.026 1.397c-2.857 1.208-5.744.833-8.396-.549-.369-.195-.739-.41-1.098-.644-4.73-3.034-8.536-9.192-9.789-14.971a18.885 18.885 0 0 1-.435-3.843 22.14 22.14 0 0 1 .3-3.848c.934-5.57 3.94-8.439 6.822-10.48a30.93 30.93 0 0 1 1.718-1.138c6.143-3.798 11.891-3.448 17.55-1.273 3.026 1.163 5.543 3.848 7.216 7.282a22.79 22.79 0 0 1 2.188 11.373z" fill="#026FFF"/><path d="M150.975 81.262c-3.7-1.337-9.334-5.425-9.753-14.612v-.889.14c.389 8.539 5.623 12.332 9.064 13.58 9.145 3.308 12.061-21.26 4.994-24.4a8.713 8.713 0 0 0-4.604-.573 9.62 9.62 0 0 1 5.678.499c7.601 3.378 4.46 29.818-5.379 26.255z" fill="#289188"/><path d="M150.28 79.48c-3.441-1.248-8.675-5.04-9.064-13.58v-.14c.105-6.517 4.764-10.36 9.434-11.253a8.718 8.718 0 0 1 4.605.574c7.086 3.149 4.17 27.708-4.975 24.399z" fill="#DBEDF3"/><path d="M150.28 79.48c-3.441-1.248-8.675-5.04-9.065-13.58v-.14c-.239-6.791 4.72-10.654 9.434-11.253a8.717 8.717 0 0 1 4.605.574c7.087 3.149 4.17 27.708-4.974 24.399z" fill="#DBEDF3"/><path d="M145.166 66.954c-.829-.998-1.778-3.264-.499-6.593 1.393-3.608 4.789-3.683 5.993-1.996 1.613 2.31-3.272 11.264-5.494 8.589zm9.245-9.392c.664.349 1.708 1.382 1.947 3.613.255 2.415-1.378 3.359-2.397 2.71-1.378-.874-1.313-7.257.45-6.323z" fill="#F9F9F9"/><path d="M142.394 55.147c-.164.1-.334.204-.499.314-3.201 2.08-6.992 4.916-8.046 11.284a14.257 14.257 0 0 0-3.95 4.351c-.634 1.128-1.199 2.191-1.728 3.174 0 0-.809-4.177-.27-7.575.54-3.399 5.289-7.446 7.492-9.173 2.202-1.727 7.001-2.375 7.001-2.375z" fill="#073C83"/><path d="M199.218 113.277c-6.113 13.18-17.529 15.201-17.529 15.201a6.155 6.155 0 0 1-1.334 2.924 4.932 4.932 0 0 1-1.099.969 5.76 5.76 0 0 1-2.696.873 3.589 3.589 0 0 1-.44 0c12.556 4.99-4.575 14.657-4.575 14.657h-.139l-.355-.604c-.115-.199-.235-.394-.35-.589a31.617 31.617 0 0 0-.499-.808c-.17-.265-.34-.549-.5-.813l-.149-.24-.275-.414c-.22-.34-.44-.669-.664-.998l-.345-.499a67.278 67.278 0 0 0-1.678-2.321c-.145-.195-.295-.384-.439-.574-.145-.19-.365-.469-.55-.694-.185-.224-.354-.444-.534-.658l-.38-.46a46.147 46.147 0 0 0-1.458-1.661 5.288 5.288 0 0 0-.275-.3 32.523 32.523 0 0 0-1.034-1.088l-.239-.239-.235-.235a4.235 4.235 0 0 0-4.919-.748 3.96 3.96 0 0 0-.824.544 76.593 76.593 0 0 0-6.728 6.487 85.725 85.725 0 0 0-3.71 4.272 45.938 45.938 0 0 0-1.823 2.386c-10.758 15.066-8.131 30.717-8.131 35.992 0 .67-.066 1.338-.195 1.996-.898 4.706-4.789 8.484-7.176 7.71a7.359 7.359 0 0 1-.869-.354c-7.991-3.868-8.735-22.338-3.346-42.505a114.083 114.083 0 0 1 3.321-10.47 117 117 0 0 1 9.024-18.964 106.418 106.418 0 0 1 5.224-7.985c.29-.404.57-.788.844-1.163a22.373 22.373 0 0 0 2.752-21.734l-.045-.114c2.652 1.382 5.539 1.756 8.395.549.575-.24 1.134-.5 1.679-.744a42.211 42.211 0 0 0 2.637-1.338h.029l.59-.334c.205-.115.409-.24.609-.36.395-.239.784-.498 1.164-.738a22.571 22.571 0 0 0 6.777-6.627 16.632 16.632 0 0 0 2.637-7.945 22.794 22.794 0 0 0-2.183-11.364h.095c.465.06.924.125 1.379.2h.085c28.017 4.506 37.946 35.832 30.479 51.922z" fill="#2F4A8F"/><path d="M195.427 266.256l-1.998 1.892-4.305 4.122s-5.778-6.772-13.819-17.647a506.349 506.349 0 0 1-6.142-8.484 356.37 356.37 0 0 1-2.807-4.037c-10.888-15.84-23.263-36.147-31.259-56.478a153.643 153.643 0 0 1-3.061-8.449c-3.906-11.873-3.631-20.436-1.199-26.21 2.247-5.345 6.338-8.31 10.668-9.303.119-.025.234-.055.354-.075a15.065 15.065 0 0 1 6.493.085c.333.07.652.155.959.255a12.695 12.695 0 0 1 5.908 3.758 33.318 33.318 0 0 1 2.327 3.054c11.986 17.601 15.098 53.504 28.003 92.26a251.078 251.078 0 0 0 9.878 25.257z" fill="#F76262"/><path d="M212.588 279.402h-15.622a8.05 8.05 0 0 1-5.179-1.802 7.305 7.305 0 0 1-2.637-5.33l4.305-4.122 1.998-1.891.04.05.035.045.499.564c1.903 2.116 8.171 8.484 16.756 11.253a.627.627 0 0 1 .519.714.622.622 0 0 1-.714.519z" fill="#EFA08D"/><path d="M141.28 113.037a112.973 112.973 0 0 0-5.224 7.985 117 117 0 0 0-9.024 18.964 114.083 114.083 0 0 0-3.321 10.47 28.82 28.82 0 0 1-5.404.499c-3.651-.05-5.993-1.043-7.531-2.495-4.18-3.967-1.778-11.299-1.778-11.299-7.801.534-16.776-9.691-12.606-17.466a10.135 10.135 0 0 1 1.938-2.496 10.96 10.96 0 0 1 1.383-1.138c3.192-2.18 6.178-1.118 11.627-.209 2.945.509 5.926.786 8.915.828 14.148.195 20.766-3.508 21.025-3.643z" fill="url(#paint7_linear)"/><path d="M169.163 246.125a508.377 508.377 0 0 1-1.653 13.41 58.943 58.943 0 0 1-7.636-1.183 94.627 94.627 0 0 1-24.427-8.828C115.415 239.009 93.995 241 93.995 241c14.169-24.953 16.631-61.918 16.891-80.678.104-7.311-.125-11.857-.125-11.857 1.498 1.437 3.88 2.43 7.531 2.495a28.903 28.903 0 0 0 5.404-.499c-5.579 20.876-4.57 39.925 4.215 42.859 2.387.793 6.278-2.994 7.177-7.71 7.99 20.331 20.371 40.638 31.258 56.478.956 1.38 1.895 2.726 2.817 4.037z" fill="#F76262"/><path d="M167.51 259.534s-1.043 9.727-3.276 19.867L48.169 325.928h-.025l-9.49 23.676-1.098 2.729a.253.253 0 0 1 0 .055l-10.728 26.8h-8.49s-.799-27.364 1.249-54.996c1.593-21.245 6.033-47.645 17.56-58.564 21.005-19.903 55.505-24.454 56.804-24.604h.04a83.33 83.33 0 0 1 24.751 2.301 73.098 73.098 0 0 1 16.711 6.218 94.6 94.6 0 0 0 24.421 8.808c2.517.561 5.068.957 7.636 1.183z" fill="#2F4A8F"/><path d="M331.98 449.082c.012 3.314-2.576 5.922-5.89 5.925-38.114.028-248.267.18-275.09-.007-.752-.005-1.471-.127-2.001-.66a2.835 2.835 0 0 1-.825-2.004V282.247a2.834 2.834 0 0 1 1.756-2.628 2.854 2.854 0 0 1 1.09-.217h277.335c.75 0 1.47.295 2.004.821a2.84 2.84 0 0 1 .847 1.989c.204 19.809.671 138.779.774 166.87z" fill="#F0F7FC"/><path d="M196.967 279.402h-32.733c2.233-10.141 3.277-19.867 3.277-19.867s.894-6.448 1.653-13.41c11.082 15.73 19.977 26.146 19.977 26.146a7.3 7.3 0 0 0 2.637 5.329 8.046 8.046 0 0 0 5.189 1.802z" fill="#22776D"/><path d="M196.967 279.402h-32.733c2.233-10.141 3.277-19.867 3.277-19.867s.894-6.448 1.653-13.41c11.082 15.73 19.977 26.146 19.977 26.146a7.3 7.3 0 0 0 2.637 5.329 8.046 8.046 0 0 0 5.189 1.802z" fill="url(#paint8_linear)"/><path d="M301.175 279.402h-88.588a.617.617 0 0 0 .612-.515.618.618 0 0 0-.417-.683c-8.585-2.754-14.853-9.137-16.756-11.253 2.278 2.305 11.602 9.232 36.713 1.996 29.691-8.544 67.432-15.965 68.436 10.455z" fill="url(#paint9_linear)"/><path d="M181.688 128.477c-.03.16-.065.31-.105.459.003.01.003.02 0 .03-.029.12-.064.24-.104.355a2.746 2.746 0 0 1-.09.279l-.1.254a4.62 4.62 0 0 1-.27.574c-.045.091-.095.18-.15.265-.05.085-.1.165-.154.244l-.165.23c-.06.08-.125.16-.19.235a4.927 4.927 0 0 1-1.099.968 5.764 5.764 0 0 1-3.141.888c-13.594-8.414-21.066-42.884-21.176-43.378.46-.215.909-.43 1.349-.654.21-.11.419-.214.624-.329.205-.115.445-.23.664-.354h.03l.59-.335.229-.135.38-.224c.394-.24.784-.5 1.164-.739.309 1.268.63 2.5.963 3.698a103.517 103.517 0 0 0 8.231 21.125c6.358 11.953 12.52 16.544 12.52 16.544z" fill="url(#paint10_linear)"/><path d="M110.895 160.317S62.092 145.31 50.93 126.246c-9.65-16.468-16.077-43.966-17.55-50.664a1.626 1.626 0 0 1 1.149-1.921l.46-.13 3.575-.998 2.527-.714 25.76 36.072 32.857 8.185c-.491.34-.954.721-1.383 1.137-4.4 4.217-3.496 9.867-.325 14.079 2.682 3.603 6.992 6.158 10.988 5.884 0 0-2.403 7.331 1.778 11.298.005-.015.234 4.532.129 11.843z" fill="#F76262"/><path d="M45.471 62.722a17.702 17.702 0 0 0-4.38 9.092l-2.526.714-3.576.998s-2.747-5.44-.35-9.786a14.672 14.672 0 0 0 1.623-5.255l.365-2.9a1.058 1.058 0 0 1 1.997-.304l2.058 4.541 4.79 2.9z" fill="#EFA08D"/><path d="M169.163 246.125c-.759 6.986-1.653 13.409-1.653 13.409a58.77 58.77 0 0 1-7.636-1.182 94.667 94.667 0 0 1-24.427-8.829c-20.032-10.515-41.452-8.524-41.452-8.524 2.227-.554 18.059-3.159 32.717-1.497 3.668.44 7.384.249 10.988-.564a9.58 9.58 0 0 0 6.767-12.711c-6.917-18.24-9.394-40.608-9.394-40.608 7.99 20.332 20.371 40.638 31.258 56.478l2.832 4.028zm26.264 20.132l-1.998 1.892s-21.874-30.563-31.218-47.53c-9.345-16.968-2.887-62.547-12.041-70.662-9.155-8.114-19.333.998-19.333.998 2.247-5.345 6.338-8.309 10.668-9.302a15.099 15.099 0 0 1 6.832 0c.333.07.652.155.959.254a12.71 12.71 0 0 1 5.908 3.758c13.984 16.225 16.625 54.163 30.33 95.32a250.96 250.96 0 0 0 9.893 25.272z" fill="#EF2626"/><path d="M212.588 279.402h-15.622c4.13-6.917-3.496-11.254-3.496-11.254l1.997-1.891.04.05.035.045.5.564c1.903 2.116 8.17 8.484 16.755 11.253a.628.628 0 0 1 .512.721.624.624 0 0 1-.721.512z" fill="#E06855"/><path d="M141.28 113.037a112.973 112.973 0 0 0-5.224 7.985 117 117 0 0 0-9.024 18.964 114.083 114.083 0 0 0-3.321 10.47 28.82 28.82 0 0 1-5.404.499c-3.651-.05-5.993-1.043-7.531-2.495-4.18-3.967-1.778-11.299-1.778-11.299-7.801.534-16.776-9.691-12.606-17.466-3.24 9.746 8.331 17.242 15.363 14.218 1.433-.619 2.397 1.856 1.498 3.134-5.429 7.69 5.593 13.419 9.534 6.073a126.23 126.23 0 0 0 6.622-15.021 5.378 5.378 0 0 0-3.875-7.107 69.496 69.496 0 0 1-14.199-5.135c2.945.509 5.926.786 8.915.828 14.153.19 20.771-3.513 21.03-3.648z" fill="url(#paint11_linear)"/><path d="M142.13 111.869c-.275.374-.555.758-.844 1.163-.26.134-6.882 3.837-21.031 3.643a57.187 57.187 0 0 1-8.915-.829c-2.177-1.806-4.669-4.237-6.112-6.842.289.14 12.81 6.194 28.322 2.021 15.697-4.227-1.963-21.075.434-36.595 1.349 6.248 5.659 12.905 10.888 15.64l.045.115a22.413 22.413 0 0 1-2.787 21.684zM113.428 90.1c.053-.26.084-.523.095-.788.1-3.054.429-4.926 1.608-6.079-.05.16-1.034 3.32 0 4.811 1.034 1.493-1.039 3.673-1.703 2.056z" fill="#E06855"/><path d="M181.688 128.477c-.998 5.051-5.573 4.781-5.573 4.781-11.836-7.326-19.028-34.4-20.766-41.606-.26-1.073-.395-1.707-.41-1.772a38.737 38.737 0 0 0 2.637-1.338h.03l.59-.334.609-.359c.395-.24.784-.5 1.164-.739.149.604.299 1.203.454 1.792.155.589.335 1.282.5 1.906 0 0-3.621.135-2.822 3.823.799 3.688 7.681 11.294 9.524 19.518 1.843 8.225 7.596 18.6 14.063 14.328z" fill="url(#paint12_linear)"/><path d="M169.363 72.518a16.635 16.635 0 0 1-2.592 7.95 22.572 22.572 0 0 1-6.777 6.627 38.23 38.23 0 0 1-5.029 2.785c-.545.255-1.104.5-1.678.744-2.857 1.207-5.744.833-8.396-.55-5.229-2.734-9.539-9.391-10.887-15.64a18.885 18.885 0 0 1-.435-3.842 22.142 22.142 0 0 1 .3-3.848c.934-5.57 3.94-8.44 6.822-10.48 1.778 9.9-11.886 32.343 9.579 29.294 21.465-3.049 16.905-24.424 16.905-24.424a22.783 22.783 0 0 1 2.188 11.384z" fill="#1261C9"/><path d="M301.176 279.402h-70.488s61.478-24.644 70.488 0z" fill="#22776D"/><path d="M301.176 279.402h-70.488s61.478-24.644 70.488 0z" fill="url(#paint13_linear)"/><path d="M178.253 132.874a5.762 5.762 0 0 1-1.698.375 6.149 6.149 0 0 0 1.698-.375z" fill="#E06855"/><path d="M160.932 90.794a119.07 119.07 0 0 1-.964-3.698 22.573 22.573 0 0 0 6.777-6.627 16.638 16.638 0 0 0 2.617-7.95s2.227 10.8-8.43 18.275z" fill="#162F71"/><path d="M199.219 113.276c-6.113 13.18-17.53 15.202-17.53 15.202s-6.163-4.592-12.521-16.549c.31.369 9.789 11.678 19.638 6.987 10.013-4.786-2.797-16-3.641-39.116-.435-11.898-12.531-17.672-16.451-18.4 28.042 4.461 37.971 35.787 30.505 51.876zm-23.103 19.983c-13.595-8.414-21.066-42.884-21.176-43.378-.544.254-1.104.499-1.678.743-2.857 1.208-5.743.834-8.395-.548a22.88 22.88 0 0 1 1.263 4.256c.233.135.475.251.724.35a14.193 14.193 0 0 1 8.461 9.981c1.872 8.244 5.873 19.962 14.278 28.651a7.823 7.823 0 0 1 1.643 2.55c1.199 3.024-2.921 5.29-4.874 2.69-1.848-2.466-3.995-5.445-6.393-6.588-7.426-3.518-15.162 2.88-18.533 6.253a11.95 11.95 0 0 1-3.606 2.536c-.32.144-.644.299-.999.499-6.457 3.493-12.945 13.754-10.528 29.798 2.417 16.045 3.331 20.661.724 21.909.282.136.572.255.869.354 2.388.794 6.278-2.994 7.177-7.71a153.942 153.942 0 0 1-3.061-8.449c-3.906-11.873-3.631-20.437-1.199-26.211 2.247-5.345 6.338-8.309 10.668-9.302l.499-.105c.18-.035.36-.07.539-.095l.325-.045.5-.064.369-.03.46-.03h1.658l.499.05.3.024c.204.025.404.06.604.09l.22.035c.269.047.539.102.809.165.205-.23.409-.454.619-.674a76.738 76.738 0 0 1 6.727-6.488c.251-.214.528-.397.824-.543a4.235 4.235 0 0 1 4.92.748l.234.235.24.239c.33.33.674.694 1.034 1.088.095.095.185.195.275.3.464.499.954 1.058 1.458 1.661l.379.46c.18.214.36.434.535.658.175.225.364.459.549.694a68.646 68.646 0 0 1 2.118 2.895l.344.499c.225.324.445.653.665.998.144.214.284.429.424.653.14.225.34.539.5.814.159.274.334.534.499.808.115.195.235.39.35.589l.354.604h.14s17.22-9.617 4.665-14.617z" fill="#162F71"/><path d="M38.565 72.518l-3.576.998s-2.747-5.44-.35-9.787a14.672 14.672 0 0 0 1.623-5.255l.365-2.9a.999.999 0 0 1 .824-.892c-1.024.529-.32 7.096-1.773 11.548-1.478 4.546 2.887 6.288 2.887 6.288z" fill="#E06855"/><path d="M110.895 160.317s-48.803-15.006-59.965-34.07c-9.65-16.469-16.077-43.967-17.55-50.665a1.626 1.626 0 0 1 1.149-1.92l.46-.13 3.575-.999s-5.574 19.319 7.441 32.394 10.753 25.043 35.46 30.013c9.154 1.842 14.028-.269 16.535-3.663 2.682 3.603 6.992 6.158 10.988 5.884 0 0-2.403 7.331 1.778 11.299.005 0 .234 4.546.129 11.857z" fill="#EF2626"/><path d="M160.423 88.888a28.593 28.593 0 0 1-5.074 2.78c-.26-1.074-.395-1.707-.41-1.772a42.057 42.057 0 0 0 2.637-1.338h.03l.59-.334.609-.36c.395-.239.784-.499 1.164-.738.149.574.299 1.173.454 1.762z" fill="#22776D"/><path d="M38.669 349.614c8.595-23.136 2.043-49.491 9.489-63.59v39.925h-.025l-9.464 23.665zm128.842-90.079s-1.044 9.727-3.276 19.867H54.172c17.065-10.899 64.33 0 72.726-13.145 8.245-12.915-7.591-22.597-8.151-22.956a73.063 73.063 0 0 1 16.711 6.218 94.645 94.645 0 0 0 24.417 8.833c2.516.561 5.067.957 7.636 1.183z" fill="#162F71"/><path d="M331.975 449.093c.015 3.314-2.515 5.909-5.828 5.909L48.169 455s69.255-13.503 89.771-83.221c21.265-72.309 59.027-92.377 59.027-92.377h134.21s.659 139.049.798 169.691z" fill="#E0ECF4"/><path d="M317.751 428.105h-42.626a2.681 2.681 0 0 0-2.682 2.68v11.104c0 1.48 1.201 2.68 2.682 2.68h42.626c1.481 0 2.682-1.2 2.682-2.68v-11.104c0-1.48-1.201-2.68-2.682-2.68zm-93.107-115.242h-42.626a2.681 2.681 0 0 0-2.682 2.68v11.104c0 1.48 1.201 2.68 2.682 2.68h42.626a2.68 2.68 0 0 0 2.681-2.68v-11.104c0-1.48-1.2-2.68-2.681-2.68zm59.925 49.392h-42.625a2.68 2.68 0 0 0-2.682 2.68v11.104c0 1.48 1.2 2.68 2.682 2.68h42.625c1.481 0 2.682-1.2 2.682-2.68v-11.104c0-1.48-1.201-2.68-2.682-2.68zm-81.565 49.387h-42.626a2.68 2.68 0 0 0-2.682 2.68v11.104a2.68 2.68 0 0 0 2.682 2.679h42.626a2.68 2.68 0 0 0 2.682-2.679v-11.104a2.68 2.68 0 0 0-2.682-2.68z" filter="url(#filter3_dd)" fill="#fff"/><path d="M13.578 382.696a.536.536 0 0 1 .913-.093c.041.056.07.12.086.188a4.957 4.957 0 0 0 3.211 3.384.525.525 0 0 1 .27.628.532.532 0 0 1-.574.37c-.13-.035-3.167-.973-3.936-4.147a.54.54 0 0 1 .03-.33z" fill="url(#paint14_linear)"/><path d="M11.66 385.002a.538.538 0 0 1 .36-.295.53.53 0 0 1 .64.39c.628 2.585 3.18 3.373 3.205 3.383a.524.524 0 0 1 .38.235.533.533 0 0 1-.046.642.519.519 0 0 1-.411.177.52.52 0 0 1-.222-.056c-.13-.035-3.167-.973-3.936-4.147a.538.538 0 0 1 .03-.329z" fill="url(#paint15_linear)"/><path d="M9.628 387.203a.53.53 0 0 1 .999.09c.629 2.585 3.18 3.373 3.206 3.383a.531.531 0 0 1 .325.878.54.54 0 0 1-.409.176.532.532 0 0 1-.22-.056c-.126-.035-3.162-.973-3.936-4.147a.497.497 0 0 1 .035-.324z" fill="url(#paint16_linear)"/><path d="M11.78 376.129a.496.496 0 0 1 .444-.135.542.542 0 0 1 .348.213.531.531 0 0 1 .092.396 4.953 4.953 0 0 0 1.649 4.357.528.528 0 1 1-.67.818c-.105-.085-2.542-2.121-2.027-5.345a.54.54 0 0 1 .165-.304z" fill="url(#paint17_linear)"/><path d="M9.118 377.506a.519.519 0 0 1 .444-.139.533.533 0 0 1 .44.609c-.42 2.63 1.628 4.341 1.648 4.356a.536.536 0 0 1 .194.359.528.528 0 0 1-.863.46c-.105-.085-2.542-2.121-2.028-5.34a.501.501 0 0 1 .165-.305z" fill="url(#paint18_linear)"/><path d="M6.392 378.744a.538.538 0 0 1 .79.078.533.533 0 0 1 .094.396c-.42 2.625 1.633 4.337 1.653 4.357a.532.532 0 0 1 .072.746.53.53 0 0 1-.747.072c-.105-.084-2.542-2.121-2.022-5.345a.497.497 0 0 1 .16-.304z" fill="url(#paint19_linear)"/></g><defs><filter id="filter0_d" x="15.006" y="16.504" width="44.55" height="49.099" filterUnits="userSpaceOnUse" color-interpolation-filters="sRGB"><feFlood flood-opacity="0" result="BackgroundImageFix"/><feColorMatrix in="SourceAlpha" values="0 0 0 0 0 0 0 0 0 0 0 0 0 0 0 0 0 0 127 0"/><feOffset dy="5"/><feGaussianBlur stdDeviation="5"/><feColorMatrix values="0 0 0 0 0 0 0 0 0 0 0 0 0 0 0 0 0 0 0.1 0"/><feBlend in2="BackgroundImageFix" result="effect1_dropShadow"/><feBlend in="SourceGraphic" in2="effect1_dropShadow" result="shape"/></filter><filter id="filter1_f" x="38.716" y="156.716" width="76.569" height="76.569" filterUnits="userSpaceOnUse" color-interpolation-filters="sRGB"><feFlood flood-opacity="0" result="BackgroundImageFix"/><feBlend in="SourceGraphic" in2="BackgroundImageFix" result="shape"/><feGaussianBlur stdDeviation="5" result="effect1_foregroundBlur"/></filter><filter id="filter2_f" x="68.505" y="66.505" width="38.619" height="38.619" filterUnits="userSpaceOnUse" color-interpolation-filters="sRGB"><feFlood flood-opacity="0" result="BackgroundImageFix"/><feBlend in="SourceGraphic" in2="BackgroundImageFix" result="shape"/><feGaussianBlur stdDeviation="2" result="effect1_foregroundBlur"/></filter><filter id="filter3_dd" x="137.696" y="302.863" width="202.737" height="171.706" filterUnits="userSpaceOnUse" color-interpolation-filters="sRGB"><feFlood flood-opacity="0" result="BackgroundImageFix"/><feColorMatrix in="SourceAlpha" values="0 0 0 0 0 0 0 0 0 0 0 0 0 0 0 0 0 0 127 0"/><feOffset dy="10"/><feGaussianBlur stdDeviation="10"/><feColorMatrix values="0 0 0 0 0 0 0 0 0 0 0 0 0 0 0 0 0 0 0.03 0"/><feBlend in2="BackgroundImageFix" result="effect1_dropShadow"/><feColorMatrix in="SourceAlpha" values="0 0 0 0 0 0 0 0 0 0 0 0 0 0 0 0 0 0 127 0"/><feOffset dy="1"/><feGaussianBlur stdDeviation="1"/><feColorMatrix values="0 0 0 0 0 0 0 0 0 0 0 0 0 0 0 0 0 0 0.03 0"/><feBlend in2="effect1_dropShadow" result="effect2_dropShadow"/><feBlend in="SourceGraphic" in2="effect2_dropShadow" result="shape"/></filter><linearGradient id="paint0_linear" x1="80.831" y1="54.303" x2="80.831" y2="296.02" gradientUnits="userSpaceOnUse"><stop stop-color="#426CDC"/><stop offset="1" stop-color="#1531BC"/></linearGradient><linearGradient id="paint1_linear" y1="374.852" x2="0" y2="389.324" gradientUnits="userSpaceOnUse"><stop stop-color="#3462DA"/><stop offset="1" stop-color="#152FB7"/></linearGradient><linearGradient id="paint2_linear" x1="5.82" y1="374.237" x2="5.82" y2="399.404" gradientUnits="userSpaceOnUse"><stop stop-color="#5986FB"/><stop offset="1" stop-color="#2D4EF5"/></linearGradient><linearGradient id="paint3_linear" x1="25.034" x2="25.034" y2="54" gradientUnits="userSpaceOnUse"><stop stop-color="#5986FB"/><stop offset="1" stop-color="#2D4EF5"/></linearGradient><linearGradient id="paint4_linear" x1="48.716" y1="195" x2="48.716" y2="235" gradientUnits="userSpaceOnUse"><stop stop-color="#5986FB"/><stop offset="1" stop-color="#2D4EF5"/></linearGradient><linearGradient id="paint5_linear" x1="208.976" y1="230.505" x2="208.976" y2="255.505" gradientUnits="userSpaceOnUse"><stop stop-color="#5986FB"/><stop offset="1" stop-color="#2D4EF5"/></linearGradient><linearGradient id="paint6_linear" x1="78.976" y1="70.505" x2="78.976" y2="95.505" gradientUnits="userSpaceOnUse"><stop stop-color="#5986FB"/><stop offset="1" stop-color="#2D4EF5"/></linearGradient><linearGradient id="paint7_linear" x1="95.334" y1="113.037" x2="95.334" y2="150.955" gradientUnits="userSpaceOnUse"><stop stop-color="#5986FB"/><stop offset="1" stop-color="#2D4EF5"/></linearGradient><linearGradient id="paint8_linear" x1="164.234" y1="246.125" x2="164.234" y2="279.403" gradientUnits="userSpaceOnUse"><stop stop-color="#426CDC"/><stop offset="1" stop-color="#1531BC"/></linearGradient><linearGradient id="paint9_linear" x1="196.026" y1="261.038" x2="196.026" y2="279.402" gradientUnits="userSpaceOnUse"><stop stop-color="#5986FB"/><stop offset="1" stop-color="#2D4EF5"/></linearGradient><linearGradient id="paint10_linear" x1="154.944" y1="87.11" x2="154.944" y2="133.258" gradientUnits="userSpaceOnUse"><stop stop-color="#5986FB"/><stop offset="1" stop-color="#2D4EF5"/></linearGradient><linearGradient id="paint11_linear" x1="95.334" y1="113.037" x2="95.334" y2="150.955" gradientUnits="userSpaceOnUse"><stop stop-color="#426CDC"/><stop offset="1" stop-color="#1531BC"/></linearGradient><linearGradient id="paint12_linear" x1="154.939" y1="87.11" x2="154.939" y2="133.261" gradientUnits="userSpaceOnUse"><stop stop-color="#406EE7"/><stop offset="1" stop-color="#1C39C8"/></linearGradient><linearGradient id="paint13_linear" x1="230.688" y1="268.449" x2="230.688" y2="279.402" gradientUnits="userSpaceOnUse"><stop stop-color="#426CDC"/><stop offset="1" stop-color="#1531BC"/></linearGradient><linearGradient id="paint14_linear" x1="13.535" y1="382.386" x2="13.535" y2="387.177" gradientUnits="userSpaceOnUse"><stop stop-color="#5080FF"/><stop offset="1" stop-color="#7C92FF"/></linearGradient><linearGradient id="paint15_linear" x1="11.617" y1="384.692" x2="11.617" y2="389.535" gradientUnits="userSpaceOnUse"><stop stop-color="#5080FF"/><stop offset="1" stop-color="#7C92FF"/></linearGradient><linearGradient id="paint16_linear" x1="9.58" y1="386.888" x2="9.58" y2="391.73" gradientUnits="userSpaceOnUse"><stop stop-color="#5080FF"/><stop offset="1" stop-color="#7C92FF"/></linearGradient><linearGradient id="paint17_linear" x1="11.544" y1="375.985" x2="11.544" y2="381.913" gradientUnits="userSpaceOnUse"><stop stop-color="#5986FB"/><stop offset="1" stop-color="#2D4EF5"/></linearGradient><linearGradient id="paint18_linear" x1="8.882" y1="377.36" x2="8.882" y2="383.274" gradientUnits="userSpaceOnUse"><stop stop-color="#5986FB"/><stop offset="1" stop-color="#2D4EF5"/></linearGradient><linearGradient id="paint19_linear" x1="6.159" y1="378.604" x2="6.159" y2="384.514" gradientUnits="userSpaceOnUse"><stop stop-color="#5986FB"/><stop offset="1" stop-color="#2D4EF5"/></linearGradient><clipPath id="clip0"><path fill="#fff" d="M0 0h332v455.091H0z"/></clipPath><clipPath id="clip1"><rect x="25.034" width="56" height="54" rx="27" transform="rotate(25 25.034 0)" fill="#fff"/></clipPath></defs></svg>