<svg width="131" height="28" fill="none" xmlns="http://www.w3.org/2000/svg"><path d="M0 0h52v28H0V0z" fill="#1D32A8"/><path fill-rule="evenodd" clip-rule="evenodd" d="M6 8.23h2.152v3.803l-.132 1.239h.132c.197-.366.504-.679.92-.938.416-.26.93-.39 1.544-.39.514 0 1.005.116 1.47.346.465.23.876.548 1.232.955.356.407.638.893.846 1.46.208.566.312 1.185.312 1.857 0 .672-.104 1.291-.312 1.857a4.601 4.601 0 0 1-.846 1.46 3.953 3.953 0 0 1-1.232.955c-.465.23-.956.345-1.47.345-.613 0-1.128-.13-1.544-.39-.416-.259-.723-.571-.92-.937H8.02v1.044H6V8.23zm4.172 10.809c.285 0 .556-.06.813-.177a2.13 2.13 0 0 0 .682-.496 2.44 2.44 0 0 0 .476-.778c.12-.307.181-.649.181-1.026s-.06-.72-.18-1.026a2.441 2.441 0 0 0-.477-.778 2.016 2.016 0 0 0-2.99-.018 2.44 2.44 0 0 0-.476.778 2.85 2.85 0 0 0-.18 1.044c0 .39.06.737.18 1.044.12.306.28.566.476.778a2.027 2.027 0 0 0 1.495.655zm11.252.725h-.131a2.824 2.824 0 0 1-1.019 1.035c-.427.253-.914.38-1.462.38-1.018 0-1.776-.336-2.275-1.008-.498-.673-.747-1.569-.747-2.69v-5.253h2.152v4.97c0 .626.129 1.089.386 1.39.257.3.632.45 1.125.45.296 0 .556-.067.78-.203.225-.136.417-.318.575-.548.16-.23.28-.502.362-.814.084-.327.125-.663.123-1v-4.245h2.152v8.668h-2.02l-.001-1.132zM28.997 25a4.49 4.49 0 0 1-1.52-.239 4.205 4.205 0 0 1-1.158-.619 4.009 4.009 0 0 1-.821-.84 3.358 3.358 0 0 1-.476-.92l2.053-.885c.153.46.405.817.756 1.07.35.254.739.381 1.166.381.679 0 1.215-.227 1.61-.681.394-.454.59-1.088.59-1.902v-.601h-.13a2.693 2.693 0 0 1-.994.893c-.41.218-.896.327-1.454.327-.482 0-.95-.106-1.404-.318a3.694 3.694 0 0 1-1.208-.911 4.755 4.755 0 0 1-.854-1.424c-.219-.554-.328-1.174-.328-1.858 0-.684.109-1.306.328-1.866a4.73 4.73 0 0 1 .854-1.433 3.68 3.68 0 0 1 1.208-.91c.439-.21.918-.319 1.404-.32.558 0 1.043.11 1.454.328a2.7 2.7 0 0 1 .994.893h.13v-.937h2.054v8.049c0 .731-.104 1.388-.312 1.972a4.319 4.319 0 0 1-.87 1.486c-.373.407-.82.72-1.34.938a4.438 4.438 0 0 1-1.732.327zm.082-6.103a2.03 2.03 0 0 0 1.462-.628c.197-.206.356-.46.476-.76.12-.301.18-.646.18-1.036 0-.389-.06-.737-.18-1.043a2.333 2.333 0 0 0-.476-.77 2.03 2.03 0 0 0-1.462-.628 1.969 1.969 0 0 0-1.446.637 2.461 2.461 0 0 0-.476.77c-.12.3-.18.645-.18 1.034 0 .39.06.735.18 1.035.12.301.28.555.476.761a1.997 1.997 0 0 0 1.446.628zm7.211-7.925a1.28 1.28 0 0 1-.534-.115 1.367 1.367 0 0 1-.443-.318 1.51 1.51 0 0 1-.403-1.053c-.007-.39.137-.767.402-1.053a1.39 1.39 0 0 1 .444-.318A1.28 1.28 0 0 1 36.29 8c.383 0 .712.144.986.433.273.29.41.64.41 1.053 0 .413-.137.764-.41 1.053a1.31 1.31 0 0 1-.986.433zm-1.068 9.924v-8.668h2.152v8.668h-2.152zm6.144-7.536h.131a2.824 2.824 0 0 1 1.019-1.035c.427-.253.914-.38 1.462-.38.503 0 .947.088 1.33.265.383.177.698.428.945.752.246.324.432.714.558 1.168.126.454.189.958.189 1.512v5.254h-2.152v-4.97c0-.626-.129-1.089-.386-1.39-.257-.3-.632-.45-1.125-.45a1.48 1.48 0 0 0-.78.203c-.229.14-.425.326-.575.548-.159.23-.28.501-.362.814a3.922 3.922 0 0 0-.123 1v4.245h-2.152v-8.668h2.02l.001 1.132z" fill="#fff"/><path d="M59.216 13.754h-.136v-1.05H57v8.033h2.216v-3.935c0-.328.043-.636.127-.926a2.27 2.27 0 0 1 .372-.754c.16-.21.361-.382.592-.508.232-.126.5-.189.804-.189.508 0 .894.14 1.159.418.265.279.398.707.398 1.287v4.608h2.216v-4.869c0-.514-.065-.981-.195-1.402a3.023 3.023 0 0 0-.575-1.082 2.494 2.494 0 0 0-.973-.696c-.394-.164-.851-.246-1.37-.246-.564 0-1.065.117-1.505.352-.44.235-.79.555-1.05.959zm19.118 0h-.136v-1.05h-2.08v8.033h2.216v-3.935c0-.328.042-.636.127-.926a2.27 2.27 0 0 1 .372-.754c.16-.21.361-.382.592-.508.231-.126.499-.189.803-.189.508 0 .894.14 1.16.418.265.279.397.707.397 1.287v4.608h2.216v-4.869c0-.514-.064-.981-.194-1.402a3.054 3.054 0 0 0-.575-1.082 2.497 2.497 0 0 0-.974-.696c-.394-.164-.85-.246-1.37-.246-.564 0-1.065.117-1.505.352-.44.235-.789.555-1.049.959zm32.254 7.049c.47.138.958.204 1.447.197.49.006.978-.066 1.446-.213a3.552 3.552 0 0 0 1.116-.582c.296-.228.541-.516.72-.844.169-.317.254-.65.254-1 0-.591-.206-1.101-.618-1.533-.412-.432-1.04-.746-1.886-.943l-1.269-.295a3.474 3.474 0 0 1-.804-.295c-.197-.109-.296-.257-.296-.443 0-.196.119-.357.355-.483.237-.126.514-.189.829-.189.317.003.629.075.914.213.304.142.55.386.694.689l1.911-.754c-.293-.655-.75-1.134-1.37-1.435-.62-.3-1.325-.45-2.115-.45a4.933 4.933 0 0 0-1.328.172 3.49 3.49 0 0 0-1.074.492 2.388 2.388 0 0 0-.719.778 2.076 2.076 0 0 0-.262 1.049c-.007.32.069.636.22.918.142.257.332.485.558.672.228.188.482.343.753.46.258.114.527.202.803.262l1.168.245c.485.11.826.233 1.023.37.198.136.296.314.296.532 0 .197-.118.367-.355.509-.237.142-.558.213-.964.213-.395 0-.754-.101-1.074-.304-.322-.202-.579-.51-.77-.926l-1.98.82a3.523 3.523 0 0 0 1.277 1.582c.339.226.709.4 1.1.516zm5.795-6.262h1.455v3.525c0 .907.265 1.606.795 2.098.241.228.525.403.837.516a3.16 3.16 0 0 0 1.125.188c.332.003.664-.027.99-.09.299-.06.578-.15.837-.27l-.625-1.885a1.472 1.472 0 0 1-.322.156 1.508 1.508 0 0 1-.457.057c-.293 0-.519-.087-.676-.262a.82.82 0 0 1-.228-.402 2.1 2.1 0 0 1-.06-.516v-3.115h2.03v-1.836h-2.03v-2.46h-2.216v2.46h-1.455v1.836z" fill="#1D32A8"/><path fill-rule="evenodd" clip-rule="evenodd" d="M74.561 18.804a4.563 4.563 0 0 1-1.548 1.59c-.649.404-1.44.606-2.377.606a4.695 4.695 0 0 1-1.751-.32 4.226 4.226 0 0 1-1.396-.893 4.075 4.075 0 0 1-.922-1.353 4.345 4.345 0 0 1-.33-1.713 4.275 4.275 0 0 1 1.218-3.008 4.28 4.28 0 0 1 3.096-1.27c.666 0 1.258.106 1.777.32.519.212.953.507 1.303.885.35.377.614.822.795 1.336.18.513.27 1.07.27 1.672v.196c-.01.06-.016.12-.017.18a.894.894 0 0 0-.016.181H68.42a2.2 2.2 0 0 0 .279.844c.27.455.702.79 1.21.935.248.07.501.106.76.106.508 0 .929-.112 1.261-.336.333-.224.595-.505.787-.844l1.844.885v.001zm-2.157-3.591c.084.175.133.333.144.476h-4.009c.146-.47.4-.837.76-1.099a2.071 2.071 0 0 1 1.253-.393c.297-.007.592.043.87.147.225.087.432.215.61.377.153.14.28.306.372.492zM89.551 9h2.216v3.525l-.136 1.147h.136c.203-.339.519-.628.947-.869.429-.24.959-.36 1.59-.36.53 0 1.035.106 1.515.32.48.212.902.507 1.269.885.366.377.657.827.87 1.352a4.51 4.51 0 0 1 .322 1.721 4.51 4.51 0 0 1-.321 1.722c-.2.503-.496.962-.871 1.352-.367.377-.79.672-1.27.885-.479.213-.983.32-1.513.32-.632 0-1.162-.12-1.59-.36-.43-.241-.745-.53-.948-.87h-.136v.968h-2.08V9zm5.837 9.393a2.21 2.21 0 0 1-1.54.623c-.294 0-.573-.052-.838-.155a2.085 2.085 0 0 1-.702-.452 2.222 2.222 0 0 1-.49-.72 2.385 2.385 0 0 1-.187-.968 2.395 2.395 0 0 1 .187-.967 2.11 2.11 0 0 1 1.192-1.172c.265-.104.544-.156.838-.156a2.21 2.21 0 0 1 1.54.623c.21.206.376.452.49.722.124.284.186.6.186.95s-.062.667-.186.952a2.249 2.249 0 0 1-.49.72zm9.423 1.493h-.136c-.26.305-.572.568-.939.786-.366.219-.837.328-1.412.328a3.53 3.53 0 0 1-1.21-.205 3.174 3.174 0 0 1-.99-.565 2.535 2.535 0 0 1-.66-.87c-.16-.35-.24-.73-.236-1.114 0-.415.084-.79.253-1.123.17-.333.407-.62.711-.86a3.23 3.23 0 0 1 1.074-.55c.412-.126.86-.188 1.345-.188.542 0 .987.04 1.337.123.35.082.637.166.863.254v-.246c0-.426-.175-.779-.525-1.058-.35-.278-.784-.418-1.302-.418-.767 0-1.416.312-1.946.935l-1.607-1.066c.88-1.07 2.08-1.606 3.603-1.606 1.286 0 2.267.292 2.944.877.677.584 1.015 1.45 1.015 2.598v4.82h-2.182v-.852zm-.804-2.697c.276.071.545.167.804.287a1.791 1.791 0 0 1-.55 1.286c-.391.368-.91.571-1.447.566-.361 0-.679-.098-.956-.295a.92.92 0 0 1-.414-.787c0-.328.144-.604.431-.828.288-.224.697-.336 1.227-.336.305-.003.609.034.905.107zm24.811 2.696h-.136c-.26.306-.572.569-.939.787-.366.219-.837.328-1.412.328a3.53 3.53 0 0 1-1.21-.205 3.174 3.174 0 0 1-.99-.565 2.528 2.528 0 0 1-.66-.87 2.61 2.61 0 0 1-.236-1.114c0-.415.084-.79.253-1.123.17-.333.406-.62.71-.86.321-.25.685-.436 1.075-.55.412-.126.86-.188 1.345-.188.542 0 .987.04 1.337.123.35.082.637.166.863.254v-.246c0-.426-.175-.779-.525-1.058-.35-.278-.784-.418-1.303-.418-.767 0-1.415.312-1.945.935l-1.607-1.066c.88-1.07 2.08-1.606 3.603-1.606 1.286 0 2.267.292 2.944.877.677.584 1.015 1.45 1.015 2.598v4.82h-2.182v-.853zm-.804-2.696c.276.07.545.166.804.286a1.788 1.788 0 0 1-.55 1.287c-.391.368-.91.571-1.447.566-.361 0-.679-.098-.956-.295a.92.92 0 0 1-.414-.787c0-.328.144-.604.431-.828.287-.224.697-.336 1.227-.336.305-.003.609.034.905.107z" fill="#1D32A8"/></svg>