<svg width="24" height="24" fill="none" xmlns="http://www.w3.org/2000/svg"><path d="M9 3.42l2.029-1.16a1.948 1.948 0 0 1 1.943 0L15 3.42M3 10.386V8.064a2.07 2.07 0 0 1 1.029-1.801L6 5.135m9 15.445l-2.029 1.16a1.948 1.948 0 0 1-1.943 0L9 20.58m12-6.965v2.321c0 .748-.394 1.438-1.029 1.8L18 18.865m-8.624-8.362L12 12m0 0l2.624-1.497M12 12v3.089m0-13.087v2.79m0 14.416v2.79M3.28 7.016l2.34 1.329m12.76 7.31l2.34 1.329m.28-6.599v-2.32c0-.748-.394-1.438-1.029-1.8L18 5.135m-15 8.48v2.321c0 .748.394 1.438 1.029 1.8L6 18.865M20.72 7.016l-2.34 1.329m-12.76 7.31l-2.34 1.329" stroke="#848E9F" stroke-width="1.5" stroke-linecap="round" stroke-linejoin="round"/></svg>