<svg width="24" height="24" fill="none" xmlns="http://www.w3.org/2000/svg"><path d="M18.474 13.031V7.336c0-.586-.234-1.148-.648-1.563L14.7 2.648A2.211 2.211 0 0 0 13.137 2H5.21A2.21 2.21 0 0 0 3 4.21v15.474c0 1.221.99 2.21 2.21 2.21h8.697m4.567-14.368h-4.421c-.61 0-1.106-.495-1.106-1.105V2m5.036 14.615l-2.15 2.15-1.29-1.29m-3.502.898l.734.96.159 1.195a1.48 1.48 0 0 0 1.272 1.274l1.198.16.96.734a1.48 1.48 0 0 0 1.798 0l.96-.734 1.195-.16a1.48 1.48 0 0 0 1.273-1.271l.16-1.198.734-.96a1.48 1.48 0 0 0 0-1.798l-.734-.96-.159-1.195a1.481 1.481 0 0 0-1.272-1.274l-1.198-.16-.96-.734a1.48 1.48 0 0 0-1.798 0l-.96.734-1.195.16a1.48 1.48 0 0 0-1.273 1.271l-.16 1.199c0-.002-.372.485-.734.959a1.48 1.48 0 0 0 0 1.798z" stroke="#848E9F" stroke-width="1.5" stroke-linecap="round" stroke-linejoin="round"/></svg>