<svg width="24" height="24" fill="none" xmlns="http://www.w3.org/2000/svg"><path d="M9.778 18.78h4.444m3.334-6.763h2.222c1.228 0 2.222-1.009 2.222-2.254V5.254C22 4.01 21.006 3 19.778 3H4.222C2.994 3 2 4.009 2 5.254v4.509c0 1.245.994 2.254 2.222 2.254h2.222m11.112-4.508H6.444v13.364A1.12 1.12 0 0 0 7.556 22h8.888a1.12 1.12 0 0 0 1.112-1.127V7.509zM13.57 11.55c.868.88.868 2.308 0 3.188a2.2 2.2 0 0 1-3.142 0 2.277 2.277 0 0 1 0-3.188 2.2 2.2 0 0 1 3.142 0z" stroke="#848E9F" stroke-width="1.5" stroke-linecap="round" stroke-linejoin="round"/></svg>