<svg width="24" height="24" fill="none" xmlns="http://www.w3.org/2000/svg"><path d="M18.667 17.343h1.11c1.229 0 2.223-.981 2.223-2.192v-3.288c0-1.21-.994-2.192-2.222-2.192h-1.111c-.614 0-1.111.491-1.111 1.096v5.48c0 .605.497 1.096 1.11 1.096zm0 0v1.095c0 1.211-.995 2.192-2.223 2.192h-2.36m5.138-10.959v-.548C19.222 5.19 15.99 2 12 2 8.011 2 4.778 5.189 4.778 9.123v.548m9.305 10.96a1.38 1.38 0 0 0-1.389-1.37h-1.388a1.38 1.38 0 0 0-1.39 1.37A1.38 1.38 0 0 0 11.306 22h1.388a1.38 1.38 0 0 0 1.39-1.37zm-8.75-3.288h-1.11C2.993 17.343 2 16.361 2 15.15v-3.288c0-1.21.994-2.192 2.222-2.192h1.111c.614 0 1.111.491 1.111 1.096v5.48c0 .605-.497 1.096-1.11 1.096z" stroke="#848E9F" stroke-width="1.5" stroke-linecap="round" stroke-linejoin="round"/></svg>